{"glyphs":{"0":{"ha":783,"x_min":76,"x_max":707,"o":"m 156 123 q 116 190 156 123 q 76 486 76 257 q 155 849 76 715 q 392 983 233 983 q 628 849 550 983 q 707 486 707 715 q 630 122 707 256 q 394 -11 553 -11 q 156 123 236 -11 m 392 879 q 194 486 194 879 q 394 93 194 93 q 543 192 497 93 q 589 486 589 290 q 542 780 589 681 q 392 879 494 879 z "},"1":{"ha":526,"x_min":49,"x_max":360,"o":"m 49 797 l 282 978 l 360 978 l 360 0 l 249 0 l 249 818 l 107 707 l 49 797 z "},"2":{"ha":732,"x_min":63,"x_max":656,"o":"m 63 0 l 63 90 q 340 385 260 285 q 497 715 497 581 q 456 828 497 783 q 339 872 415 872 q 228 832 276 872 q 165 717 179 792 l 71 756 q 165 922 88 861 q 349 983 243 983 q 546 910 476 983 q 615 738 615 838 q 566 538 615 643 q 436 340 517 433 q 308 198 356 246 q 207 104 260 150 l 656 104 l 656 0 l 63 0 z "},"3":{"ha":739,"x_min":49,"x_max":649,"o":"m 343 -14 q 163 29 240 -14 q 49 153 86 72 l 113 232 q 208 132 147 167 q 339 97 269 97 q 479 147 428 97 q 531 272 531 196 q 476 396 531 350 q 332 442 421 442 l 256 442 l 256 553 l 325 553 q 442 601 392 553 q 493 721 493 649 q 451 834 493 793 q 335 875 408 875 q 135 754 204 875 l 72 831 q 177 945 106 904 q 343 986 249 986 q 538 920 465 986 q 611 740 611 854 q 572 599 611 660 q 460 507 533 538 l 460 503 q 598 423 547 489 q 649 268 649 357 q 563 63 649 140 q 343 -14 476 -14 z "},"4":{"ha":764,"x_min":28,"x_max":722,"o":"m 476 0 l 476 243 l 28 243 l 28 322 l 431 972 l 558 972 l 174 354 l 476 354 l 476 625 l 588 625 l 588 354 l 722 354 l 722 243 l 588 243 l 588 0 l 476 0 z "},"5":{"ha":717,"x_min":49,"x_max":644,"o":"m 138 483 l 199 972 l 638 972 l 638 861 l 296 861 l 260 599 q 338 608 296 608 q 558 526 472 608 q 644 307 644 443 q 553 74 644 161 q 328 -14 461 -14 q 167 24 244 -14 q 49 133 90 61 l 113 215 q 208 128 147 160 q 331 97 268 97 q 470 156 414 97 q 526 303 526 214 q 462 450 526 392 q 290 508 397 508 q 138 483 201 508 z "},"6":{"ha":769,"x_min":69,"x_max":707,"o":"m 69 344 q 113 587 69 472 q 226 781 156 701 q 377 914 296 861 q 542 986 458 967 l 588 901 q 340 753 449 865 q 200 469 231 640 q 429 599 268 599 q 628 515 550 599 q 707 300 707 432 q 617 74 707 163 q 407 -14 526 -14 q 160 90 250 -14 q 69 344 69 193 m 188 344 q 244 168 188 239 q 406 97 301 97 q 537 155 485 97 q 589 292 589 213 q 538 438 589 381 q 392 494 486 494 q 260 449 314 494 q 188 344 207 404 z "},"7":{"ha":674,"x_min":42,"x_max":625,"o":"m 42 861 l 42 972 l 625 972 l 625 900 l 267 0 l 144 0 l 490 861 l 42 861 z "},"8":{"ha":826,"x_min":90,"x_max":736,"o":"m 396 556 l 432 556 q 541 603 494 556 q 588 715 588 650 q 536 832 588 789 q 411 875 485 875 q 288 831 338 875 q 239 715 239 786 q 286 603 239 650 q 396 556 333 556 m 431 444 l 400 444 q 265 396 321 444 q 208 272 208 347 q 266 147 208 196 q 413 97 324 97 q 562 145 506 97 q 618 272 618 193 q 563 398 617 351 q 431 444 510 444 m 643 60 q 597 23 643 60 q 414 -14 550 -14 q 184 58 278 -14 q 90 251 90 131 q 141 407 90 340 q 274 497 192 474 l 274 501 q 165 588 208 524 q 121 732 121 653 q 205 915 121 844 q 413 986 289 986 q 621 915 536 986 q 706 732 706 844 q 663 596 706 660 q 546 503 619 532 l 546 499 q 682 419 628 485 q 736 260 736 354 q 643 60 736 133 z "},"9":{"ha":765,"x_min":56,"x_max":696,"o":"m 696 621 q 559 183 696 353 q 210 -14 422 13 l 172 74 q 440 215 336 106 q 565 494 543 324 q 346 374 500 374 q 138 459 219 374 q 56 672 56 544 q 150 898 56 810 q 365 986 244 986 q 609 884 522 986 q 696 621 696 782 m 578 621 q 524 801 578 728 q 367 875 469 875 q 231 817 288 875 q 174 681 174 760 q 227 537 174 596 q 374 478 281 478 q 506 520 453 478 q 578 621 558 563 z "}," ":{"ha":313,"x_min":0,"x_max":0,"o":""},"!":{"ha":431,"x_min":138,"x_max":292,"o":"m 156 299 l 156 972 l 274 972 l 274 299 l 156 299 m 138 75 q 160 126 138 104 q 218 149 182 149 q 270 126 249 149 q 292 75 292 103 q 271 19 292 43 q 218 -4 250 -4 q 160 19 182 -4 q 138 75 138 43 z "},"\"":{"ha":576,"x_min":118,"x_max":458,"o":"m 347 663 l 347 972 l 458 972 l 458 663 l 347 663 m 118 663 l 118 972 l 229 972 l 229 663 l 118 663 z "},"#":{"ha":978,"x_min":56,"x_max":922,"o":"m 440 17 l 533 271 l 278 271 l 172 -14 l 85 17 l 179 271 l 56 271 l 56 368 l 215 368 l 303 604 l 56 604 l 56 701 l 339 701 l 444 986 l 532 954 l 438 701 l 693 701 l 799 986 l 886 956 l 792 701 l 922 701 l 922 604 l 756 604 l 668 368 l 922 368 l 922 271 l 632 271 l 526 -14 l 440 17 m 401 604 l 314 368 l 569 368 l 657 604 l 401 604 z "},"$":{"ha":822,"x_min":106,"x_max":722,"o":"m 597 249 q 571 333 597 297 q 503 392 544 369 q 410 436 461 415 q 309 481 360 457 q 217 536 258 506 q 149 617 175 567 q 122 732 122 667 q 188 897 122 828 q 364 982 253 965 l 364 1097 l 475 1097 l 475 983 q 690 885 615 967 l 626 796 q 429 875 547 875 q 295 836 343 875 q 247 732 247 797 q 274 647 247 683 q 342 589 300 611 q 434 547 383 567 q 535 503 485 526 q 628 449 586 479 q 696 368 669 419 q 722 250 722 317 q 653 77 722 147 q 475 -8 585 7 l 475 -139 l 364 -139 l 364 -11 q 208 37 279 -1 q 106 132 136 75 l 174 213 q 282 128 215 158 q 414 97 349 97 q 545 138 493 97 q 597 249 597 178 z "},"%":{"ha":1218,"x_min":63,"x_max":1156,"o":"m 221 32 l 935 986 l 999 939 l 286 -14 l 221 32 m 135 576 q 99 609 135 576 q 63 746 63 642 q 134 915 63 850 q 317 981 206 981 q 499 915 428 981 q 571 746 571 850 q 499 576 571 642 q 317 510 426 510 q 135 576 207 510 m 167 746 q 211 640 167 681 q 317 600 256 600 q 423 640 379 600 q 467 746 467 681 q 423 850 467 810 q 317 890 379 890 q 210 850 254 890 q 167 746 167 810 m 719 58 q 683 91 719 58 q 647 228 647 124 q 719 397 647 332 q 901 463 790 463 q 1084 397 1013 463 q 1156 228 1156 332 q 1083 58 1156 124 q 901 -8 1011 -8 q 719 58 792 -8 m 751 228 q 796 122 751 163 q 901 82 840 82 q 1008 122 964 82 q 1051 228 1051 163 q 1008 332 1051 292 q 901 372 964 372 q 795 332 839 372 q 751 228 751 292 z "},"&":{"ha":1033,"x_min":97,"x_max":950,"o":"m 811 0 l 710 128 q 411 -14 600 -14 q 185 65 274 -14 q 97 264 97 143 q 159 451 97 374 q 328 601 221 529 q 234 669 269 621 q 199 785 199 717 q 262 929 199 872 q 413 986 325 986 q 564 930 500 986 q 628 785 628 874 q 585 665 628 718 q 483 600 543 611 l 719 296 q 800 625 800 438 l 910 625 q 788 207 910 382 l 950 0 l 811 0 m 414 97 q 642 217 561 97 l 399 536 q 267 413 313 471 q 222 286 222 354 q 278 151 222 204 q 414 97 335 97 m 303 785 q 335 708 303 740 q 413 675 367 675 q 491 707 458 675 q 524 785 524 739 q 491 863 524 831 q 413 896 458 896 q 335 864 367 896 q 303 785 303 832 z "},"'":{"ha":347,"x_min":118,"x_max":229,"o":"m 118 663 l 118 972 l 229 972 l 229 663 l 118 663 z "},"(":{"ha":407,"x_min":56,"x_max":407,"o":"m 407 -225 l 336 -286 q 56 313 56 -44 q 338 911 56 657 l 407 850 q 224 599 281 729 q 167 313 167 469 q 229 18 167 158 q 407 -225 292 -122 z "},")":{"ha":407,"x_min":0,"x_max":351,"o":"m 71 -286 l 0 -225 q 178 18 115 -122 q 240 313 240 158 q 183 599 240 469 q 0 850 126 729 l 69 911 q 351 313 351 657 q 71 -286 351 -44 z "},"*":{"ha":665,"x_min":99,"x_max":567,"o":"m 283 863 q 273 873 283 863 q 263 913 263 883 q 284 963 263 942 q 333 985 306 985 q 385 963 364 985 q 407 913 407 942 q 386 862 407 882 q 333 842 365 842 q 283 863 304 842 m 260 521 q 281 574 260 551 q 332 596 303 596 q 383 574 361 596 q 406 521 406 551 q 383 471 406 493 q 332 449 361 449 q 282 471 304 449 q 260 521 260 493 m 424 811 q 444 863 424 842 q 493 885 464 885 q 545 863 524 885 q 567 811 567 842 q 545 760 567 782 q 493 739 524 739 q 444 760 464 739 q 424 811 424 782 m 444 574 q 434 585 444 574 q 424 626 424 596 q 444 678 424 657 q 493 699 464 699 q 545 678 524 699 q 567 626 567 657 q 545 574 567 596 q 493 553 524 553 q 444 574 464 553 m 119 574 q 109 585 119 574 q 99 626 99 596 q 119 678 99 657 q 169 699 140 699 q 221 678 200 699 q 242 626 242 657 q 221 574 242 596 q 169 553 200 553 q 119 574 140 553 m 99 811 q 119 863 99 842 q 169 885 140 885 q 221 863 200 885 q 242 811 242 842 q 221 760 242 782 q 169 739 200 739 q 119 760 140 739 q 99 811 99 782 z "},"+":{"ha":822,"x_min":96,"x_max":726,"o":"m 96 451 l 96 549 l 357 549 l 357 814 l 461 814 l 461 549 l 726 549 l 726 451 l 461 451 l 461 183 l 357 183 l 357 451 l 96 451 z "},",":{"ha":310,"x_min":71,"x_max":254,"o":"m 75 64 q 96 117 75 97 q 154 138 117 138 q 226 101 199 138 q 254 3 254 64 q 213 -128 254 -74 q 101 -203 171 -182 l 71 -150 q 160 -57 143 -126 q 158 13 171 -10 q 128 0 150 0 q 91 19 107 0 q 75 64 75 38 z "},"-":{"ha":540,"x_min":104,"x_max":436,"o":"m 104 326 l 104 431 l 436 431 l 436 326 l 104 326 z "},".":{"ha":292,"x_min":69,"x_max":222,"o":"m 69 75 q 92 126 69 104 q 149 149 114 149 q 201 126 179 149 q 222 75 222 103 q 201 19 222 43 q 149 -4 181 -4 q 92 19 114 -4 q 69 75 69 43 z "},"/":{"ha":465,"x_min":-42,"x_max":507,"o":"m -42 -257 l 421 986 l 507 954 l 46 -289 l -42 -257 z "},":":{"ha":444,"x_min":146,"x_max":299,"o":"m 146 564 q 168 615 146 593 q 225 638 190 638 q 277 615 256 638 q 299 564 299 592 q 278 508 299 532 q 225 485 257 485 q 168 508 190 485 q 146 564 146 532 m 146 75 q 168 126 146 104 q 225 149 190 149 q 277 126 256 149 q 299 75 299 103 q 278 19 299 43 q 225 -4 257 -4 q 168 19 190 -4 q 146 75 146 43 z "},";":{"ha":450,"x_min":142,"x_max":325,"o":"m 146 564 q 168 615 146 593 q 225 638 190 638 q 277 615 256 638 q 299 564 299 592 q 278 508 299 532 q 225 485 257 485 q 168 508 190 485 q 146 564 146 532 m 146 64 q 167 117 146 97 q 225 138 188 138 q 297 101 269 138 q 325 3 325 64 q 283 -128 325 -74 q 172 -203 242 -182 l 142 -150 q 231 -57 214 -126 q 229 13 242 -10 q 199 0 221 0 q 162 19 178 0 q 146 64 146 38 z "},"<":{"ha":822,"x_min":79,"x_max":690,"o":"m 690 110 l 79 479 l 79 526 l 690 893 l 690 772 l 233 503 l 690 231 l 690 110 z "},"=":{"ha":822,"x_min":96,"x_max":726,"o":"m 96 576 l 96 674 l 726 674 l 726 576 l 96 576 m 96 326 l 96 424 l 726 424 l 726 326 l 96 326 z "},">":{"ha":822,"x_min":132,"x_max":742,"o":"m 742 479 l 132 110 l 132 231 l 589 503 l 132 772 l 132 893 l 742 526 l 742 479 z "},"?":{"ha":647,"x_min":56,"x_max":606,"o":"m 486 722 q 438 831 486 786 q 317 875 390 875 q 122 772 197 875 l 56 846 q 166 947 94 908 q 324 986 238 986 q 530 917 454 986 q 606 746 606 847 q 583 631 606 682 q 528 550 561 579 q 458 490 494 521 q 391 435 421 460 q 345 371 361 410 q 339 282 329 332 l 239 281 q 245 404 225 353 q 304 488 265 456 q 384 549 343 519 q 456 622 425 578 q 486 722 486 665 m 211 75 q 233 126 211 104 q 292 149 256 149 q 344 126 322 149 q 365 75 365 103 q 344 19 365 43 q 292 -4 324 -4 q 233 19 256 -4 q 211 75 211 43 z "},"@":{"ha":1397,"x_min":90,"x_max":1307,"o":"m 872 0 l 872 65 q 679 -14 793 -14 q 453 75 538 -14 q 369 313 369 164 q 469 544 369 450 q 721 639 569 639 q 983 568 871 639 l 983 104 l 1013 104 q 1151 181 1099 104 q 1203 375 1203 258 q 1066 690 1203 564 q 713 817 929 817 q 342 676 490 817 q 194 313 194 535 q 344 -47 194 97 q 713 -192 493 -192 q 863 -175 792 -192 l 869 -278 q 713 -296 788 -296 q 267 -122 443 -296 q 90 313 90 51 q 267 745 90 569 q 713 921 444 921 q 1138 769 969 921 q 1307 376 1307 617 q 1222 112 1307 224 q 988 0 1138 0 l 872 0 m 697 90 q 796 115 749 90 q 872 172 843 139 l 872 494 q 719 535 801 535 q 552 469 617 535 q 488 307 488 403 q 545 149 488 207 q 697 90 603 90 z "},"A":{"ha":979,"x_min":21,"x_max":958,"o":"m 21 0 l 439 978 l 540 978 l 958 0 l 832 0 l 707 294 l 264 294 l 140 0 l 21 0 m 486 821 l 311 406 l 661 406 l 486 821 z "},"B":{"ha":857,"x_min":146,"x_max":760,"o":"m 146 1 l 146 971 q 413 976 363 976 q 651 911 576 976 q 725 736 725 846 q 679 592 725 649 q 558 511 633 536 l 558 508 q 706 434 651 493 q 760 278 760 375 q 663 66 760 136 q 407 -4 567 -4 q 146 1 260 -4 m 421 443 l 264 443 l 264 113 q 414 107 328 107 q 583 152 524 107 q 642 285 642 197 q 584 402 642 361 q 421 443 526 443 m 410 865 q 264 861 368 865 l 264 547 l 419 547 q 553 590 500 547 q 607 710 607 633 q 410 865 607 865 z "},"C":{"ha":911,"x_min":69,"x_max":869,"o":"m 822 183 l 869 94 q 738 15 821 44 q 563 -14 654 -14 q 206 123 343 -14 q 69 486 69 260 q 201 844 69 701 q 554 986 332 986 q 850 892 740 986 l 796 803 q 556 875 699 875 q 296 767 397 875 q 194 486 194 658 q 299 205 194 313 q 574 97 404 97 q 822 183 717 97 z "},"D":{"ha":1026,"x_min":146,"x_max":957,"o":"m 146 0 l 146 972 l 163 972 q 281 974 193 972 q 411 976 369 976 q 660 938 553 976 q 831 833 767 900 q 926 681 894 765 q 957 499 957 597 q 812 139 957 281 q 400 -3 667 -3 q 287 -1 369 -3 q 161 0 204 0 l 146 0 m 408 865 q 358 865 382 865 q 308 863 335 864 q 264 861 281 861 l 264 111 q 404 108 392 108 q 719 216 607 108 q 832 499 832 324 q 722 764 832 663 q 408 865 613 865 z "},"E":{"ha":799,"x_min":146,"x_max":708,"o":"m 146 0 l 146 972 l 694 972 l 694 861 l 264 861 l 264 547 l 653 547 l 653 436 l 264 436 l 264 111 l 708 111 l 708 0 l 146 0 z "},"F":{"ha":750,"x_min":146,"x_max":694,"o":"m 146 0 l 146 972 l 694 972 l 694 861 l 264 861 l 264 517 l 653 517 l 653 406 l 264 406 l 264 0 l 146 0 z "},"G":{"ha":1010,"x_min":69,"x_max":926,"o":"m 553 383 l 553 494 l 926 494 l 926 121 q 761 22 864 58 q 563 -14 658 -14 q 203 122 336 -14 q 69 486 69 258 q 201 843 69 700 q 547 986 333 986 q 853 892 733 986 l 801 797 q 561 875 715 875 q 296 768 397 875 q 194 486 194 661 q 297 203 194 310 q 565 97 399 97 q 706 122 635 97 q 815 183 776 146 l 815 383 l 553 383 z "},"H":{"ha":1063,"x_min":146,"x_max":917,"o":"m 799 0 l 799 440 l 264 440 l 264 0 l 146 0 l 146 972 l 264 972 l 264 551 l 799 551 l 799 972 l 917 972 l 917 0 l 799 0 z "},"I":{"ha":465,"x_min":174,"x_max":292,"o":"m 174 0 l 174 972 l 292 972 l 292 0 l 174 0 z "},"J":{"ha":519,"x_min":14,"x_max":374,"o":"m 374 972 l 374 221 q 161 -14 374 -14 q 14 38 65 -14 l 54 128 q 146 97 94 97 q 256 240 256 97 l 256 972 l 374 972 z "},"K":{"ha":907,"x_min":146,"x_max":879,"o":"m 857 972 l 424 515 l 879 0 l 728 0 l 288 507 l 714 972 l 857 972 m 146 0 l 146 972 l 264 972 l 264 0 l 146 0 z "},"L":{"ha":764,"x_min":146,"x_max":743,"o":"m 146 0 l 146 972 l 264 972 l 264 111 l 743 111 l 743 0 l 146 0 z "},"M":{"ha":1239,"x_min":146,"x_max":1093,"o":"m 146 0 l 146 972 l 265 972 l 631 474 l 981 972 l 1093 972 l 1093 0 l 975 0 l 975 786 l 631 303 l 613 303 l 264 782 l 264 0 l 146 0 z "},"N":{"ha":1104,"x_min":146,"x_max":958,"o":"m 958 0 l 864 0 l 257 764 l 257 0 l 146 0 l 146 972 l 240 972 l 847 206 l 847 972 l 958 972 l 958 0 z "},"O":{"ha":1131,"x_min":69,"x_max":1061,"o":"m 69 486 q 210 842 69 699 q 565 986 350 986 q 920 846 779 986 q 1061 486 1061 706 q 919 128 1061 271 q 565 -14 778 -14 q 210 126 351 -14 q 69 486 69 267 m 194 486 q 301 209 194 321 q 565 97 408 97 q 833 208 729 97 q 936 486 936 319 q 829 765 936 654 q 565 875 722 875 q 300 765 406 875 q 194 486 194 656 z "},"P":{"ha":829,"x_min":146,"x_max":760,"o":"m 264 0 l 146 0 l 146 972 q 270 974 172 972 q 400 975 368 975 q 676 890 592 975 q 760 674 760 804 q 669 457 760 546 q 410 368 578 368 q 264 374 329 368 l 264 0 m 411 864 q 264 861 356 864 l 264 486 q 406 479 343 479 q 574 531 513 479 q 635 675 635 583 q 579 814 635 764 q 411 864 524 864 z "},"Q":{"ha":1131,"x_min":69,"x_max":1061,"o":"m 69 486 q 210 842 69 699 q 565 986 350 986 q 920 846 779 986 q 1061 486 1061 706 q 915 125 1061 268 l 1022 0 l 883 0 l 832 60 q 565 -14 713 -14 q 210 126 351 -14 q 69 486 69 267 m 194 486 q 301 209 194 321 q 565 97 408 97 q 757 147 672 97 l 672 249 l 750 319 l 839 215 q 936 486 936 326 q 829 765 936 654 q 565 875 722 875 q 300 765 406 875 q 194 486 194 656 z "},"R":{"ha":893,"x_min":146,"x_max":865,"o":"m 264 0 l 146 0 l 146 972 q 286 974 176 972 q 407 975 396 975 q 753 686 753 975 q 691 506 753 579 q 542 411 629 433 l 865 0 l 721 0 l 422 389 l 264 389 l 264 0 m 400 864 q 264 861 356 864 l 264 500 l 407 500 q 562 551 496 500 q 628 685 628 601 q 400 864 628 864 z "},"S":{"ha":763,"x_min":69,"x_max":693,"o":"m 568 249 q 542 333 568 297 q 474 392 515 369 q 381 436 432 415 q 280 481 331 457 q 188 536 229 506 q 119 617 146 567 q 93 732 93 667 q 172 913 93 840 q 386 986 251 986 q 541 958 469 986 q 654 885 613 931 l 590 796 q 393 875 511 875 q 265 836 313 875 q 218 732 218 797 q 244 647 218 683 q 313 589 271 611 q 405 547 354 567 q 506 503 456 526 q 599 449 557 479 q 667 368 640 419 q 693 250 693 317 q 602 59 693 132 q 376 -14 511 -14 q 193 26 282 -14 q 69 132 104 65 l 138 213 q 246 128 179 158 q 378 97 313 97 q 513 138 458 97 q 568 249 568 178 z "},"T":{"ha":826,"x_min":14,"x_max":813,"o":"m 14 861 l 14 972 l 813 972 l 813 861 l 472 861 l 472 0 l 354 0 l 354 861 l 14 861 z "},"U":{"ha":1043,"x_min":132,"x_max":911,"o":"m 911 972 l 911 406 q 804 92 911 196 q 535 -12 697 -12 q 242 98 353 -12 q 132 415 132 208 l 132 972 l 250 972 l 250 438 q 324 188 250 278 q 535 99 399 99 q 725 183 657 99 q 793 429 793 267 l 793 972 l 911 972 z "},"V":{"ha":911,"x_min":7,"x_max":904,"o":"m 904 972 l 504 -6 l 417 -6 l 7 972 l 133 972 l 464 172 l 785 972 l 904 972 z "},"W":{"ha":1347,"x_min":14,"x_max":1333,"o":"m 1333 972 l 1053 0 l 944 0 l 678 782 l 417 0 l 308 0 l 14 972 l 147 972 l 374 199 l 625 972 l 739 972 l 997 199 l 1218 972 l 1333 972 z "},"X":{"ha":922,"x_min":28,"x_max":894,"o":"m 882 972 l 538 494 l 894 0 l 754 0 l 460 404 l 167 0 l 28 0 l 385 494 l 43 972 l 182 972 l 464 583 l 742 972 l 882 972 z "},"Y":{"ha":839,"x_min":14,"x_max":825,"o":"m 825 972 l 476 417 l 476 0 l 358 0 l 358 417 l 14 972 l 150 972 l 422 528 l 696 972 l 825 972 z "},"Z":{"ha":882,"x_min":56,"x_max":826,"o":"m 83 861 l 83 972 l 813 972 l 813 893 l 215 111 l 826 111 l 826 0 l 56 0 l 56 79 l 650 861 l 83 861 z "},"[":{"ha":444,"x_min":83,"x_max":431,"o":"m 83 -278 l 83 903 l 431 903 l 431 799 l 194 799 l 194 -174 l 431 -174 l 431 -278 l 83 -278 z "},"\\":{"ha":465,"x_min":-42,"x_max":507,"o":"m 44 986 l 507 -257 l 419 -289 l -42 954 l 44 986 z "},"]":{"ha":444,"x_min":14,"x_max":361,"o":"m 361 903 l 361 -278 l 14 -278 l 14 -174 l 250 -174 l 250 799 l 14 799 l 14 903 l 361 903 z "},"^":{"ha":683,"x_min":56,"x_max":628,"o":"m 56 625 l 306 983 l 381 983 l 628 625 l 507 625 l 342 869 l 176 625 l 56 625 z "},"_":{"ha":433,"x_min":0,"x_max":433,"o":"m 0 -278 l 0 -167 l 433 -167 l 433 -278 l 0 -278 z "},"`":{"ha":403,"x_min":83,"x_max":319,"o":"m 251 738 l 83 935 l 171 1001 l 319 785 l 251 738 z "},"a":{"ha":639,"x_min":56,"x_max":553,"o":"m 133 493 l 104 582 q 313 639 196 639 q 497 575 442 639 q 553 383 553 511 l 553 0 l 447 0 l 447 81 q 247 -10 375 -10 q 108 42 161 -10 q 56 183 56 94 q 122 329 56 276 q 292 382 188 382 q 447 342 392 382 q 419 490 447 442 q 306 539 392 539 q 133 493 221 539 m 286 90 q 447 171 379 90 l 447 250 q 307 292 389 292 q 213 265 251 292 q 174 189 174 239 q 203 117 174 143 q 286 90 233 90 z "},"b":{"ha":763,"x_min":100,"x_max":703,"o":"m 100 58 l 100 972 l 211 972 l 211 565 q 299 618 246 597 q 406 639 351 639 q 623 551 543 639 q 703 322 703 464 q 608 77 703 168 q 356 -14 514 -14 q 100 58 200 -14 m 381 535 q 283 510 329 535 q 211 454 236 486 l 211 133 q 361 90 275 90 q 522 151 458 90 q 585 314 585 211 q 528 476 585 418 q 381 535 472 535 z "},"c":{"ha":678,"x_min":58,"x_max":633,"o":"m 581 171 l 633 90 q 531 13 594 40 q 393 -14 467 -14 q 151 76 243 -14 q 58 313 58 165 q 149 544 58 450 q 375 639 239 639 q 621 557 539 639 l 569 469 q 390 535 499 535 q 240 472 303 535 q 176 313 176 408 q 241 151 176 213 q 401 90 306 90 q 581 171 510 90 z "},"d":{"ha":769,"x_min":58,"x_max":669,"o":"m 558 0 l 558 79 q 360 -11 475 -11 q 140 76 222 -11 q 58 308 58 164 q 155 547 58 454 q 400 639 251 639 q 558 594 496 639 l 558 972 l 669 972 l 669 0 l 558 0 m 381 93 q 558 176 483 93 l 558 486 q 404 535 482 535 q 242 473 308 535 q 176 311 176 411 q 233 151 176 210 q 381 93 290 93 z "},"e":{"ha":722,"x_min":58,"x_max":671,"o":"m 593 156 l 628 68 q 393 -14 538 -14 q 150 75 242 -14 q 58 313 58 164 q 144 547 58 454 q 381 639 231 639 q 588 559 504 639 q 671 353 671 479 q 664 278 671 310 l 183 278 q 249 140 190 190 q 401 90 308 90 q 593 156 524 90 m 375 535 q 239 488 292 535 q 176 368 186 442 l 556 368 q 503 490 551 446 q 375 535 456 535 z "},"f":{"ha":458,"x_min":114,"x_max":500,"o":"m 114 0 l 114 726 q 171 921 114 856 q 333 986 228 986 q 500 931 442 986 l 461 846 q 351 882 418 882 q 225 714 225 882 l 225 625 l 433 625 l 433 521 l 225 521 l 225 0 l 114 0 z "},"g":{"ha":686,"x_min":14,"x_max":675,"o":"m 14 -90 q 67 32 14 -17 q 214 100 121 81 q 199 151 199 119 q 215 204 199 183 q 112 285 149 231 q 75 410 75 340 q 145 573 75 507 q 331 639 215 639 q 489 593 421 639 l 672 638 l 675 547 l 557 518 q 586 410 586 471 q 515 249 586 314 q 331 185 444 185 q 289 186 303 185 q 282 151 282 172 q 294 110 282 126 q 313 110 300 110 q 332 111 325 111 q 563 60 475 111 q 650 -90 650 8 q 563 -238 650 -187 q 332 -289 475 -289 q 101 -239 189 -289 q 14 -90 14 -189 m 175 -9 q 147 -24 175 -9 q 118 -90 118 -39 q 176 -170 118 -142 q 332 -199 233 -199 q 488 -171 431 -199 q 546 -90 546 -143 q 489 -9 546 -39 q 332 21 432 21 q 175 -9 232 21 m 179 410 q 221 313 179 351 q 331 275 263 275 q 440 313 397 275 q 482 410 482 350 q 440 509 482 469 q 331 549 399 549 q 221 509 263 549 q 179 410 179 469 z "},"h":{"ha":763,"x_min":100,"x_max":675,"o":"m 100 0 l 100 972 l 211 972 l 211 553 q 302 613 247 589 q 415 636 357 636 q 675 358 675 636 l 675 0 l 564 0 l 564 343 q 389 532 564 532 q 290 510 339 532 q 211 453 242 488 l 211 0 l 100 0 z "},"i":{"ha":372,"x_min":117,"x_max":257,"o":"m 131 0 l 131 625 l 242 625 l 242 0 l 131 0 m 117 860 q 138 908 117 889 q 189 926 158 926 q 237 908 217 926 q 257 860 257 889 q 237 807 257 826 q 189 788 217 788 q 138 807 158 788 q 117 860 117 826 z "},"j":{"ha":369,"x_min":-87,"x_max":261,"o":"m 247 625 l 247 -46 q 51 -289 247 -289 q -87 -249 -36 -289 l -56 -160 q 26 -185 -15 -185 q 136 -37 136 -185 l 136 625 l 247 625 m 121 860 q 142 908 121 889 q 193 926 163 926 q 241 908 221 926 q 261 860 261 889 q 241 807 261 826 q 193 788 221 788 q 142 807 163 788 q 121 860 121 826 z "},"k":{"ha":682,"x_min":100,"x_max":668,"o":"m 635 625 l 369 335 l 668 0 l 517 0 l 235 326 l 493 625 l 635 625 m 100 0 l 100 972 l 211 972 l 211 0 l 100 0 z "},"l":{"ha":403,"x_min":100,"x_max":389,"o":"m 100 167 l 100 972 l 211 972 l 211 217 q 228 123 211 153 q 285 93 246 93 q 364 121 322 93 l 389 36 q 242 -11 329 -11 q 100 167 100 -11 z "},"m":{"ha":1115,"x_min":100,"x_max":1028,"o":"m 1028 410 l 1028 0 l 917 0 l 917 379 q 782 532 917 532 q 684 507 728 532 q 618 442 640 482 q 619 397 619 431 l 619 0 l 508 0 l 508 403 q 474 497 508 461 q 375 532 439 532 q 211 447 271 532 l 211 0 l 100 0 l 100 625 l 211 625 l 211 546 q 302 611 246 586 q 418 636 358 636 q 540 607 490 636 q 607 528 589 578 q 699 606 642 576 q 826 636 757 636 q 1028 410 1028 636 z "},"n":{"ha":763,"x_min":100,"x_max":675,"o":"m 100 0 l 100 625 l 211 625 l 211 549 q 301 611 246 586 q 415 636 357 636 q 675 361 675 636 l 675 0 l 564 0 l 564 340 q 388 532 564 532 q 211 451 282 532 l 211 0 l 100 0 z "},"o":{"ha":785,"x_min":58,"x_max":725,"o":"m 151 78 q 105 125 151 78 q 58 313 58 171 q 151 547 58 454 q 392 639 243 639 q 633 547 540 639 q 725 313 725 454 q 633 78 725 171 q 392 -14 540 -14 q 151 78 243 -14 m 176 313 q 237 153 176 215 q 392 90 297 90 q 547 152 486 90 q 607 313 607 214 q 547 472 607 410 q 392 535 486 535 q 238 473 299 535 q 176 313 176 411 z "},"p":{"ha":772,"x_min":100,"x_max":713,"o":"m 100 -278 l 100 625 l 211 625 l 211 551 q 302 615 244 590 q 424 639 360 639 q 634 551 556 639 q 713 322 713 463 q 622 82 713 178 q 388 -14 532 -14 q 211 29 276 -14 l 211 -278 l 100 -278 m 392 535 q 211 449 281 535 l 211 139 q 378 90 283 90 q 535 154 476 90 q 594 318 594 218 q 540 475 594 415 q 392 535 486 535 z "},"q":{"ha":774,"x_min":58,"x_max":672,"o":"m 561 -278 l 561 50 q 379 -14 479 -14 q 146 75 233 -14 q 58 313 58 164 q 158 544 58 450 q 410 639 258 639 q 672 568 560 639 l 672 -278 l 561 -278 m 393 90 q 488 112 442 90 q 561 165 535 133 l 561 494 q 408 535 490 535 q 241 469 306 535 q 176 307 176 403 q 236 151 176 211 q 393 90 296 90 z "},"r":{"ha":472,"x_min":100,"x_max":465,"o":"m 100 0 l 100 625 l 211 625 l 211 551 q 368 636 268 636 q 465 613 433 636 l 426 508 q 342 532 386 532 q 211 443 257 532 l 211 0 l 100 0 z "},"s":{"ha":597,"x_min":63,"x_max":535,"o":"m 417 169 q 382 226 417 204 q 298 262 347 247 q 199 296 249 276 q 114 357 149 315 q 79 463 79 399 q 138 591 79 543 q 292 639 197 639 q 507 565 431 639 l 454 481 q 297 542 386 542 q 224 519 251 542 q 197 464 197 496 q 232 405 197 428 q 316 367 267 382 q 415 334 365 353 q 500 276 465 315 q 535 175 535 236 q 465 34 535 82 q 293 -14 396 -14 q 153 17 221 -14 q 63 83 86 47 l 125 163 q 206 107 153 131 q 306 83 260 83 q 385 106 353 83 q 417 169 417 129 z "},"t":{"ha":490,"x_min":86,"x_max":442,"o":"m 86 238 l 86 799 l 197 799 l 197 625 l 426 625 l 426 521 l 197 521 l 197 249 q 308 93 197 93 q 407 128 361 93 l 442 42 q 282 -11 378 -11 q 133 51 179 -11 q 86 238 86 114 z "},"u":{"ha":750,"x_min":86,"x_max":649,"o":"m 649 625 l 649 0 l 538 0 l 538 89 q 444 16 501 46 q 317 -14 386 -14 q 147 53 208 -14 q 86 253 86 119 l 86 625 l 197 625 l 197 278 q 358 90 197 90 q 458 117 410 90 q 538 183 507 143 l 538 625 l 649 625 z "},"v":{"ha":661,"x_min":7,"x_max":654,"o":"m 654 625 l 378 -6 l 297 -6 l 7 625 l 138 625 l 289 288 q 342 149 314 231 q 393 290 365 225 l 536 625 l 654 625 z "},"w":{"ha":981,"x_min":14,"x_max":967,"o":"m 967 625 l 767 -6 l 669 -6 l 514 401 q 490 478 503 429 q 464 397 475 422 l 313 -6 l 221 -6 l 14 625 l 133 625 l 256 231 q 269 184 261 214 q 279 143 276 154 q 306 231 304 228 l 447 625 l 543 625 l 686 232 q 715 142 689 225 q 740 238 725 189 l 854 625 l 967 625 z "},"x":{"ha":704,"x_min":35,"x_max":669,"o":"m 656 625 l 432 324 l 669 0 l 533 0 l 350 253 l 164 0 l 35 0 l 271 318 l 49 625 l 185 625 l 354 389 l 526 625 l 656 625 z "},"y":{"ha":682,"x_min":14,"x_max":668,"o":"m 668 625 l 418 0 q 300 -220 351 -162 q 179 -278 249 -278 q 61 -239 119 -278 l 97 -154 q 167 -175 142 -175 q 237 -142 206 -175 q 300 -33 268 -108 l 314 0 l 14 625 l 147 625 l 331 228 q 368 133 336 215 q 397 229 381 179 l 542 625 l 668 625 z "},"z":{"ha":674,"x_min":63,"x_max":611,"o":"m 83 521 l 83 625 l 611 625 l 611 547 l 219 104 l 604 104 l 604 0 l 63 0 l 63 78 l 453 521 l 83 521 z "},"{":{"ha":465,"x_min":28,"x_max":438,"o":"m 153 -90 l 153 128 q 115 234 153 203 q 28 264 78 265 l 28 361 q 115 396 76 361 q 153 514 153 431 l 153 707 q 197 854 153 806 q 344 903 240 903 l 438 903 l 438 799 l 371 799 q 288 769 311 799 q 264 669 264 740 l 264 472 q 235 363 264 406 q 160 314 207 321 q 264 156 264 301 l 264 -46 q 292 -144 264 -114 q 379 -174 319 -174 l 438 -174 l 438 -278 l 339 -278 q 199 -233 246 -278 q 153 -90 153 -189 z "},"|":{"ha":458,"x_min":174,"x_max":285,"o":"m 174 0 l 174 972 l 285 972 l 285 0 l 174 0 z "},"}":{"ha":465,"x_min":28,"x_max":438,"o":"m 313 128 l 313 -90 q 265 -233 313 -189 q 125 -278 218 -278 l 28 -278 l 28 -174 l 86 -174 q 174 -144 146 -174 q 201 -46 201 -114 l 201 156 q 306 314 201 301 q 230 363 258 321 q 201 472 201 406 l 201 669 q 177 769 201 740 q 94 799 153 799 l 28 799 l 28 903 l 121 903 q 269 854 225 903 q 313 707 313 806 l 313 514 q 351 396 313 431 q 438 361 389 361 l 438 264 q 350 234 388 265 q 313 128 313 203 z "},"~":{"ha":822,"x_min":69,"x_max":751,"o":"m 119 426 l 69 497 q 258 597 163 597 q 422 548 317 597 q 581 499 528 499 q 707 561 644 499 l 751 485 q 579 401 664 401 q 418 451 522 401 q 264 500 314 500 q 119 426 196 500 z "}," ":{"ha":313,"x_min":0,"x_max":0,"o":""},"¡":{"ha":431,"x_min":139,"x_max":293,"o":"m 275 336 l 275 -337 l 157 -337 l 157 336 l 275 336 m 293 560 q 271 508 293 531 q 213 486 249 486 q 160 509 182 486 q 139 560 139 532 q 160 615 139 592 q 213 639 181 639 q 271 615 249 639 q 293 560 293 592 z "},"¢":{"ha":822,"x_min":124,"x_max":699,"o":"m 646 171 l 699 90 q 500 -11 629 3 l 500 -167 l 389 -167 l 389 -8 q 195 97 267 11 q 124 313 124 183 q 197 526 124 436 q 389 635 271 617 l 389 786 l 500 786 l 500 636 q 686 557 618 624 l 635 469 q 456 535 564 535 q 305 472 368 535 q 242 313 242 408 q 306 151 242 213 q 467 90 371 90 q 646 171 575 90 z "},"£":{"ha":822,"x_min":53,"x_max":775,"o":"m 104 382 l 104 472 l 214 472 q 190 523 208 486 q 164 581 172 560 q 147 638 156 601 q 139 714 139 675 q 222 905 139 826 q 439 983 306 983 q 704 878 608 983 l 642 792 q 442 872 557 872 q 313 824 363 872 q 264 707 264 775 q 277 623 264 661 q 312 542 290 585 q 343 472 333 500 l 568 472 l 568 382 l 360 382 l 360 369 q 285 176 360 271 q 426 139 331 172 q 574 106 522 106 q 725 169 658 106 l 775 83 q 571 -6 688 -6 q 413 31 517 -6 q 254 67 308 67 q 100 -10 179 67 l 53 78 q 169 161 106 135 q 242 349 242 253 q 240 382 242 371 l 104 382 z "},"¤":{"ha":822,"x_min":32,"x_max":790,"o":"m 96 479 q 153 667 96 585 l 38 785 l 107 854 l 222 736 q 411 794 303 794 q 599 738 517 794 l 721 858 l 790 789 l 668 668 q 726 479 726 583 q 668 292 726 374 l 786 174 l 718 106 l 600 222 q 411 164 519 164 q 222 222 303 164 l 100 100 l 32 168 l 153 292 q 96 479 96 372 m 200 479 q 258 324 200 388 q 411 261 315 261 q 566 324 510 261 q 622 479 622 386 q 565 635 622 574 q 411 697 508 697 q 258 635 315 697 q 200 479 200 572 z "},"¥":{"ha":822,"x_min":26,"x_max":796,"o":"m 94 415 l 94 506 l 297 506 l 26 972 l 163 972 l 414 528 l 667 972 l 796 972 l 521 506 l 725 506 l 725 415 l 468 415 l 468 269 l 725 269 l 725 179 l 468 179 l 468 0 l 350 0 l 350 179 l 94 179 l 94 269 l 350 269 l 350 415 l 94 415 z "},"¦":{"ha":458,"x_min":174,"x_max":285,"o":"m 285 611 l 174 611 l 174 972 l 285 972 l 285 611 m 174 361 l 285 361 l 285 0 l 174 0 l 174 361 z "},"§":{"ha":728,"x_min":90,"x_max":638,"o":"m 90 346 q 139 500 90 435 q 274 589 188 565 q 160 776 160 653 q 220 917 160 861 q 383 972 281 972 q 571 882 500 972 l 504 807 q 475 838 486 828 q 440 858 464 847 q 386 868 415 868 q 304 835 338 868 q 271 756 271 803 q 392 600 271 661 q 571 521 504 592 q 638 346 638 450 q 588 191 638 257 q 451 103 538 125 q 565 -82 565 38 q 505 -222 565 -167 q 342 -278 444 -278 q 153 -187 221 -278 l 219 -112 q 249 -142 238 -132 q 285 -163 260 -153 q 339 -174 310 -174 q 421 -141 388 -174 q 454 -61 454 -108 q 331 93 454 32 q 155 174 219 103 q 90 346 90 244 m 247 458 q 224 434 247 458 q 201 346 201 411 q 247 235 201 281 q 364 189 293 189 q 481 235 436 189 q 526 346 526 281 q 481 458 526 411 q 364 504 435 504 q 247 458 293 504 z "},"¨":{"ha":576,"x_min":83,"x_max":493,"o":"m 83 847 q 102 894 83 876 q 149 911 121 911 q 191 893 172 911 q 210 847 210 875 q 192 797 210 815 q 149 778 174 778 q 102 797 121 778 q 83 847 83 815 m 365 847 q 385 893 365 875 q 432 911 404 911 q 474 893 456 911 q 493 847 493 875 q 475 797 493 815 q 432 778 457 778 q 385 797 404 778 q 365 847 365 815 z "},"©":{"ha":1414,"x_min":104,"x_max":1310,"o":"m 278 -121 q 191 -33 278 -121 q 104 307 104 54 q 278 735 104 560 q 707 910 451 910 q 1136 735 963 910 q 1310 307 1310 560 q 1136 -121 1310 54 q 707 -296 963 -296 q 278 -121 451 -296 m 346 665 q 274 591 346 665 q 201 306 201 517 q 346 -52 201 94 q 707 -199 490 -199 q 1067 -51 922 -199 q 1213 306 1213 96 q 1067 665 1213 517 q 707 813 922 813 q 346 665 490 813 m 906 171 l 958 90 q 856 13 919 40 q 718 -14 792 -14 q 476 76 568 -14 q 383 313 383 165 q 474 544 383 450 q 700 639 564 639 q 946 557 864 639 l 894 469 q 715 535 824 535 q 565 472 628 535 q 501 313 501 408 q 566 151 501 213 q 726 90 631 90 q 906 171 835 90 z "},"ª":{"ha":590,"x_min":69,"x_max":493,"o":"m 158 796 l 117 861 q 297 914 189 914 q 438 868 383 914 q 493 735 493 822 l 493 451 l 396 451 l 396 517 q 224 446 338 446 q 112 488 154 446 q 69 589 69 529 q 116 700 69 661 q 244 739 163 739 q 396 704 336 739 l 396 711 q 279 831 396 831 q 158 796 208 831 m 271 528 q 396 578 335 528 l 396 642 q 276 669 338 669 q 202 651 231 669 q 174 599 174 632 q 200 547 174 567 q 271 528 226 528 z "},"«":{"ha":736,"x_min":63,"x_max":660,"o":"m 583 42 l 326 344 l 326 350 l 588 650 l 660 586 l 454 347 l 658 107 l 583 42 m 319 42 l 63 344 l 63 350 l 324 650 l 396 586 l 190 347 l 394 107 l 319 42 z "},"¬":{"ha":822,"x_min":82,"x_max":740,"o":"m 82 451 l 82 549 l 740 549 l 740 269 l 643 269 l 643 451 l 82 451 z "},"­":{"ha":540,"x_min":104,"x_max":436,"o":"m 104 326 l 104 431 l 436 431 l 436 326 l 104 326 z "},"®":{"ha":858,"x_min":69,"x_max":789,"o":"m 69 690 q 175 944 69 839 q 431 1049 281 1049 q 683 944 578 1049 q 789 690 789 839 q 684 433 789 539 q 431 328 579 328 q 174 433 279 328 q 69 690 69 539 m 239 879 q 199 840 239 879 q 160 689 160 800 q 239 499 160 578 q 429 419 318 419 q 619 499 540 419 q 699 689 699 578 q 619 879 699 800 q 429 958 540 958 q 239 879 318 958 m 369 500 l 293 500 l 293 889 l 429 889 q 579 768 579 889 q 556 697 579 728 q 496 656 532 667 l 599 500 l 508 500 l 421 640 l 369 640 l 369 500 m 419 833 l 369 833 l 369 696 l 424 696 q 480 716 457 696 q 503 767 503 736 q 481 815 503 797 q 419 833 460 833 z "},"¯":{"ha":533,"x_min":83,"x_max":450,"o":"m 83 806 l 83 896 l 450 896 l 450 806 l 83 806 z "},"°":{"ha":569,"x_min":69,"x_max":500,"o":"m 69 790 q 132 944 69 882 q 283 1007 194 1007 q 437 947 374 1007 q 500 794 500 886 q 437 640 500 704 q 283 576 374 576 q 132 638 194 576 q 69 790 69 700 m 201 875 q 184 858 201 875 q 167 792 167 840 q 201 708 167 743 q 285 674 236 674 q 368 708 333 674 q 403 792 403 743 q 368 874 403 839 q 285 910 333 910 q 201 875 236 910 z "},"±":{"ha":822,"x_min":96,"x_max":726,"o":"m 96 569 l 96 667 l 357 667 l 357 932 l 461 932 l 461 667 l 726 667 l 726 569 l 461 569 l 461 399 l 357 399 l 357 569 l 96 569 m 96 229 l 96 326 l 726 326 l 726 229 l 96 229 z "},"²":{"ha":485,"x_min":49,"x_max":443,"o":"m 49 486 l 49 557 q 83 580 54 561 q 124 606 113 599 q 162 633 135 614 q 201 663 189 653 q 236 692 214 674 q 269 724 258 711 q 293 755 281 738 q 310 788 306 772 q 315 818 315 803 q 293 873 315 851 q 231 894 271 894 q 168 872 196 894 q 135 814 140 849 l 53 843 q 115 942 63 906 q 240 978 167 978 q 372 936 326 978 q 418 829 418 894 q 390 740 418 785 q 319 661 363 696 q 242 606 275 626 q 176 569 208 585 l 443 569 l 443 486 l 49 486 z "},"³":{"ha":486,"x_min":35,"x_max":431,"o":"m 235 478 q 35 575 88 478 l 92 628 q 144 577 108 596 q 219 558 181 558 q 298 579 269 558 q 326 632 326 600 q 301 679 326 661 q 228 697 275 697 l 181 697 l 181 767 l 222 767 q 283 787 258 767 q 308 838 308 807 q 285 883 308 867 q 221 900 261 900 q 97 838 140 900 l 50 890 q 240 979 100 979 q 365 947 318 979 q 413 857 413 914 q 385 783 413 814 q 310 740 358 753 l 310 739 q 399 701 367 735 q 431 624 431 668 q 374 518 431 558 q 235 478 318 478 z "},"´":{"ha":400,"x_min":83,"x_max":317,"o":"m 317 936 l 150 738 l 83 785 l 231 1003 l 317 936 z "},"µ":{"ha":757,"x_min":93,"x_max":656,"o":"m 656 625 l 656 0 l 544 0 l 544 89 q 451 16 508 46 q 324 -14 393 -14 q 204 14 256 -14 l 204 -278 l 93 -278 l 93 625 l 204 625 l 204 278 q 365 90 204 90 q 465 117 417 90 q 544 183 514 143 l 544 625 l 656 625 z "},"¶":{"ha":640,"x_min":63,"x_max":599,"o":"m 63 668 q 144 890 63 808 q 360 972 226 972 l 599 972 l 599 868 l 468 868 l 468 -18 q 239 -289 468 -289 q 81 -232 140 -289 l 126 -151 q 231 -185 171 -185 q 330 -140 303 -185 q 357 -14 357 -94 l 357 365 q 148 449 233 367 q 63 668 63 531 z "},"·":{"ha":313,"x_min":79,"x_max":232,"o":"m 79 415 q 101 467 79 444 q 158 489 124 489 q 210 466 189 489 q 232 415 232 443 q 211 360 232 383 q 158 336 190 336 q 101 360 124 336 q 79 415 79 383 z "},"¸":{"ha":488,"x_min":83,"x_max":404,"o":"m 83 -237 l 117 -183 q 215 -215 165 -215 q 272 -202 250 -215 q 293 -165 293 -189 q 213 -111 293 -111 l 204 -111 l 204 0 l 264 0 l 264 -60 q 404 -171 404 -68 q 358 -253 404 -222 q 229 -285 311 -285 q 83 -237 154 -285 z "},"¹":{"ha":350,"x_min":31,"x_max":246,"o":"m 31 875 l 176 974 l 246 974 l 246 486 l 149 486 l 149 860 l 68 808 l 31 875 z "},"º":{"ha":661,"x_min":76,"x_max":585,"o":"m 149 509 q 113 542 149 509 q 76 679 76 575 q 148 849 76 783 q 331 914 219 914 q 513 849 442 914 q 585 679 585 783 q 513 509 585 575 q 331 443 440 443 q 149 509 221 443 m 181 679 q 225 574 181 614 q 331 533 269 533 q 437 574 393 533 q 481 679 481 614 q 437 783 481 743 q 331 824 393 824 q 224 783 268 824 q 181 679 181 743 z "},"»":{"ha":736,"x_min":76,"x_max":674,"o":"m 674 344 l 417 42 l 342 107 l 546 347 l 340 586 l 413 650 l 674 350 l 674 344 m 410 344 l 153 42 l 78 107 l 282 347 l 76 586 l 149 650 l 410 350 l 410 344 z "},"¼":{"ha":935,"x_min":44,"x_max":907,"o":"m 44 875 l 190 974 l 260 974 l 260 486 l 163 486 l 163 860 l 82 808 l 44 875 m 69 32 l 783 986 l 847 939 l 135 -14 l 69 32 m 735 0 l 735 110 l 465 110 l 465 174 l 699 486 l 792 486 l 565 186 l 735 186 l 735 313 l 825 313 l 825 186 l 907 186 l 907 110 l 825 110 l 825 0 l 735 0 z "},"½":{"ha":957,"x_min":42,"x_max":901,"o":"m 44 875 l 190 974 l 260 974 l 260 486 l 163 486 l 163 860 l 82 808 l 44 875 m 42 32 l 756 986 l 819 939 l 107 -14 l 42 32 m 507 0 l 507 71 q 542 94 513 75 q 582 120 571 113 q 620 147 593 128 q 660 177 647 167 q 694 206 672 188 q 728 238 717 225 q 751 269 739 251 q 769 301 764 286 q 774 332 774 317 q 751 387 774 365 q 689 408 729 408 q 626 385 654 408 q 593 328 599 363 l 511 357 q 573 456 521 419 q 699 492 625 492 q 831 450 785 492 q 876 343 876 408 q 849 254 876 299 q 777 175 821 210 q 700 119 733 140 q 635 83 667 99 l 901 83 l 901 0 l 507 0 z "},"¾":{"ha":1004,"x_min":42,"x_max":976,"o":"m 153 32 l 867 986 l 931 939 l 218 -14 l 153 32 m 804 0 l 804 110 l 535 110 l 535 174 l 768 486 l 861 486 l 635 186 l 804 186 l 804 313 l 894 313 l 894 186 l 976 186 l 976 110 l 894 110 l 894 0 l 804 0 m 242 478 q 42 575 94 478 l 99 628 q 151 577 115 596 q 226 558 188 558 q 305 579 276 558 q 333 632 333 600 q 308 679 333 661 q 235 697 282 697 l 188 697 l 188 767 l 229 767 q 290 787 265 767 q 315 838 315 807 q 292 883 315 867 q 228 900 268 900 q 104 838 147 900 l 57 890 q 247 979 107 979 q 372 947 325 979 q 419 857 419 914 q 392 783 419 814 q 317 740 365 753 l 317 739 q 406 701 374 735 q 438 624 438 668 q 381 518 438 558 q 242 478 325 478 z "},"¿":{"ha":647,"x_min":42,"x_max":592,"o":"m 161 -87 q 209 -196 161 -151 q 331 -240 257 -240 q 525 -137 450 -240 l 592 -211 q 481 -312 553 -274 q 324 -351 410 -351 q 117 -282 193 -351 q 42 -111 42 -212 q 64 4 42 -47 q 119 85 86 56 q 190 144 153 114 q 256 200 226 175 q 302 264 286 225 q 308 353 318 303 l 408 354 q 402 231 422 282 q 343 147 382 179 q 263 86 304 115 q 192 13 222 57 q 161 -87 161 -31 m 436 560 q 414 508 436 531 q 356 486 392 486 q 303 509 325 486 q 282 560 282 532 q 303 615 282 592 q 356 639 324 639 q 414 615 392 639 q 436 560 436 592 z "},"À":{"ha":979,"x_min":21,"x_max":958,"o":"m 21 0 l 439 978 l 540 978 l 958 0 l 832 0 l 707 294 l 264 294 l 140 0 l 21 0 m 486 821 l 311 406 l 661 406 l 486 821 m 549 1021 l 268 1138 l 310 1232 l 581 1088 l 549 1021 z "},"Á":{"ha":979,"x_min":21,"x_max":958,"o":"m 21 0 l 439 978 l 540 978 l 958 0 l 832 0 l 707 294 l 264 294 l 140 0 l 21 0 m 486 821 l 311 406 l 661 406 l 486 821 m 713 1138 l 432 1021 l 400 1088 l 671 1232 l 713 1138 z "},"Â":{"ha":979,"x_min":21,"x_max":958,"o":"m 21 0 l 439 978 l 540 978 l 958 0 l 832 0 l 707 294 l 264 294 l 140 0 l 21 0 m 486 821 l 311 406 l 661 406 l 486 821 m 246 1081 l 483 1225 l 489 1225 l 731 1082 l 685 1018 l 486 1124 l 286 1018 l 246 1081 z "},"Ã":{"ha":979,"x_min":21,"x_max":958,"o":"m 21 0 l 439 978 l 540 978 l 958 0 l 832 0 l 707 294 l 264 294 l 140 0 l 21 0 m 486 821 l 311 406 l 661 406 l 486 821 m 283 1057 l 247 1126 q 386 1192 308 1192 q 494 1164 429 1192 q 594 1136 558 1136 q 699 1181 657 1136 l 729 1111 q 588 1039 675 1039 q 483 1067 550 1039 q 375 1094 415 1094 q 283 1057 329 1094 z "},"Ä":{"ha":979,"x_min":21,"x_max":958,"o":"m 21 0 l 439 978 l 540 978 l 958 0 l 832 0 l 707 294 l 264 294 l 140 0 l 21 0 m 486 821 l 311 406 l 661 406 l 486 821 m 253 1129 q 275 1174 253 1157 q 329 1192 297 1192 q 380 1174 358 1192 q 401 1129 401 1157 q 380 1081 401 1099 q 329 1063 358 1063 q 274 1081 296 1063 q 253 1129 253 1099 m 575 1129 q 598 1174 575 1157 q 653 1192 621 1192 q 703 1175 682 1192 q 724 1129 724 1158 q 703 1081 724 1099 q 653 1063 682 1063 q 597 1081 619 1063 q 575 1129 575 1099 z "},"Å":{"ha":979,"x_min":21,"x_max":958,"o":"m 315 1100 q 363 1200 315 1167 q 488 1233 411 1233 q 614 1200 565 1233 q 663 1100 663 1167 q 631 1013 663 1047 q 544 967 599 979 l 958 0 l 832 0 l 707 294 l 264 294 l 140 0 l 21 0 l 433 967 q 348 1013 381 978 q 315 1100 315 1047 m 486 821 l 311 406 l 661 406 l 486 821 m 399 1100 q 424 1043 399 1063 q 489 1024 449 1024 q 553 1043 528 1024 q 579 1100 579 1063 q 489 1171 579 1171 q 399 1100 399 1171 z "},"Æ":{"ha":1328,"x_min":-21,"x_max":1238,"o":"m 1224 972 l 1224 861 l 793 861 l 793 547 l 1182 547 l 1182 436 l 793 436 l 793 111 l 1238 111 l 1238 0 l 675 0 l 675 300 l 328 300 l 117 0 l -21 0 l 678 972 l 1224 972 m 675 793 l 406 411 l 675 411 l 675 793 z "},"Ç":{"ha":911,"x_min":69,"x_max":869,"o":"m 383 -235 l 419 -176 q 522 -215 475 -215 q 578 -202 557 -215 q 600 -165 600 -189 q 519 -111 600 -111 l 511 -111 l 511 -11 q 190 139 311 4 q 69 486 69 274 q 201 844 69 701 q 554 986 332 986 q 850 892 740 986 l 796 803 q 556 875 699 875 q 296 767 397 875 q 194 486 194 658 q 299 205 194 313 q 574 97 404 97 q 822 183 717 97 l 869 94 q 742 17 822 46 q 571 -14 661 -11 l 571 -60 q 718 -171 718 -68 q 672 -253 718 -222 q 547 -285 626 -285 q 383 -235 458 -285 z "},"È":{"ha":799,"x_min":146,"x_max":708,"o":"m 146 0 l 146 972 l 694 972 l 694 861 l 264 861 l 264 547 l 653 547 l 653 436 l 264 436 l 264 111 l 708 111 l 708 0 l 146 0 m 500 1021 l 219 1138 l 261 1232 l 532 1088 l 500 1021 z "},"É":{"ha":799,"x_min":146,"x_max":708,"o":"m 146 0 l 146 972 l 694 972 l 694 861 l 264 861 l 264 547 l 653 547 l 653 436 l 264 436 l 264 111 l 708 111 l 708 0 l 146 0 m 629 1138 l 349 1021 l 317 1088 l 588 1232 l 629 1138 z "},"Ê":{"ha":799,"x_min":146,"x_max":708,"o":"m 146 0 l 146 972 l 694 972 l 694 861 l 264 861 l 264 547 l 653 547 l 653 436 l 264 436 l 264 111 l 708 111 l 708 0 l 146 0 m 179 1081 l 417 1225 l 422 1225 l 664 1082 l 618 1018 l 419 1124 l 219 1018 l 179 1081 z "},"Ë":{"ha":799,"x_min":146,"x_max":708,"o":"m 146 0 l 146 972 l 694 972 l 694 861 l 264 861 l 264 547 l 653 547 l 653 436 l 264 436 l 264 111 l 708 111 l 708 0 l 146 0 m 189 1129 q 211 1174 189 1157 q 265 1192 233 1192 q 316 1174 294 1192 q 338 1129 338 1157 q 316 1081 338 1099 q 265 1063 294 1063 q 210 1081 232 1063 q 189 1129 189 1099 m 511 1129 q 534 1174 511 1157 q 589 1192 557 1192 q 639 1175 618 1192 q 660 1129 660 1158 q 639 1081 660 1099 q 589 1063 618 1063 q 533 1081 556 1063 q 511 1129 511 1099 z "},"Ì":{"ha":465,"x_min":-3,"x_max":310,"o":"m 174 0 l 174 972 l 292 972 l 292 0 l 174 0 m 278 1021 l -3 1138 l 39 1232 l 310 1088 l 278 1021 z "},"Í":{"ha":465,"x_min":157,"x_max":469,"o":"m 174 0 l 174 972 l 292 972 l 292 0 l 174 0 m 469 1138 l 189 1021 l 157 1088 l 428 1232 l 469 1138 z "},"Î":{"ha":465,"x_min":-10,"x_max":475,"o":"m 174 0 l 174 972 l 292 972 l 292 0 l 174 0 m -10 1081 l 228 1225 l 233 1225 l 475 1082 l 429 1018 l 231 1124 l 31 1018 l -10 1081 z "},"Ï":{"ha":465,"x_min":-3,"x_max":468,"o":"m 174 0 l 174 972 l 292 972 l 292 0 l 174 0 m -3 1129 q 19 1174 -3 1157 q 74 1192 42 1192 q 124 1174 103 1192 q 146 1129 146 1157 q 124 1081 146 1099 q 74 1063 103 1063 q 19 1081 40 1063 q -3 1129 -3 1099 m 319 1129 q 342 1174 319 1157 q 397 1192 365 1192 q 447 1175 426 1192 q 468 1129 468 1158 q 447 1081 468 1099 q 397 1063 426 1063 q 342 1081 364 1063 q 319 1129 319 1099 z "},"Ð":{"ha":1047,"x_min":14,"x_max":978,"o":"m 14 439 l 14 543 l 167 543 l 167 972 l 183 972 q 302 974 214 972 q 432 976 390 976 q 681 938 574 976 q 851 833 788 900 q 947 681 915 765 q 978 499 978 597 q 833 139 978 281 q 421 -3 688 -3 q 308 -1 390 -3 q 182 0 225 0 l 167 0 l 167 439 l 14 439 m 429 865 q 379 865 403 865 q 328 863 356 864 q 285 861 301 861 l 285 543 l 546 543 l 546 439 l 285 439 l 285 111 q 425 108 413 108 q 740 216 628 108 q 853 499 853 324 q 743 764 853 663 q 429 865 633 865 z "},"Ñ":{"ha":1104,"x_min":146,"x_max":958,"o":"m 958 0 l 864 0 l 257 764 l 257 0 l 146 0 l 146 972 l 240 972 l 847 206 l 847 972 l 958 972 l 958 0 m 356 1057 l 319 1126 q 458 1192 381 1192 q 566 1164 501 1192 q 667 1136 631 1136 q 771 1181 729 1136 l 801 1111 q 660 1039 747 1039 q 555 1067 622 1039 q 447 1094 488 1094 q 356 1057 401 1094 z "},"Ò":{"ha":1131,"x_min":69,"x_max":1061,"o":"m 69 486 q 210 842 69 699 q 565 986 350 986 q 920 846 779 986 q 1061 486 1061 706 q 919 128 1061 271 q 565 -14 778 -14 q 210 126 351 -14 q 69 486 69 267 m 194 486 q 301 209 194 321 q 565 97 408 97 q 833 208 729 97 q 936 486 936 319 q 829 765 936 654 q 565 875 722 875 q 300 765 406 875 q 194 486 194 656 m 667 1021 l 386 1138 l 428 1232 l 699 1088 l 667 1021 z "},"Ó":{"ha":1131,"x_min":69,"x_max":1061,"o":"m 69 486 q 210 842 69 699 q 565 986 350 986 q 920 846 779 986 q 1061 486 1061 706 q 919 128 1061 271 q 565 -14 778 -14 q 210 126 351 -14 q 69 486 69 267 m 194 486 q 301 209 194 321 q 565 97 408 97 q 833 208 729 97 q 936 486 936 319 q 829 765 936 654 q 565 875 722 875 q 300 765 406 875 q 194 486 194 656 m 782 1138 l 501 1021 l 469 1088 l 740 1232 l 782 1138 z "},"Ô":{"ha":1131,"x_min":69,"x_max":1061,"o":"m 69 486 q 210 842 69 699 q 565 986 350 986 q 920 846 779 986 q 1061 486 1061 706 q 919 128 1061 271 q 565 -14 778 -14 q 210 126 351 -14 q 69 486 69 267 m 194 486 q 301 209 194 321 q 565 97 408 97 q 833 208 729 97 q 936 486 936 319 q 829 765 936 654 q 565 875 722 875 q 300 765 406 875 q 194 486 194 656 m 328 1081 l 565 1225 l 571 1225 l 813 1082 l 767 1018 l 568 1124 l 368 1018 l 328 1081 z "},"Õ":{"ha":1131,"x_min":69,"x_max":1061,"o":"m 69 486 q 210 842 69 699 q 565 986 350 986 q 920 846 779 986 q 1061 486 1061 706 q 919 128 1061 271 q 565 -14 778 -14 q 210 126 351 -14 q 69 486 69 267 m 194 486 q 301 209 194 321 q 565 97 408 97 q 833 208 729 97 q 936 486 936 319 q 829 765 936 654 q 565 875 722 875 q 300 765 406 875 q 194 486 194 656 m 358 1057 l 322 1126 q 461 1192 383 1192 q 569 1164 504 1192 q 669 1136 633 1136 q 774 1181 732 1136 l 804 1111 q 663 1039 750 1039 q 558 1067 625 1039 q 450 1094 490 1094 q 358 1057 404 1094 z "},"Ö":{"ha":1131,"x_min":69,"x_max":1061,"o":"m 69 486 q 210 842 69 699 q 565 986 350 986 q 920 846 779 986 q 1061 486 1061 706 q 919 128 1061 271 q 565 -14 778 -14 q 210 126 351 -14 q 69 486 69 267 m 194 486 q 301 209 194 321 q 565 97 408 97 q 833 208 729 97 q 936 486 936 319 q 829 765 936 654 q 565 875 722 875 q 300 765 406 875 q 194 486 194 656 m 328 1129 q 350 1174 328 1157 q 404 1192 372 1192 q 455 1174 433 1192 q 476 1129 476 1157 q 455 1081 476 1099 q 404 1063 433 1063 q 349 1081 371 1063 q 328 1129 328 1099 m 650 1129 q 673 1174 650 1157 q 728 1192 696 1192 q 778 1175 757 1192 q 799 1129 799 1158 q 778 1081 799 1099 q 728 1063 757 1063 q 672 1081 694 1063 q 650 1129 650 1099 z "},"×":{"ha":822,"x_min":153,"x_max":669,"o":"m 154 688 l 224 757 l 411 568 l 599 757 l 667 688 l 479 500 l 669 311 l 600 242 l 411 431 l 221 242 l 153 311 l 342 500 l 154 688 z "},"Ø":{"ha":1131,"x_min":69,"x_max":1061,"o":"m 69 486 q 210 842 69 699 q 565 986 350 986 q 886 875 753 986 l 947 935 l 1011 869 l 951 811 q 1061 486 1061 678 q 919 128 1061 271 q 565 -14 778 -14 q 232 107 368 -14 l 169 46 l 104 113 l 168 175 q 69 486 69 304 m 936 486 q 863 724 936 621 l 318 192 q 565 97 421 97 q 833 208 729 97 q 936 486 936 319 m 194 486 q 258 263 194 361 l 800 792 q 565 875 701 875 q 300 765 406 875 q 194 486 194 656 z "},"Ù":{"ha":1043,"x_min":132,"x_max":911,"o":"m 911 972 l 911 406 q 804 92 911 196 q 535 -12 697 -12 q 242 98 353 -12 q 132 415 132 208 l 132 972 l 250 972 l 250 438 q 324 188 250 278 q 535 99 399 99 q 725 183 657 99 q 793 429 793 267 l 793 972 l 911 972 m 604 1021 l 324 1138 l 365 1232 l 636 1088 l 604 1021 z "},"Ú":{"ha":1043,"x_min":132,"x_max":911,"o":"m 911 972 l 911 406 q 804 92 911 196 q 535 -12 697 -12 q 242 98 353 -12 q 132 415 132 208 l 132 972 l 250 972 l 250 438 q 324 188 250 278 q 535 99 399 99 q 725 183 657 99 q 793 429 793 267 l 793 972 l 911 972 m 733 1138 l 453 1021 l 421 1088 l 692 1232 l 733 1138 z "},"Û":{"ha":1043,"x_min":132,"x_max":911,"o":"m 911 972 l 911 406 q 804 92 911 196 q 535 -12 697 -12 q 242 98 353 -12 q 132 415 132 208 l 132 972 l 250 972 l 250 438 q 324 188 250 278 q 535 99 399 99 q 725 183 657 99 q 793 429 793 267 l 793 972 l 911 972 m 278 1081 l 515 1225 l 521 1225 l 763 1082 l 717 1018 l 518 1124 l 318 1018 l 278 1081 z "},"Ü":{"ha":1043,"x_min":132,"x_max":911,"o":"m 911 972 l 911 406 q 804 92 911 196 q 535 -12 697 -12 q 242 98 353 -12 q 132 415 132 208 l 132 972 l 250 972 l 250 438 q 324 188 250 278 q 535 99 399 99 q 725 183 657 99 q 793 429 793 267 l 793 972 l 911 972 m 279 1129 q 301 1174 279 1157 q 356 1192 324 1192 q 406 1174 385 1192 q 428 1129 428 1157 q 406 1081 428 1099 q 356 1063 385 1063 q 301 1081 322 1063 q 279 1129 279 1099 m 601 1129 q 624 1174 601 1157 q 679 1192 647 1192 q 729 1175 708 1192 q 750 1129 750 1158 q 729 1081 750 1099 q 679 1063 708 1063 q 624 1081 646 1063 q 601 1129 601 1099 z "},"Ý":{"ha":839,"x_min":14,"x_max":825,"o":"m 825 972 l 476 417 l 476 0 l 358 0 l 358 417 l 14 972 l 150 972 l 422 528 l 696 972 l 825 972 m 636 1138 l 356 1021 l 324 1088 l 594 1232 l 636 1138 z "},"Þ":{"ha":829,"x_min":146,"x_max":760,"o":"m 264 0 l 146 0 l 146 972 l 264 972 l 264 826 q 334 828 282 826 q 400 829 386 829 q 676 744 592 829 q 760 528 760 658 q 669 311 760 400 q 410 222 578 222 q 264 228 329 222 l 264 0 m 401 718 q 264 714 360 718 l 264 340 q 406 333 343 333 q 574 385 513 333 q 635 529 635 438 q 576 668 635 618 q 401 718 518 718 z "},"ß":{"ha":758,"x_min":104,"x_max":703,"o":"m 585 214 q 558 289 585 256 q 495 347 532 322 q 421 396 458 371 q 357 458 383 421 q 331 539 331 494 q 351 622 331 585 q 396 679 371 658 q 441 729 421 700 q 461 790 461 758 q 428 856 461 831 q 350 882 396 882 q 248 836 281 882 q 215 692 215 790 l 215 -3 l 104 -3 l 104 706 q 365 986 104 986 q 518 935 457 986 q 579 810 579 885 q 566 742 579 772 q 533 691 553 711 q 494 652 514 671 q 462 610 475 633 q 449 560 449 588 q 475 490 449 521 q 538 436 501 460 q 613 387 575 413 q 676 316 650 361 q 703 211 703 271 q 642 51 703 115 q 489 -14 581 -14 q 290 76 358 -14 l 328 161 q 463 90 388 90 q 549 124 513 90 q 585 214 585 157 z "},"à":{"ha":639,"x_min":56,"x_max":553,"o":"m 133 493 l 104 582 q 313 639 196 639 q 497 575 442 639 q 553 383 553 511 l 553 0 l 447 0 l 447 81 q 247 -10 375 -10 q 108 42 161 -10 q 56 183 56 94 q 122 329 56 276 q 292 382 188 382 q 447 342 392 382 q 419 490 447 442 q 306 539 392 539 q 133 493 221 539 m 286 90 q 447 171 379 90 l 447 250 q 307 292 389 292 q 213 265 251 292 q 174 189 174 239 q 203 117 174 143 q 286 90 233 90 m 349 738 l 181 935 l 268 1001 l 417 785 l 349 738 z "},"á":{"ha":639,"x_min":56,"x_max":553,"o":"m 133 493 l 104 582 q 313 639 196 639 q 497 575 442 639 q 553 383 553 511 l 553 0 l 447 0 l 447 81 q 247 -10 375 -10 q 108 42 161 -10 q 56 183 56 94 q 122 329 56 276 q 292 382 188 382 q 447 342 392 382 q 419 490 447 442 q 306 539 392 539 q 133 493 221 539 m 286 90 q 447 171 379 90 l 447 250 q 307 292 389 292 q 213 265 251 292 q 174 189 174 239 q 203 117 174 143 q 286 90 233 90 m 465 936 l 299 738 l 232 785 l 379 1003 l 465 936 z "},"â":{"ha":639,"x_min":56,"x_max":553,"o":"m 133 493 l 104 582 q 313 639 196 639 q 497 575 442 639 q 553 383 553 511 l 553 0 l 447 0 l 447 81 q 247 -10 375 -10 q 108 42 161 -10 q 56 183 56 94 q 122 329 56 276 q 292 382 188 382 q 447 342 392 382 q 419 490 447 442 q 306 539 392 539 q 133 493 221 539 m 286 90 q 447 171 379 90 l 447 250 q 307 292 389 292 q 213 265 251 292 q 174 189 174 239 q 203 117 174 143 q 286 90 233 90 m 322 982 l 515 797 l 463 731 l 318 857 l 174 732 l 121 797 l 317 982 l 322 982 z "},"ã":{"ha":639,"x_min":56,"x_max":553,"o":"m 133 493 l 104 582 q 313 639 196 639 q 497 575 442 639 q 553 383 553 511 l 553 0 l 447 0 l 447 81 q 247 -10 375 -10 q 108 42 161 -10 q 56 183 56 94 q 122 329 56 276 q 292 382 188 382 q 447 342 392 382 q 419 490 447 442 q 306 539 392 539 q 133 493 221 539 m 286 90 q 447 171 379 90 l 447 250 q 307 292 389 292 q 213 265 251 292 q 174 189 174 239 q 203 117 174 143 q 286 90 233 90 m 138 774 l 92 825 q 244 908 165 908 q 326 878 278 908 q 401 847 374 847 q 500 896 442 847 l 539 839 q 392 757 461 757 q 313 788 361 757 q 233 818 265 818 q 138 774 196 818 z "},"ä":{"ha":639,"x_min":56,"x_max":553,"o":"m 133 493 l 104 582 q 313 639 196 639 q 497 575 442 639 q 553 383 553 511 l 553 0 l 447 0 l 447 81 q 247 -10 375 -10 q 108 42 161 -10 q 56 183 56 94 q 122 329 56 276 q 292 382 188 382 q 447 342 392 382 q 419 490 447 442 q 306 539 392 539 q 133 493 221 539 m 286 90 q 447 171 379 90 l 447 250 q 307 292 389 292 q 213 265 251 292 q 174 189 174 239 q 203 117 174 143 q 286 90 233 90 m 115 847 q 134 894 115 876 q 181 911 153 911 q 223 893 204 911 q 242 847 242 875 q 224 797 242 815 q 181 778 206 778 q 134 797 153 778 q 115 847 115 815 m 397 847 q 417 893 397 875 q 464 911 436 911 q 506 893 488 911 q 525 847 525 875 q 507 797 525 815 q 464 778 489 778 q 417 797 436 778 q 397 847 397 815 z "},"å":{"ha":639,"x_min":56,"x_max":553,"o":"m 133 493 l 104 582 q 313 639 196 639 q 497 575 442 639 q 553 383 553 511 l 553 0 l 447 0 l 447 81 q 247 -10 375 -10 q 108 42 161 -10 q 56 183 56 94 q 122 329 56 276 q 292 382 188 382 q 447 342 392 382 q 419 490 447 442 q 306 539 392 539 q 133 493 221 539 m 286 90 q 447 171 379 90 l 447 250 q 307 292 389 292 q 213 265 251 292 q 174 189 174 239 q 203 117 174 143 q 286 90 233 90 m 207 743 q 184 765 207 743 q 161 851 161 788 q 207 960 161 915 q 319 1006 253 1006 q 434 960 388 1006 q 481 851 481 915 q 434 743 481 788 q 319 699 388 699 q 207 743 253 699 m 233 853 q 258 788 233 814 q 321 761 283 761 q 383 788 358 761 q 408 853 408 814 q 383 917 408 890 q 321 943 358 943 q 258 917 283 943 q 233 853 233 890 z "},"æ":{"ha":1076,"x_min":56,"x_max":1025,"o":"m 313 639 q 510 557 454 639 q 735 639 599 639 q 942 559 858 639 q 1025 353 1025 479 q 1018 278 1025 310 l 553 278 l 553 192 q 756 90 614 90 q 947 156 878 90 l 982 68 q 747 -14 892 -14 q 496 83 589 -14 q 269 -10 393 -10 q 112 41 168 -10 q 56 183 56 92 q 122 329 56 276 q 292 382 188 382 q 442 363 381 382 q 415 492 446 450 q 306 535 385 535 q 133 489 221 535 l 104 582 q 313 639 196 639 m 553 383 l 553 368 l 910 368 q 858 490 906 446 q 729 535 810 535 q 550 439 608 535 q 553 383 553 406 m 286 94 q 442 171 376 94 l 442 272 q 307 292 371 292 q 213 265 251 292 q 174 189 174 239 q 206 120 174 146 q 286 94 238 94 z "},"ç":{"ha":678,"x_min":58,"x_max":633,"o":"m 221 -237 l 254 -183 q 353 -215 303 -215 q 409 -202 388 -215 q 431 -165 431 -189 q 350 -111 431 -111 l 342 -111 l 342 -11 q 135 91 213 4 q 58 313 58 178 q 149 544 58 450 q 375 639 239 639 q 621 557 539 639 l 569 469 q 390 535 499 535 q 240 472 303 535 q 176 313 176 408 q 241 151 176 213 q 401 90 306 90 q 581 171 510 90 l 633 90 q 401 -14 557 -10 l 401 -60 q 542 -171 542 -68 q 495 -253 542 -222 q 367 -285 449 -285 q 221 -237 292 -285 z "},"è":{"ha":722,"x_min":58,"x_max":671,"o":"m 593 156 l 628 68 q 393 -14 538 -14 q 150 75 242 -14 q 58 313 58 164 q 144 547 58 454 q 381 639 231 639 q 588 559 504 639 q 671 353 671 479 q 664 278 671 310 l 183 278 q 249 140 190 190 q 401 90 308 90 q 593 156 524 90 m 375 535 q 239 488 292 535 q 176 368 186 442 l 556 368 q 503 490 551 446 q 375 535 456 535 m 397 738 l 229 935 l 317 1001 l 465 785 l 397 738 z "},"é":{"ha":722,"x_min":58,"x_max":671,"o":"m 593 156 l 628 68 q 393 -14 538 -14 q 150 75 242 -14 q 58 313 58 164 q 144 547 58 454 q 381 639 231 639 q 588 559 504 639 q 671 353 671 479 q 664 278 671 310 l 183 278 q 249 140 190 190 q 401 90 308 90 q 593 156 524 90 m 375 535 q 239 488 292 535 q 176 368 186 442 l 556 368 q 503 490 551 446 q 375 535 456 535 m 542 936 l 375 738 l 308 785 l 456 1003 l 542 936 z "},"ê":{"ha":722,"x_min":58,"x_max":671,"o":"m 593 156 l 628 68 q 393 -14 538 -14 q 150 75 242 -14 q 58 313 58 164 q 144 547 58 454 q 381 639 231 639 q 588 559 504 639 q 671 353 671 479 q 664 278 671 310 l 183 278 q 249 140 190 190 q 401 90 308 90 q 593 156 524 90 m 375 535 q 239 488 292 535 q 176 368 186 442 l 556 368 q 503 490 551 446 q 375 535 456 535 m 378 982 l 571 797 l 518 731 l 374 857 l 229 732 l 176 797 l 372 982 l 378 982 z "},"ë":{"ha":722,"x_min":58,"x_max":671,"o":"m 593 156 l 628 68 q 393 -14 538 -14 q 150 75 242 -14 q 58 313 58 164 q 144 547 58 454 q 381 639 231 639 q 588 559 504 639 q 671 353 671 479 q 664 278 671 310 l 183 278 q 249 140 190 190 q 401 90 308 90 q 593 156 524 90 m 375 535 q 239 488 292 535 q 176 368 186 442 l 556 368 q 503 490 551 446 q 375 535 456 535 m 165 847 q 184 894 165 876 q 231 911 203 911 q 273 893 254 911 q 292 847 292 875 q 274 797 292 815 q 231 778 256 778 q 184 797 203 778 q 165 847 165 815 m 447 847 q 467 893 447 875 q 514 911 486 911 q 556 893 538 911 q 575 847 575 875 q 557 797 575 815 q 514 778 539 778 q 467 797 486 778 q 447 847 447 815 z "},"ì":{"ha":372,"x_min":8,"x_max":244,"o":"m 131 0 l 131 625 l 242 625 l 242 0 l 131 0 m 176 738 l 8 935 l 96 1001 l 244 785 l 176 738 z "},"í":{"ha":372,"x_min":108,"x_max":342,"o":"m 131 0 l 131 625 l 242 625 l 242 0 l 131 0 m 342 936 l 175 738 l 108 785 l 256 1003 l 342 936 z "},"î":{"ha":372,"x_min":-11,"x_max":383,"o":"m 131 0 l 131 625 l 242 625 l 242 0 l 131 0 m 190 982 l 383 797 l 331 731 l 186 857 l 42 732 l -11 797 l 185 982 l 190 982 z "},"ï":{"ha":372,"x_min":-18,"x_max":392,"o":"m 131 0 l 131 625 l 242 625 l 242 0 l 131 0 m -18 847 q 1 894 -18 876 q 47 911 19 911 q 90 893 71 911 q 108 847 108 875 q 90 797 108 815 q 47 778 72 778 q 1 797 19 778 q -18 847 -18 815 m 264 847 q 283 893 264 875 q 331 911 303 911 q 373 893 354 911 q 392 847 392 875 q 374 797 392 815 q 331 778 356 778 q 283 797 303 778 q 264 847 264 815 z "},"ð":{"ha":785,"x_min":58,"x_max":725,"o":"m 272 711 l 240 810 l 374 865 q 231 965 304 926 l 356 986 q 472 907 418 953 l 618 969 l 650 871 l 550 829 q 679 606 633 731 q 725 361 725 482 q 634 86 725 186 q 392 -14 543 -14 q 151 78 243 -14 q 58 313 58 171 q 151 547 58 454 q 392 639 243 639 q 501 609 451 639 q 579 529 551 579 q 450 786 547 669 l 272 711 m 176 313 q 237 153 176 215 q 392 90 297 90 q 552 166 492 90 q 607 368 613 242 q 535 485 593 436 q 392 535 476 535 q 238 473 299 535 q 176 313 176 411 z "},"ñ":{"ha":763,"x_min":100,"x_max":675,"o":"m 100 0 l 100 625 l 211 625 l 211 549 q 301 611 246 586 q 415 636 357 636 q 675 361 675 636 l 675 0 l 564 0 l 564 340 q 388 532 564 532 q 211 451 282 532 l 211 0 l 100 0 m 200 774 l 154 825 q 307 908 228 908 q 388 878 340 908 q 464 847 436 847 q 563 896 504 847 l 601 839 q 454 757 524 757 q 376 788 424 757 q 296 818 328 818 q 200 774 258 818 z "},"ò":{"ha":785,"x_min":58,"x_max":725,"o":"m 151 78 q 105 125 151 78 q 58 313 58 171 q 151 547 58 454 q 392 639 243 639 q 633 547 540 639 q 725 313 725 454 q 633 78 725 171 q 392 -14 540 -14 q 151 78 243 -14 m 176 313 q 237 153 176 215 q 392 90 297 90 q 547 152 486 90 q 607 313 607 214 q 547 472 607 410 q 392 535 486 535 q 238 473 299 535 q 176 313 176 411 m 403 738 l 235 935 l 322 1001 l 471 785 l 403 738 z "},"ó":{"ha":785,"x_min":58,"x_max":725,"o":"m 151 78 q 105 125 151 78 q 58 313 58 171 q 151 547 58 454 q 392 639 243 639 q 633 547 540 639 q 725 313 725 454 q 633 78 725 171 q 392 -14 540 -14 q 151 78 243 -14 m 176 313 q 237 153 176 215 q 392 90 297 90 q 547 152 486 90 q 607 313 607 214 q 547 472 607 410 q 392 535 486 535 q 238 473 299 535 q 176 313 176 411 m 547 936 l 381 738 l 314 785 l 461 1003 l 547 936 z "},"ô":{"ha":785,"x_min":58,"x_max":725,"o":"m 151 78 q 105 125 151 78 q 58 313 58 171 q 151 547 58 454 q 392 639 243 639 q 633 547 540 639 q 725 313 725 454 q 633 78 725 171 q 392 -14 540 -14 q 151 78 243 -14 m 176 313 q 237 153 176 215 q 392 90 297 90 q 547 152 486 90 q 607 313 607 214 q 547 472 607 410 q 392 535 486 535 q 238 473 299 535 q 176 313 176 411 m 396 982 l 589 797 l 536 731 l 392 857 l 247 732 l 194 797 l 390 982 l 396 982 z "},"õ":{"ha":785,"x_min":58,"x_max":725,"o":"m 151 78 q 105 125 151 78 q 58 313 58 171 q 151 547 58 454 q 392 639 243 639 q 633 547 540 639 q 725 313 725 454 q 633 78 725 171 q 392 -14 540 -14 q 151 78 243 -14 m 176 313 q 237 153 176 215 q 392 90 297 90 q 547 152 486 90 q 607 313 607 214 q 547 472 607 410 q 392 535 486 535 q 238 473 299 535 q 176 313 176 411 m 211 774 l 165 825 q 318 908 239 908 q 399 878 351 908 q 475 847 447 847 q 574 896 515 847 l 613 839 q 465 757 535 757 q 387 788 435 757 q 307 818 339 818 q 211 774 269 818 z "},"ö":{"ha":785,"x_min":58,"x_max":725,"o":"m 151 78 q 105 125 151 78 q 58 313 58 171 q 151 547 58 454 q 392 639 243 639 q 633 547 540 639 q 725 313 725 454 q 633 78 725 171 q 392 -14 540 -14 q 151 78 243 -14 m 176 313 q 237 153 176 215 q 392 90 297 90 q 547 152 486 90 q 607 313 607 214 q 547 472 607 410 q 392 535 486 535 q 238 473 299 535 q 176 313 176 411 m 193 847 q 212 894 193 876 q 258 911 231 911 q 301 893 282 911 q 319 847 319 875 q 301 797 319 815 q 258 778 283 778 q 212 797 231 778 q 193 847 193 815 m 475 847 q 494 893 475 875 q 542 911 514 911 q 584 893 565 911 q 603 847 603 875 q 585 797 603 815 q 542 778 567 778 q 494 797 514 778 q 475 847 475 815 z "},"÷":{"ha":822,"x_min":96,"x_max":726,"o":"m 342 783 q 360 830 342 810 q 411 850 379 850 q 460 829 440 850 q 479 783 479 808 q 460 734 479 756 q 411 713 442 713 q 360 733 379 713 q 342 783 342 754 m 342 218 q 360 263 342 243 q 411 283 379 283 q 460 263 440 283 q 479 218 479 243 q 460 168 479 189 q 411 147 442 147 q 360 168 379 147 q 342 218 342 189 m 96 451 l 96 549 l 726 549 l 726 451 l 96 451 z "},"ø":{"ha":785,"x_min":57,"x_max":729,"o":"m 58 313 q 151 547 58 454 q 392 639 243 639 q 604 571 517 639 l 668 632 l 729 564 l 667 504 q 725 313 725 422 q 633 78 725 171 q 392 -14 540 -14 q 189 46 275 -14 l 119 -19 l 57 51 l 121 113 q 58 313 58 197 m 176 313 q 206 193 176 243 l 522 493 q 392 535 465 535 q 238 473 299 535 q 176 313 176 411 m 607 313 q 582 422 607 369 l 271 125 q 392 90 322 90 q 547 152 486 90 q 607 313 607 214 z "},"ù":{"ha":750,"x_min":86,"x_max":649,"o":"m 649 625 l 649 0 l 538 0 l 538 89 q 444 16 501 46 q 317 -14 386 -14 q 147 53 208 -14 q 86 253 86 119 l 86 625 l 197 625 l 197 278 q 358 90 197 90 q 458 117 410 90 q 538 183 507 143 l 538 625 l 649 625 m 382 738 l 214 935 l 301 1001 l 450 785 l 382 738 z "},"ú":{"ha":750,"x_min":86,"x_max":649,"o":"m 649 625 l 649 0 l 538 0 l 538 89 q 444 16 501 46 q 317 -14 386 -14 q 147 53 208 -14 q 86 253 86 119 l 86 625 l 197 625 l 197 278 q 358 90 197 90 q 458 117 410 90 q 538 183 507 143 l 538 625 l 649 625 m 533 936 l 367 738 l 300 785 l 447 1003 l 533 936 z "},"û":{"ha":750,"x_min":86,"x_max":649,"o":"m 649 625 l 649 0 l 538 0 l 538 89 q 444 16 501 46 q 317 -14 386 -14 q 147 53 208 -14 q 86 253 86 119 l 86 625 l 197 625 l 197 278 q 358 90 197 90 q 458 117 410 90 q 538 183 507 143 l 538 625 l 649 625 m 374 982 l 567 797 l 514 731 l 369 857 l 225 732 l 172 797 l 368 982 l 374 982 z "},"ü":{"ha":750,"x_min":86,"x_max":649,"o":"m 649 625 l 649 0 l 538 0 l 538 89 q 444 16 501 46 q 317 -14 386 -14 q 147 53 208 -14 q 86 253 86 119 l 86 625 l 197 625 l 197 278 q 358 90 197 90 q 458 117 410 90 q 538 183 507 143 l 538 625 l 649 625 m 168 847 q 187 894 168 876 q 233 911 206 911 q 276 893 257 911 q 294 847 294 875 q 276 797 294 815 q 233 778 258 778 q 187 797 206 778 q 168 847 168 815 m 450 847 q 469 893 450 875 q 517 911 489 911 q 559 893 540 911 q 578 847 578 875 q 560 797 578 815 q 517 778 542 778 q 469 797 489 778 q 450 847 450 815 z "},"ý":{"ha":682,"x_min":14,"x_max":668,"o":"m 668 625 l 418 0 q 300 -220 351 -162 q 179 -278 249 -278 q 61 -239 119 -278 l 97 -154 q 167 -175 142 -175 q 237 -142 206 -175 q 300 -33 268 -108 l 314 0 l 14 625 l 147 625 l 331 228 q 368 133 336 215 q 397 229 381 179 l 542 625 l 668 625 m 493 936 l 326 738 l 260 785 l 407 1003 l 493 936 z "},"þ":{"ha":772,"x_min":100,"x_max":713,"o":"m 100 -278 l 100 972 l 211 972 l 211 558 q 424 639 294 639 q 634 551 556 639 q 713 322 713 463 q 622 82 713 178 q 388 -14 532 -14 q 211 29 276 -14 l 211 -278 l 100 -278 m 392 535 q 211 449 281 535 l 211 139 q 378 90 283 90 q 535 154 476 90 q 594 318 594 218 q 540 475 594 415 q 392 535 486 535 z "},"ÿ":{"ha":682,"x_min":14,"x_max":668,"o":"m 668 625 l 418 0 q 300 -220 351 -162 q 179 -278 249 -278 q 61 -239 119 -278 l 97 -154 q 167 -175 142 -175 q 237 -142 206 -175 q 300 -33 268 -108 l 314 0 l 14 625 l 147 625 l 331 228 q 368 133 336 215 q 397 229 381 179 l 542 625 l 668 625 m 143 847 q 162 894 143 876 q 208 911 181 911 q 251 893 232 911 q 269 847 269 875 q 251 797 269 815 q 208 778 233 778 q 162 797 181 778 q 143 847 143 815 m 425 847 q 444 893 425 875 q 492 911 464 911 q 534 893 515 911 q 553 847 553 875 q 535 797 553 815 q 492 778 517 778 q 444 797 464 778 q 425 847 425 815 z "},"Ā":{"ha":979,"x_min":21,"x_max":958,"o":"m 21 0 l 439 978 l 540 978 l 958 0 l 832 0 l 707 294 l 264 294 l 140 0 l 21 0 m 486 821 l 311 406 l 661 406 l 486 821 m 278 1069 l 278 1160 l 700 1160 l 700 1069 l 278 1069 z "},"ā":{"ha":639,"x_min":56,"x_max":553,"o":"m 133 493 l 104 582 q 313 639 196 639 q 497 575 442 639 q 553 383 553 511 l 553 0 l 447 0 l 447 81 q 247 -10 375 -10 q 108 42 161 -10 q 56 183 56 94 q 122 329 56 276 q 292 382 188 382 q 447 342 392 382 q 419 490 447 442 q 306 539 392 539 q 133 493 221 539 m 286 90 q 447 171 379 90 l 447 250 q 307 292 389 292 q 213 265 251 292 q 174 189 174 239 q 203 117 174 143 q 286 90 233 90 m 140 806 l 140 896 l 507 896 l 507 806 l 140 806 z "},"Ă":{"ha":979,"x_min":21,"x_max":958,"o":"m 21 0 l 439 978 l 540 978 l 958 0 l 832 0 l 707 294 l 264 294 l 140 0 l 21 0 m 486 821 l 311 406 l 661 406 l 486 821 m 246 1164 l 296 1222 q 494 1132 376 1132 q 689 1222 613 1132 l 732 1164 q 633 1072 697 1110 q 494 1035 569 1035 q 344 1075 410 1035 q 246 1164 278 1115 z "},"ă":{"ha":639,"x_min":56,"x_max":553,"o":"m 133 493 l 104 582 q 313 639 196 639 q 497 575 442 639 q 553 383 553 511 l 553 0 l 447 0 l 447 81 q 247 -10 375 -10 q 108 42 161 -10 q 56 183 56 94 q 122 329 56 276 q 292 382 188 382 q 447 342 392 382 q 419 490 447 442 q 306 539 392 539 q 133 493 221 539 m 286 90 q 447 171 379 90 l 447 250 q 307 292 389 292 q 213 265 251 292 q 174 189 174 239 q 203 117 174 143 q 286 90 233 90 m 110 889 l 161 946 q 319 861 232 861 q 479 944 410 861 l 519 890 q 315 771 433 771 q 110 889 186 771 z "},"Ą":{"ha":979,"x_min":21,"x_max":958,"o":"m 918 -175 l 951 -243 q 832 -278 910 -278 q 713 -247 763 -278 q 663 -150 663 -217 q 709 -50 663 -90 q 828 8 756 -10 l 707 294 l 264 294 l 140 0 l 21 0 l 439 978 l 540 978 l 958 0 l 932 0 q 821 -35 868 -3 q 774 -114 774 -68 q 800 -170 774 -153 q 857 -187 826 -187 q 918 -175 892 -187 m 486 821 l 311 406 l 661 406 l 486 821 z "},"ą":{"ha":639,"x_min":56,"x_max":565,"o":"m 532 -175 l 565 -243 q 446 -278 524 -278 q 326 -247 376 -278 q 276 -150 276 -217 q 324 -49 276 -90 q 447 10 372 -8 l 447 81 q 247 -10 375 -10 q 108 42 161 -10 q 56 183 56 94 q 122 329 56 276 q 292 382 188 382 q 447 342 392 382 q 419 490 447 442 q 306 539 392 539 q 133 493 221 539 l 104 582 q 313 639 196 639 q 497 575 442 639 q 553 383 553 511 l 553 0 q 438 -34 488 0 q 388 -114 388 -68 q 414 -170 388 -153 q 471 -187 440 -187 q 532 -175 506 -187 m 286 90 q 447 171 379 90 l 447 250 q 307 292 389 292 q 213 265 251 292 q 174 189 174 239 q 203 117 174 143 q 286 90 233 90 z "},"Ć":{"ha":911,"x_min":69,"x_max":869,"o":"m 822 183 l 869 94 q 738 15 821 44 q 563 -14 654 -14 q 206 123 343 -14 q 69 486 69 260 q 201 844 69 701 q 554 986 332 986 q 850 892 740 986 l 796 803 q 556 875 699 875 q 296 767 397 875 q 194 486 194 658 q 299 205 194 313 q 574 97 404 97 q 822 183 717 97 m 747 1138 l 467 1021 l 435 1088 l 706 1232 l 747 1138 z "},"ć":{"ha":678,"x_min":58,"x_max":633,"o":"m 581 171 l 633 90 q 531 13 594 40 q 393 -14 467 -14 q 151 76 243 -14 q 58 313 58 165 q 149 544 58 450 q 375 639 239 639 q 621 557 539 639 l 569 469 q 390 535 499 535 q 240 472 303 535 q 176 313 176 408 q 241 151 176 213 q 401 90 306 90 q 581 171 510 90 m 531 936 l 364 738 l 297 785 l 444 1003 l 531 936 z "},"Ĉ":{"ha":911,"x_min":69,"x_max":869,"o":"m 822 183 l 869 94 q 738 15 821 44 q 563 -14 654 -14 q 206 123 343 -14 q 69 486 69 260 q 201 844 69 701 q 554 986 332 986 q 850 892 740 986 l 796 803 q 556 875 699 875 q 296 767 397 875 q 194 486 194 658 q 299 205 194 313 q 574 97 404 97 q 822 183 717 97 m 300 1081 l 538 1225 l 543 1225 l 785 1082 l 739 1018 l 540 1124 l 340 1018 l 300 1081 z "},"ĉ":{"ha":678,"x_min":58,"x_max":633,"o":"m 581 171 l 633 90 q 531 13 594 40 q 393 -14 467 -14 q 151 76 243 -14 q 58 313 58 165 q 149 544 58 450 q 375 639 239 639 q 621 557 539 639 l 569 469 q 390 535 499 535 q 240 472 303 535 q 176 313 176 408 q 241 151 176 213 q 401 90 306 90 q 581 171 510 90 m 388 982 l 581 797 l 528 731 l 383 857 l 239 732 l 186 797 l 382 982 l 388 982 z "},"Ċ":{"ha":911,"x_min":69,"x_max":869,"o":"m 822 183 l 869 94 q 738 15 821 44 q 563 -14 654 -14 q 206 123 343 -14 q 69 486 69 260 q 201 844 69 701 q 554 986 332 986 q 850 892 740 986 l 796 803 q 556 875 699 875 q 296 767 397 875 q 194 486 194 658 q 299 205 194 313 q 574 97 404 97 q 822 183 717 97 m 451 1135 q 474 1186 451 1167 q 531 1206 497 1206 q 583 1186 561 1206 q 606 1135 606 1167 q 583 1080 606 1100 q 531 1060 561 1060 q 474 1080 497 1060 q 451 1135 451 1100 z "},"ċ":{"ha":678,"x_min":58,"x_max":633,"o":"m 581 171 l 633 90 q 531 13 594 40 q 393 -14 467 -14 q 151 76 243 -14 q 58 313 58 165 q 149 544 58 450 q 375 639 239 639 q 621 557 539 639 l 569 469 q 390 535 499 535 q 240 472 303 535 q 176 313 176 408 q 241 151 176 213 q 401 90 306 90 q 581 171 510 90 m 314 860 q 335 908 314 889 q 386 926 356 926 q 434 908 414 926 q 454 860 454 889 q 434 807 454 826 q 386 788 414 788 q 335 807 356 788 q 314 860 314 826 z "},"Č":{"ha":911,"x_min":69,"x_max":869,"o":"m 822 183 l 869 94 q 738 15 821 44 q 563 -14 654 -14 q 206 123 343 -14 q 69 486 69 260 q 201 844 69 701 q 554 986 332 986 q 850 892 740 986 l 796 803 q 556 875 699 875 q 296 767 397 875 q 194 486 194 658 q 299 205 194 313 q 574 97 404 97 q 822 183 717 97 m 542 1025 l 299 1168 l 344 1232 l 544 1119 l 743 1232 l 785 1169 l 547 1025 l 542 1025 z "},"č":{"ha":678,"x_min":58,"x_max":633,"o":"m 581 171 l 633 90 q 531 13 594 40 q 393 -14 467 -14 q 151 76 243 -14 q 58 313 58 165 q 149 544 58 450 q 375 639 239 639 q 621 557 539 639 l 569 469 q 390 535 499 535 q 240 472 303 535 q 176 313 176 408 q 241 151 176 213 q 401 90 306 90 q 581 171 510 90 m 379 735 l 185 919 l 239 986 l 383 843 l 528 985 l 579 919 l 385 735 l 379 735 z "},"Ď":{"ha":1026,"x_min":146,"x_max":957,"o":"m 146 0 l 146 972 l 163 972 q 281 974 193 972 q 411 976 369 976 q 660 938 553 976 q 831 833 767 900 q 926 681 894 765 q 957 499 957 597 q 812 139 957 281 q 400 -3 667 -3 q 287 -1 369 -3 q 161 0 204 0 l 146 0 m 408 865 q 358 865 382 865 q 308 863 335 864 q 264 861 281 861 l 264 111 q 404 108 392 108 q 719 216 607 108 q 832 499 832 324 q 722 764 832 663 q 408 865 613 865 m 465 1025 l 222 1168 l 268 1232 l 468 1119 l 667 1232 l 708 1169 l 471 1025 l 465 1025 z "},"ď":{"ha":769,"x_min":58,"x_max":913,"o":"m 558 0 l 558 79 q 360 -11 475 -11 q 140 76 222 -11 q 58 308 58 164 q 155 547 58 454 q 400 639 251 639 q 558 594 496 639 l 558 972 l 669 972 l 669 0 l 558 0 m 381 93 q 558 176 483 93 l 558 486 q 404 535 482 535 q 242 473 308 535 q 176 311 176 411 q 233 151 176 210 q 381 93 290 93 m 793 972 l 901 972 q 913 919 913 950 q 878 788 913 842 q 793 707 843 733 l 743 756 q 808 907 808 811 q 793 972 808 944 z "},"Đ":{"ha":1047,"x_min":14,"x_max":978,"o":"m 14 439 l 14 543 l 167 543 l 167 972 l 183 972 q 302 974 214 972 q 432 976 390 976 q 681 938 574 976 q 851 833 788 900 q 947 681 915 765 q 978 499 978 597 q 833 139 978 281 q 421 -3 688 -3 q 308 -1 390 -3 q 182 0 225 0 l 167 0 l 167 439 l 14 439 m 429 865 q 379 865 403 865 q 328 863 356 864 q 285 861 301 861 l 285 543 l 546 543 l 546 439 l 285 439 l 285 111 q 425 108 413 108 q 740 216 628 108 q 853 499 853 324 q 743 764 853 663 q 429 865 633 865 z "},"đ":{"ha":769,"x_min":58,"x_max":797,"o":"m 340 742 l 340 832 l 558 832 l 558 972 l 669 972 l 669 832 l 797 832 l 797 742 l 669 742 l 669 0 l 558 0 l 558 79 q 360 -11 475 -11 q 140 76 222 -11 q 58 308 58 164 q 155 547 58 454 q 400 639 251 639 q 558 594 496 639 l 558 742 l 340 742 m 381 93 q 558 176 483 93 l 558 486 q 404 535 482 535 q 242 473 308 535 q 176 311 176 411 q 233 151 176 210 q 381 93 290 93 z "},"Ē":{"ha":799,"x_min":146,"x_max":708,"o":"m 146 0 l 146 972 l 694 972 l 694 861 l 264 861 l 264 547 l 653 547 l 653 436 l 264 436 l 264 111 l 708 111 l 708 0 l 146 0 m 208 1069 l 208 1160 l 631 1160 l 631 1069 l 208 1069 z "},"ē":{"ha":722,"x_min":58,"x_max":671,"o":"m 593 156 l 628 68 q 393 -14 538 -14 q 150 75 242 -14 q 58 313 58 164 q 144 547 58 454 q 381 639 231 639 q 588 559 504 639 q 671 353 671 479 q 664 278 671 310 l 183 278 q 249 140 190 190 q 401 90 308 90 q 593 156 524 90 m 375 535 q 239 488 292 535 q 176 368 186 442 l 556 368 q 503 490 551 446 q 375 535 456 535 m 183 806 l 183 896 l 550 896 l 550 806 l 183 806 z "},"Ė":{"ha":799,"x_min":146,"x_max":708,"o":"m 146 0 l 146 972 l 694 972 l 694 861 l 264 861 l 264 547 l 653 547 l 653 436 l 264 436 l 264 111 l 708 111 l 708 0 l 146 0 m 347 1135 q 370 1186 347 1167 q 426 1206 393 1206 q 479 1186 457 1206 q 501 1135 501 1167 q 479 1080 501 1100 q 426 1060 457 1060 q 370 1080 393 1060 q 347 1135 347 1100 z "},"ė":{"ha":722,"x_min":58,"x_max":671,"o":"m 593 156 l 628 68 q 393 -14 538 -14 q 150 75 242 -14 q 58 313 58 164 q 144 547 58 454 q 381 639 231 639 q 588 559 504 639 q 671 353 671 479 q 664 278 671 310 l 183 278 q 249 140 190 190 q 401 90 308 90 q 593 156 524 90 m 375 535 q 239 488 292 535 q 176 368 186 442 l 556 368 q 503 490 551 446 q 375 535 456 535 m 299 860 q 319 908 299 889 q 371 926 340 926 q 419 908 399 926 q 439 860 439 889 q 419 807 439 826 q 371 788 399 788 q 319 807 340 788 q 299 860 299 826 z "},"Ę":{"ha":799,"x_min":146,"x_max":721,"o":"m 146 0 l 146 972 l 694 972 l 694 861 l 264 861 l 264 547 l 653 547 l 653 436 l 264 436 l 264 111 l 708 111 l 708 0 l 701 0 q 590 -35 638 -3 q 543 -114 543 -68 q 569 -170 543 -153 q 626 -187 596 -187 q 688 -175 661 -187 l 721 -243 q 601 -278 679 -278 q 482 -247 532 -278 q 432 -150 432 -217 q 568 0 432 -47 l 146 0 z "},"ę":{"ha":722,"x_min":58,"x_max":671,"o":"m 593 156 l 628 68 q 525 8 583 28 q 432 -114 432 -53 q 459 -170 432 -153 q 517 -187 486 -187 q 578 -175 551 -187 l 611 -243 q 492 -278 569 -278 q 372 -247 422 -278 q 321 -150 321 -217 q 421 -12 321 -72 q 407 -13 417 -12 q 393 -14 397 -14 q 150 75 242 -14 q 58 313 58 164 q 144 547 58 454 q 381 639 231 639 q 588 559 504 639 q 671 353 671 479 q 664 278 671 310 l 183 278 q 249 140 190 190 q 401 90 308 90 q 593 156 524 90 m 375 535 q 239 488 292 535 q 176 368 186 442 l 556 368 q 503 490 551 446 q 375 535 456 535 z "},"Ě":{"ha":799,"x_min":146,"x_max":708,"o":"m 146 0 l 146 972 l 694 972 l 694 861 l 264 861 l 264 547 l 653 547 l 653 436 l 264 436 l 264 111 l 708 111 l 708 0 l 146 0 m 431 1025 l 188 1168 l 233 1232 l 433 1119 l 632 1232 l 674 1169 l 436 1025 l 431 1025 z "},"ě":{"ha":722,"x_min":58,"x_max":671,"o":"m 593 156 l 628 68 q 393 -14 538 -14 q 150 75 242 -14 q 58 313 58 164 q 144 547 58 454 q 381 639 231 639 q 588 559 504 639 q 671 353 671 479 q 664 278 671 310 l 183 278 q 249 140 190 190 q 401 90 308 90 q 593 156 524 90 m 375 535 q 239 488 292 535 q 176 368 186 442 l 556 368 q 503 490 551 446 q 375 535 456 535 m 376 735 l 182 919 l 236 986 l 381 843 l 525 985 l 576 919 l 382 735 l 376 735 z "},"Ĝ":{"ha":1010,"x_min":69,"x_max":926,"o":"m 553 383 l 553 494 l 926 494 l 926 121 q 761 22 864 58 q 563 -14 658 -14 q 203 122 336 -14 q 69 486 69 258 q 201 843 69 700 q 547 986 333 986 q 853 892 733 986 l 801 797 q 561 875 715 875 q 296 768 397 875 q 194 486 194 661 q 297 203 194 310 q 565 97 399 97 q 706 122 635 97 q 815 183 776 146 l 815 383 l 553 383 m 300 1081 l 538 1225 l 543 1225 l 785 1082 l 739 1018 l 540 1124 l 340 1018 l 300 1081 z "},"ĝ":{"ha":686,"x_min":14,"x_max":675,"o":"m 14 -90 q 67 32 14 -17 q 214 100 121 81 q 199 151 199 119 q 215 204 199 183 q 112 285 149 231 q 75 410 75 340 q 145 573 75 507 q 331 639 215 639 q 489 593 421 639 l 672 638 l 675 547 l 557 518 q 586 410 586 471 q 515 249 586 314 q 331 185 444 185 q 289 186 303 185 q 282 151 282 172 q 294 110 282 126 q 313 110 300 110 q 332 111 325 111 q 563 60 475 111 q 650 -90 650 8 q 563 -238 650 -187 q 332 -289 475 -289 q 101 -239 189 -289 q 14 -90 14 -189 m 175 -9 q 147 -24 175 -9 q 118 -90 118 -39 q 176 -170 118 -142 q 332 -199 233 -199 q 488 -171 431 -199 q 546 -90 546 -143 q 489 -9 546 -39 q 332 21 432 21 q 175 -9 232 21 m 179 410 q 221 313 179 351 q 331 275 263 275 q 440 313 397 275 q 482 410 482 350 q 440 509 482 469 q 331 549 399 549 q 221 509 263 549 q 179 410 179 469 m 340 982 l 533 797 l 481 731 l 336 857 l 192 732 l 139 797 l 335 982 l 340 982 z "},"Ğ":{"ha":1010,"x_min":69,"x_max":926,"o":"m 553 383 l 553 494 l 926 494 l 926 121 q 761 22 864 58 q 563 -14 658 -14 q 203 122 336 -14 q 69 486 69 258 q 201 843 69 700 q 547 986 333 986 q 853 892 733 986 l 801 797 q 561 875 715 875 q 296 768 397 875 q 194 486 194 661 q 297 203 194 310 q 565 97 399 97 q 706 122 635 97 q 815 183 776 146 l 815 383 l 553 383 m 314 1164 l 364 1222 q 563 1132 444 1132 q 757 1222 681 1132 l 800 1164 q 701 1072 765 1110 q 563 1035 638 1035 q 412 1075 478 1035 q 314 1164 346 1115 z "},"ğ":{"ha":686,"x_min":14,"x_max":675,"o":"m 14 -90 q 67 32 14 -17 q 214 100 121 81 q 199 151 199 119 q 215 204 199 183 q 112 285 149 231 q 75 410 75 340 q 145 573 75 507 q 331 639 215 639 q 489 593 421 639 l 672 638 l 675 547 l 557 518 q 586 410 586 471 q 515 249 586 314 q 331 185 444 185 q 289 186 303 185 q 282 151 282 172 q 294 110 282 126 q 313 110 300 110 q 332 111 325 111 q 563 60 475 111 q 650 -90 650 8 q 563 -238 650 -187 q 332 -289 475 -289 q 101 -239 189 -289 q 14 -90 14 -189 m 175 -9 q 147 -24 175 -9 q 118 -90 118 -39 q 176 -170 118 -142 q 332 -199 233 -199 q 488 -171 431 -199 q 546 -90 546 -143 q 489 -9 546 -39 q 332 21 432 21 q 175 -9 232 21 m 179 410 q 221 313 179 351 q 331 275 263 275 q 440 313 397 275 q 482 410 482 350 q 440 509 482 469 q 331 549 399 549 q 221 509 263 549 q 179 410 179 469 m 128 889 l 179 946 q 338 861 250 861 q 497 944 428 861 l 538 890 q 333 771 451 771 q 128 889 204 771 z "},"Ġ":{"ha":1010,"x_min":69,"x_max":926,"o":"m 553 383 l 553 494 l 926 494 l 926 121 q 761 22 864 58 q 563 -14 658 -14 q 203 122 336 -14 q 69 486 69 258 q 201 843 69 700 q 547 986 333 986 q 853 892 733 986 l 801 797 q 561 875 715 875 q 296 768 397 875 q 194 486 194 661 q 297 203 194 310 q 565 97 399 97 q 706 122 635 97 q 815 183 776 146 l 815 383 l 553 383 m 451 1135 q 474 1186 451 1167 q 531 1206 497 1206 q 583 1186 561 1206 q 606 1135 606 1167 q 583 1080 606 1100 q 531 1060 561 1060 q 474 1080 497 1060 q 451 1135 451 1100 z "},"ġ":{"ha":686,"x_min":14,"x_max":675,"o":"m 14 -90 q 67 32 14 -17 q 214 100 121 81 q 199 151 199 119 q 215 204 199 183 q 112 285 149 231 q 75 410 75 340 q 145 573 75 507 q 331 639 215 639 q 489 593 421 639 l 672 638 l 675 547 l 557 518 q 586 410 586 471 q 515 249 586 314 q 331 185 444 185 q 289 186 303 185 q 282 151 282 172 q 294 110 282 126 q 313 110 300 110 q 332 111 325 111 q 563 60 475 111 q 650 -90 650 8 q 563 -238 650 -187 q 332 -289 475 -289 q 101 -239 189 -289 q 14 -90 14 -189 m 175 -9 q 147 -24 175 -9 q 118 -90 118 -39 q 176 -170 118 -142 q 332 -199 233 -199 q 488 -171 431 -199 q 546 -90 546 -143 q 489 -9 546 -39 q 332 21 432 21 q 175 -9 232 21 m 179 410 q 221 313 179 351 q 331 275 263 275 q 440 313 397 275 q 482 410 482 350 q 440 509 482 469 q 331 549 399 549 q 221 509 263 549 q 179 410 179 469 m 263 860 q 283 908 263 889 q 335 926 304 926 q 383 908 363 926 q 403 860 403 889 q 383 807 403 826 q 335 788 363 788 q 283 807 304 788 q 263 860 263 826 z "},"Ģ":{"ha":1010,"x_min":69,"x_max":926,"o":"m 553 383 l 553 494 l 926 494 l 926 121 q 761 22 864 58 q 563 -14 658 -14 q 203 122 336 -14 q 69 486 69 258 q 201 843 69 700 q 547 986 333 986 q 853 892 733 986 l 801 797 q 561 875 715 875 q 296 768 397 875 q 194 486 194 661 q 297 203 194 310 q 565 97 399 97 q 706 122 635 97 q 815 183 776 146 l 815 383 l 553 383 m 488 -90 l 592 -64 q 632 -132 632 -74 q 590 -232 632 -193 q 489 -283 549 -271 l 457 -233 q 521 -147 521 -208 q 488 -90 521 -104 z "},"ģ":{"ha":686,"x_min":14,"x_max":675,"o":"m 14 -90 q 67 32 14 -17 q 214 100 121 81 q 199 151 199 119 q 215 204 199 183 q 112 285 149 231 q 75 410 75 340 q 145 573 75 507 q 331 639 215 639 q 489 593 421 639 l 672 638 l 675 547 l 557 518 q 586 410 586 471 q 515 249 586 314 q 331 185 444 185 q 289 186 303 185 q 282 151 282 172 q 294 110 282 126 q 313 110 300 110 q 332 111 325 111 q 563 60 475 111 q 650 -90 650 8 q 563 -238 650 -187 q 332 -289 475 -289 q 101 -239 189 -289 q 14 -90 14 -189 m 175 -9 q 147 -24 175 -9 q 118 -90 118 -39 q 176 -170 118 -142 q 332 -199 233 -199 q 488 -171 431 -199 q 546 -90 546 -143 q 489 -9 546 -39 q 332 21 432 21 q 175 -9 232 21 m 179 410 q 221 313 179 351 q 331 275 263 275 q 440 313 397 275 q 482 410 482 350 q 440 509 482 469 q 331 549 399 549 q 221 509 263 549 q 179 410 179 469 m 396 781 l 292 754 q 251 822 251 764 q 293 922 251 883 q 394 974 335 961 l 426 924 q 363 838 363 899 q 396 781 363 794 z "},"Ĥ":{"ha":1063,"x_min":146,"x_max":917,"o":"m 799 0 l 799 440 l 264 440 l 264 0 l 146 0 l 146 972 l 264 972 l 264 551 l 799 551 l 799 972 l 917 972 l 917 0 l 799 0 m 290 1081 l 528 1225 l 533 1225 l 775 1082 l 729 1018 l 531 1124 l 331 1018 l 290 1081 z "},"ĥ":{"ha":763,"x_min":-24,"x_max":675,"o":"m 100 0 l 100 972 l 211 972 l 211 553 q 302 613 247 589 q 415 636 357 636 q 675 358 675 636 l 675 0 l 564 0 l 564 343 q 389 532 564 532 q 290 510 339 532 q 211 453 242 488 l 211 0 l 100 0 m -24 1081 l 214 1225 l 219 1225 l 461 1082 l 415 1018 l 217 1124 l 17 1018 l -24 1081 z "},"Ħ":{"ha":1076,"x_min":35,"x_max":1042,"o":"m 35 714 l 35 818 l 153 818 l 153 972 l 271 972 l 271 818 l 806 818 l 806 972 l 924 972 l 924 818 l 1042 818 l 1042 714 l 924 714 l 924 0 l 806 0 l 806 440 l 271 440 l 271 0 l 153 0 l 153 714 l 35 714 m 271 551 l 806 551 l 806 714 l 271 714 l 271 551 z "},"ħ":{"ha":797,"x_min":-28,"x_max":710,"o":"m -28 722 l -28 826 l 135 826 l 135 972 l 246 972 l 246 826 l 471 826 l 471 722 l 246 722 l 246 553 q 337 613 282 589 q 450 636 392 636 q 710 358 710 636 l 710 0 l 599 0 l 599 343 q 424 532 599 532 q 325 510 374 532 q 246 453 276 488 l 246 0 l 135 0 l 135 722 l -28 722 z "},"Ī":{"ha":465,"x_min":25,"x_max":447,"o":"m 174 0 l 174 972 l 292 972 l 292 0 l 174 0 m 25 1069 l 25 1160 l 447 1160 l 447 1069 l 25 1069 z "},"ī":{"ha":372,"x_min":3,"x_max":369,"o":"m 131 0 l 131 625 l 242 625 l 242 0 l 131 0 m 3 806 l 3 896 l 369 896 l 369 806 l 3 806 z "},"Į":{"ha":465,"x_min":15,"x_max":304,"o":"m 271 -175 l 304 -243 q 185 -278 263 -278 q 65 -247 115 -278 q 15 -150 15 -217 q 59 -53 15 -93 q 174 7 103 -12 l 174 972 l 292 972 l 292 0 l 285 0 q 174 -35 221 -3 q 126 -114 126 -68 q 153 -170 126 -153 q 210 -187 179 -187 q 271 -175 244 -187 z "},"į":{"ha":372,"x_min":-36,"x_max":253,"o":"m 219 -175 l 253 -243 q 133 -278 211 -278 q 14 -247 64 -278 q -36 -150 -36 -217 q 10 -50 -36 -90 q 131 8 57 -10 l 131 625 l 242 625 l 242 0 l 233 0 q 122 -35 169 -3 q 75 -114 75 -68 q 101 -170 75 -153 q 158 -187 128 -187 q 219 -175 193 -187 m 113 860 q 133 908 113 889 q 185 926 154 926 q 233 908 213 926 q 253 860 253 889 q 233 807 253 826 q 185 788 213 788 q 133 807 154 788 q 113 860 113 826 z "},"İ":{"ha":465,"x_min":156,"x_max":310,"o":"m 174 0 l 174 972 l 292 972 l 292 0 l 174 0 m 156 1135 q 178 1186 156 1167 q 235 1206 201 1206 q 288 1186 265 1206 q 310 1135 310 1167 q 288 1080 310 1100 q 235 1060 265 1060 q 178 1080 201 1060 q 156 1135 156 1100 z "},"ı":{"ha":372,"x_min":131,"x_max":242,"o":"m 131 0 l 131 625 l 242 625 l 242 0 l 131 0 z "},"Ĵ":{"ha":519,"x_min":14,"x_max":550,"o":"m 374 972 l 374 221 q 161 -14 374 -14 q 14 38 65 -14 l 54 128 q 146 97 94 97 q 256 240 256 97 l 256 972 l 374 972 m 65 1081 l 303 1225 l 308 1225 l 550 1082 l 504 1018 l 306 1124 l 106 1018 l 65 1081 z "},"ĵ":{"ha":369,"x_min":-87,"x_max":389,"o":"m 247 625 l 247 -46 q 51 -289 247 -289 q -87 -249 -36 -289 l -56 -160 q 26 -185 -15 -185 q 136 -37 136 -185 l 136 625 l 247 625 m 196 982 l 389 797 l 336 731 l 192 857 l 47 732 l -6 797 l 190 982 l 196 982 z "},"Ķ":{"ha":907,"x_min":146,"x_max":879,"o":"m 857 972 l 424 515 l 879 0 l 728 0 l 288 507 l 714 972 l 857 972 m 146 0 l 146 972 l 264 972 l 264 0 l 146 0 m 376 -90 l 481 -64 q 521 -132 521 -74 q 479 -232 521 -193 q 378 -283 438 -271 l 346 -233 q 410 -147 410 -208 q 376 -90 410 -104 z "},"ķ":{"ha":682,"x_min":100,"x_max":668,"o":"m 635 625 l 369 335 l 668 0 l 517 0 l 235 326 l 493 625 l 635 625 m 100 0 l 100 972 l 211 972 l 211 0 l 100 0 m 257 -90 l 361 -64 q 401 -132 401 -74 q 360 -232 401 -193 q 258 -283 318 -271 l 226 -233 q 290 -147 290 -208 q 257 -90 290 -104 z "},"Ĺ":{"ha":764,"x_min":146,"x_max":743,"o":"m 146 0 l 146 972 l 264 972 l 264 111 l 743 111 l 743 0 l 146 0 m 608 1138 l 328 1021 l 296 1088 l 567 1232 l 608 1138 z "},"ĺ":{"ha":403,"x_min":97,"x_max":410,"o":"m 100 167 l 100 972 l 211 972 l 211 217 q 228 123 211 153 q 285 93 246 93 q 364 121 322 93 l 389 36 q 242 -11 329 -11 q 100 167 100 -11 m 410 1138 l 129 1021 l 97 1088 l 368 1232 l 410 1138 z "},"Ļ":{"ha":764,"x_min":146,"x_max":743,"o":"m 146 0 l 146 972 l 264 972 l 264 111 l 743 111 l 743 0 l 146 0 m 363 -90 l 467 -64 q 507 -132 507 -74 q 465 -232 507 -193 q 364 -283 424 -271 l 332 -233 q 396 -147 396 -208 q 363 -90 396 -104 z "},"ļ":{"ha":403,"x_min":100,"x_max":389,"o":"m 100 167 l 100 972 l 211 972 l 211 217 q 228 123 211 153 q 285 93 246 93 q 364 121 322 93 l 389 36 q 242 -11 329 -11 q 100 167 100 -11 m 164 -90 l 268 -64 q 308 -132 308 -74 q 267 -232 308 -193 q 165 -283 225 -271 l 133 -233 q 197 -147 197 -208 q 164 -90 197 -104 z "},"Ľ":{"ha":764,"x_min":146,"x_max":743,"o":"m 146 0 l 146 972 l 264 972 l 264 111 l 743 111 l 743 0 l 146 0 m 494 972 l 603 972 q 614 919 614 950 q 579 788 614 842 q 494 707 544 733 l 444 756 q 510 907 510 811 q 494 972 510 944 z "},"ľ":{"ha":403,"x_min":100,"x_max":461,"o":"m 100 167 l 100 972 l 211 972 l 211 217 q 228 123 211 153 q 285 93 246 93 q 364 121 322 93 l 389 36 q 242 -11 329 -11 q 100 167 100 -11 m 342 972 l 450 972 q 461 919 461 950 q 426 788 461 842 q 342 707 392 733 l 292 756 q 357 907 357 811 q 342 972 357 944 z "},"Ŀ":{"ha":764,"x_min":146,"x_max":743,"o":"m 146 0 l 146 972 l 264 972 l 264 111 l 743 111 l 743 0 l 146 0 m 511 519 q 533 571 511 549 q 590 593 556 593 q 642 570 621 593 q 664 519 664 547 q 643 464 664 488 q 590 440 622 440 q 533 464 556 440 q 511 519 511 488 z "},"ŀ":{"ha":450,"x_min":100,"x_max":454,"o":"m 100 167 l 100 972 l 211 972 l 211 217 q 228 123 211 153 q 285 93 246 93 q 364 121 322 93 l 389 36 q 242 -11 329 -11 q 100 167 100 -11 m 314 453 q 335 501 314 482 q 386 519 356 519 q 434 501 414 519 q 454 453 454 482 q 434 400 454 419 q 386 381 414 381 q 335 400 356 381 q 314 453 314 419 z "},"Ł":{"ha":778,"x_min":35,"x_max":757,"o":"m 35 304 l 35 419 l 160 479 l 160 972 l 278 972 l 278 536 l 522 656 l 522 542 l 278 422 l 278 111 l 757 111 l 757 0 l 160 0 l 160 365 l 35 304 z "},"ł":{"ha":444,"x_min":21,"x_max":417,"o":"m 21 308 l 21 424 l 128 475 l 128 972 l 239 972 l 239 528 l 385 599 l 385 485 l 239 414 l 239 217 q 256 123 239 153 q 313 93 274 93 q 392 121 350 93 l 417 36 q 269 -11 357 -11 q 128 167 128 -11 l 128 360 l 21 308 z "},"Ń":{"ha":1104,"x_min":146,"x_max":958,"o":"m 958 0 l 864 0 l 257 764 l 257 0 l 146 0 l 146 972 l 240 972 l 847 206 l 847 972 l 958 972 l 958 0 m 782 1138 l 501 1021 l 469 1088 l 740 1232 l 782 1138 z "},"ń":{"ha":763,"x_min":100,"x_max":675,"o":"m 100 0 l 100 625 l 211 625 l 211 549 q 301 611 246 586 q 415 636 357 636 q 675 361 675 636 l 675 0 l 564 0 l 564 340 q 388 532 564 532 q 211 451 282 532 l 211 0 l 100 0 m 543 936 l 376 738 l 310 785 l 457 1003 l 543 936 z "},"Ņ":{"ha":1104,"x_min":146,"x_max":958,"o":"m 958 0 l 864 0 l 257 764 l 257 0 l 146 0 l 146 972 l 240 972 l 847 206 l 847 972 l 958 972 l 958 0 m 481 -90 l 585 -64 q 625 -132 625 -74 q 583 -232 625 -193 q 482 -283 542 -271 l 450 -233 q 514 -147 514 -208 q 481 -90 514 -104 z "},"ņ":{"ha":763,"x_min":100,"x_max":675,"o":"m 100 0 l 100 625 l 211 625 l 211 549 q 301 611 246 586 q 415 636 357 636 q 675 361 675 636 l 675 0 l 564 0 l 564 340 q 388 532 564 532 q 211 451 282 532 l 211 0 l 100 0 m 311 -90 l 415 -64 q 456 -132 456 -74 q 414 -232 456 -193 q 313 -283 372 -271 l 281 -233 q 344 -147 344 -208 q 311 -90 344 -104 z "},"Ň":{"ha":1104,"x_min":146,"x_max":958,"o":"m 958 0 l 864 0 l 257 764 l 257 0 l 146 0 l 146 972 l 240 972 l 847 206 l 847 972 l 958 972 l 958 0 m 551 1025 l 308 1168 l 354 1232 l 554 1119 l 753 1232 l 794 1169 l 557 1025 l 551 1025 z "},"ň":{"ha":763,"x_min":100,"x_max":675,"o":"m 100 0 l 100 625 l 211 625 l 211 549 q 301 611 246 586 q 415 636 357 636 q 675 361 675 636 l 675 0 l 564 0 l 564 340 q 388 532 564 532 q 211 451 282 532 l 211 0 l 100 0 m 376 735 l 182 919 l 236 986 l 381 843 l 525 985 l 576 919 l 382 735 l 376 735 z "},"Ō":{"ha":1131,"x_min":69,"x_max":1061,"o":"m 69 486 q 210 842 69 699 q 565 986 350 986 q 920 846 779 986 q 1061 486 1061 706 q 919 128 1061 271 q 565 -14 778 -14 q 210 126 351 -14 q 69 486 69 267 m 194 486 q 301 209 194 321 q 565 97 408 97 q 833 208 729 97 q 936 486 936 319 q 829 765 936 654 q 565 875 722 875 q 300 765 406 875 q 194 486 194 656 m 361 1069 l 361 1160 l 783 1160 l 783 1069 l 361 1069 z "},"ō":{"ha":785,"x_min":58,"x_max":725,"o":"m 151 78 q 105 125 151 78 q 58 313 58 171 q 151 547 58 454 q 392 639 243 639 q 633 547 540 639 q 725 313 725 454 q 633 78 725 171 q 392 -14 540 -14 q 151 78 243 -14 m 176 313 q 237 153 176 215 q 392 90 297 90 q 547 152 486 90 q 607 313 607 214 q 547 472 607 410 q 392 535 486 535 q 238 473 299 535 q 176 313 176 411 m 215 806 l 215 896 l 582 896 l 582 806 l 215 806 z "},"Ő":{"ha":1131,"x_min":69,"x_max":1061,"o":"m 69 486 q 210 842 69 699 q 565 986 350 986 q 920 846 779 986 q 1061 486 1061 706 q 919 128 1061 271 q 565 -14 778 -14 q 210 126 351 -14 q 69 486 69 267 m 194 486 q 301 209 194 321 q 565 97 408 97 q 833 208 729 97 q 936 486 936 319 q 829 765 936 654 q 565 875 722 875 q 300 765 406 875 q 194 486 194 656 m 919 1161 l 671 1021 l 625 1069 l 843 1232 l 919 1161 m 649 1182 l 425 1021 l 378 1065 l 556 1232 l 649 1182 z "},"ő":{"ha":785,"x_min":58,"x_max":725,"o":"m 151 78 q 105 125 151 78 q 58 313 58 171 q 151 547 58 454 q 392 639 243 639 q 633 547 540 639 q 725 313 725 454 q 633 78 725 171 q 392 -14 540 -14 q 151 78 243 -14 m 176 313 q 237 153 176 215 q 392 90 297 90 q 547 152 486 90 q 607 313 607 214 q 547 472 607 410 q 392 535 486 535 q 238 473 299 535 q 176 313 176 411 m 674 932 l 500 738 l 433 785 l 592 994 l 674 932 m 442 944 l 285 738 l 218 785 l 361 1004 l 442 944 z "},"Œ":{"ha":1447,"x_min":69,"x_max":1357,"o":"m 794 0 l 794 39 q 563 -14 696 -14 q 206 123 343 -14 q 69 486 69 260 q 201 844 69 701 q 554 986 332 986 q 794 931 692 986 l 794 972 l 1343 972 l 1343 861 l 913 861 l 913 547 l 1301 547 l 1301 436 l 913 436 l 913 111 l 1357 111 l 1357 0 l 794 0 m 574 97 q 794 161 699 97 l 794 803 q 556 875 697 875 q 296 767 397 875 q 194 486 194 658 q 299 205 194 313 q 574 97 404 97 z "},"œ":{"ha":1163,"x_min":58,"x_max":1111,"o":"m 1033 156 l 1068 68 q 835 -14 981 -14 q 611 57 699 -14 q 392 -14 524 -14 q 151 78 243 -14 q 58 313 58 171 q 151 547 58 454 q 392 639 243 639 q 608 567 521 639 q 822 639 696 639 q 1028 559 946 639 q 1111 353 1111 479 q 1104 278 1111 310 l 625 278 q 690 140 631 190 q 843 90 750 90 q 1033 156 964 90 m 392 90 q 540 142 482 90 q 500 313 500 214 q 540 483 500 407 q 392 535 479 535 q 238 473 299 535 q 176 313 176 411 q 237 153 176 215 q 392 90 297 90 m 815 535 q 680 488 732 535 q 618 368 628 442 l 997 368 q 944 490 992 446 q 815 535 896 535 z "},"Ŕ":{"ha":893,"x_min":146,"x_max":865,"o":"m 264 0 l 146 0 l 146 972 q 286 974 176 972 q 407 975 396 975 q 753 686 753 975 q 691 506 753 579 q 542 411 629 433 l 865 0 l 721 0 l 422 389 l 264 389 l 264 0 m 400 864 q 264 861 356 864 l 264 500 l 407 500 q 562 551 496 500 q 628 685 628 601 q 400 864 628 864 m 601 1138 l 321 1021 l 289 1088 l 560 1232 l 601 1138 z "},"ŕ":{"ha":472,"x_min":100,"x_max":465,"o":"m 100 0 l 100 625 l 211 625 l 211 551 q 368 636 268 636 q 465 613 433 636 l 426 508 q 342 532 386 532 q 211 443 257 532 l 211 0 l 100 0 m 424 936 l 257 738 l 190 785 l 338 1003 l 424 936 z "},"Ŗ":{"ha":893,"x_min":146,"x_max":865,"o":"m 264 0 l 146 0 l 146 972 q 286 974 176 972 q 407 975 396 975 q 753 686 753 975 q 691 506 753 579 q 542 411 629 433 l 865 0 l 721 0 l 422 389 l 264 389 l 264 0 m 400 864 q 264 861 356 864 l 264 500 l 407 500 q 562 551 496 500 q 628 685 628 601 q 400 864 628 864 m 369 -90 l 474 -64 q 514 -132 514 -74 q 472 -232 514 -193 q 371 -283 431 -271 l 339 -233 q 403 -147 403 -208 q 369 -90 403 -104 z "},"ŗ":{"ha":472,"x_min":100,"x_max":465,"o":"m 100 0 l 100 625 l 211 625 l 211 551 q 368 636 268 636 q 465 613 433 636 l 426 508 q 342 532 386 532 q 211 443 257 532 l 211 0 l 100 0 m 151 -90 l 256 -64 q 296 -132 296 -74 q 254 -232 296 -193 q 153 -283 213 -271 l 121 -233 q 185 -147 185 -208 q 151 -90 185 -104 z "},"Ř":{"ha":893,"x_min":146,"x_max":865,"o":"m 264 0 l 146 0 l 146 972 q 286 974 176 972 q 407 975 396 975 q 753 686 753 975 q 691 506 753 579 q 542 411 629 433 l 865 0 l 721 0 l 422 389 l 264 389 l 264 0 m 400 864 q 264 861 356 864 l 264 500 l 407 500 q 562 551 496 500 q 628 685 628 601 q 400 864 628 864 m 403 1025 l 160 1168 l 206 1232 l 406 1119 l 604 1232 l 646 1169 l 408 1025 l 403 1025 z "},"ř":{"ha":472,"x_min":71,"x_max":465,"o":"m 100 0 l 100 625 l 211 625 l 211 551 q 368 636 268 636 q 465 613 433 636 l 426 508 q 342 532 386 532 q 211 443 257 532 l 211 0 l 100 0 m 265 735 l 71 919 l 125 986 l 269 843 l 414 985 l 465 919 l 271 735 l 265 735 z "},"Ś":{"ha":763,"x_min":69,"x_max":693,"o":"m 568 249 q 542 333 568 297 q 474 392 515 369 q 381 436 432 415 q 280 481 331 457 q 188 536 229 506 q 119 617 146 567 q 93 732 93 667 q 172 913 93 840 q 386 986 251 986 q 541 958 469 986 q 654 885 613 931 l 590 796 q 393 875 511 875 q 265 836 313 875 q 218 732 218 797 q 244 647 218 683 q 313 589 271 611 q 405 547 354 567 q 506 503 456 526 q 599 449 557 479 q 667 368 640 419 q 693 250 693 317 q 602 59 693 132 q 376 -14 511 -14 q 193 26 282 -14 q 69 132 104 65 l 138 213 q 246 128 179 158 q 378 97 313 97 q 513 138 458 97 q 568 249 568 178 m 613 1138 l 332 1021 l 300 1088 l 571 1232 l 613 1138 z "},"ś":{"ha":597,"x_min":63,"x_max":535,"o":"m 417 169 q 382 226 417 204 q 298 262 347 247 q 199 296 249 276 q 114 357 149 315 q 79 463 79 399 q 138 591 79 543 q 292 639 197 639 q 507 565 431 639 l 454 481 q 297 542 386 542 q 224 519 251 542 q 197 464 197 496 q 232 405 197 428 q 316 367 267 382 q 415 334 365 353 q 500 276 465 315 q 535 175 535 236 q 465 34 535 82 q 293 -14 396 -14 q 153 17 221 -14 q 63 83 86 47 l 125 163 q 206 107 153 131 q 306 83 260 83 q 385 106 353 83 q 417 169 417 129 m 453 936 l 286 738 l 219 785 l 367 1003 l 453 936 z "},"Ŝ":{"ha":763,"x_min":69,"x_max":693,"o":"m 568 249 q 542 333 568 297 q 474 392 515 369 q 381 436 432 415 q 280 481 331 457 q 188 536 229 506 q 119 617 146 567 q 93 732 93 667 q 172 913 93 840 q 386 986 251 986 q 541 958 469 986 q 654 885 613 931 l 590 796 q 393 875 511 875 q 265 836 313 875 q 218 732 218 797 q 244 647 218 683 q 313 589 271 611 q 405 547 354 567 q 506 503 456 526 q 599 449 557 479 q 667 368 640 419 q 693 250 693 317 q 602 59 693 132 q 376 -14 511 -14 q 193 26 282 -14 q 69 132 104 65 l 138 213 q 246 128 179 158 q 378 97 313 97 q 513 138 458 97 q 568 249 568 178 m 138 1081 l 375 1225 l 381 1225 l 622 1082 l 576 1018 l 378 1124 l 178 1018 l 138 1081 z "},"ŝ":{"ha":597,"x_min":63,"x_max":535,"o":"m 417 169 q 382 226 417 204 q 298 262 347 247 q 199 296 249 276 q 114 357 149 315 q 79 463 79 399 q 138 591 79 543 q 292 639 197 639 q 507 565 431 639 l 454 481 q 297 542 386 542 q 224 519 251 542 q 197 464 197 496 q 232 405 197 428 q 316 367 267 382 q 415 334 365 353 q 500 276 465 315 q 535 175 535 236 q 465 34 535 82 q 293 -14 396 -14 q 153 17 221 -14 q 63 83 86 47 l 125 163 q 206 107 153 131 q 306 83 260 83 q 385 106 353 83 q 417 169 417 129 m 304 982 l 497 797 l 444 731 l 300 857 l 156 732 l 103 797 l 299 982 l 304 982 z "},"Ş":{"ha":763,"x_min":69,"x_max":693,"o":"m 211 -235 l 247 -176 q 350 -215 303 -215 q 406 -202 385 -215 q 428 -165 428 -189 q 347 -111 428 -111 l 339 -111 l 339 -12 q 176 34 253 -4 q 69 132 100 72 l 138 213 q 246 128 179 158 q 378 97 313 97 q 513 138 458 97 q 568 249 568 178 q 542 333 568 297 q 474 392 515 369 q 381 436 432 415 q 280 481 331 457 q 188 536 229 506 q 119 617 146 567 q 93 732 93 667 q 172 913 93 840 q 386 986 251 986 q 541 958 469 986 q 654 885 613 931 l 590 796 q 393 875 511 875 q 265 836 313 875 q 218 732 218 797 q 244 647 218 683 q 313 589 271 611 q 405 547 354 567 q 506 503 456 526 q 599 449 557 479 q 667 368 640 419 q 693 250 693 317 q 609 66 693 138 q 399 -12 525 -6 l 399 -60 q 546 -171 546 -68 q 500 -253 546 -222 q 375 -285 454 -285 q 211 -235 286 -285 z "},"ş":{"ha":597,"x_min":63,"x_max":535,"o":"m 131 -237 l 164 -183 q 263 -215 213 -215 q 319 -202 297 -215 q 340 -165 340 -189 q 260 -111 340 -111 l 251 -111 l 251 -11 q 135 25 189 -3 q 63 83 82 53 l 125 163 q 206 107 153 131 q 306 83 260 83 q 385 106 353 83 q 417 169 417 129 q 382 226 417 204 q 298 262 347 247 q 199 296 249 276 q 114 357 149 315 q 79 463 79 399 q 138 591 79 543 q 292 639 197 639 q 507 565 431 639 l 454 481 q 297 542 386 542 q 224 519 251 542 q 197 464 197 496 q 232 405 197 428 q 316 367 267 382 q 415 334 365 353 q 500 276 465 315 q 535 175 535 236 q 471 38 535 86 q 311 -14 407 -10 l 311 -60 q 451 -171 451 -68 q 405 -253 451 -222 q 276 -285 358 -285 q 131 -237 201 -285 z "},"Š":{"ha":763,"x_min":69,"x_max":693,"o":"m 568 249 q 542 333 568 297 q 474 392 515 369 q 381 436 432 415 q 280 481 331 457 q 188 536 229 506 q 119 617 146 567 q 93 732 93 667 q 172 913 93 840 q 386 986 251 986 q 541 958 469 986 q 654 885 613 931 l 590 796 q 393 875 511 875 q 265 836 313 875 q 218 732 218 797 q 244 647 218 683 q 313 589 271 611 q 405 547 354 567 q 506 503 456 526 q 599 449 557 479 q 667 368 640 419 q 693 250 693 317 q 602 59 693 132 q 376 -14 511 -14 q 193 26 282 -14 q 69 132 104 65 l 138 213 q 246 128 179 158 q 378 97 313 97 q 513 138 458 97 q 568 249 568 178 m 386 1025 l 143 1168 l 189 1232 l 389 1119 l 588 1232 l 629 1169 l 392 1025 l 386 1025 z "},"š":{"ha":597,"x_min":63,"x_max":535,"o":"m 417 169 q 382 226 417 204 q 298 262 347 247 q 199 296 249 276 q 114 357 149 315 q 79 463 79 399 q 138 591 79 543 q 292 639 197 639 q 507 565 431 639 l 454 481 q 297 542 386 542 q 224 519 251 542 q 197 464 197 496 q 232 405 197 428 q 316 367 267 382 q 415 334 365 353 q 500 276 465 315 q 535 175 535 236 q 465 34 535 82 q 293 -14 396 -14 q 153 17 221 -14 q 63 83 86 47 l 125 163 q 206 107 153 131 q 306 83 260 83 q 385 106 353 83 q 417 169 417 129 m 294 735 l 100 919 l 154 986 l 299 843 l 443 985 l 494 919 l 300 735 l 294 735 z "},"Ţ":{"ha":826,"x_min":14,"x_max":813,"o":"m 256 -235 l 292 -176 q 394 -215 347 -215 q 451 -202 429 -215 q 472 -165 472 -189 q 392 -111 472 -111 l 383 -111 l 383 0 l 354 0 l 354 861 l 14 861 l 14 972 l 813 972 l 813 861 l 472 861 l 472 0 l 443 0 l 443 -60 q 590 -171 590 -68 q 544 -253 590 -222 q 419 -285 499 -285 q 256 -235 331 -285 z "},"ţ":{"ha":490,"x_min":86,"x_max":442,"o":"m 93 -237 l 126 -183 q 225 -215 175 -215 q 281 -202 260 -215 q 303 -165 303 -189 q 222 -111 303 -111 l 214 -111 l 214 -1 q 86 238 86 33 l 86 799 l 197 799 l 197 625 l 426 625 l 426 521 l 197 521 l 197 249 q 308 93 197 93 q 407 128 361 93 l 442 42 q 282 -11 378 -11 l 274 -11 l 274 -60 q 414 -171 414 -68 q 367 -253 414 -222 q 239 -285 321 -285 q 93 -237 164 -285 z "},"Ť":{"ha":826,"x_min":14,"x_max":813,"o":"m 14 861 l 14 972 l 813 972 l 813 861 l 472 861 l 472 0 l 354 0 l 354 861 l 14 861 m 408 1025 l 165 1168 l 211 1232 l 411 1119 l 610 1232 l 651 1169 l 414 1025 l 408 1025 z "},"ť":{"ha":490,"x_min":86,"x_max":461,"o":"m 86 238 l 86 799 l 197 799 l 197 625 l 426 625 l 426 521 l 197 521 l 197 249 q 308 93 197 93 q 407 128 361 93 l 442 42 q 282 -11 378 -11 q 133 51 179 -11 q 86 238 86 114 m 342 972 l 450 972 q 461 919 461 950 q 426 788 461 842 q 342 707 392 733 l 292 756 q 357 907 357 811 q 342 972 357 944 z "},"Ū":{"ha":1043,"x_min":132,"x_max":911,"o":"m 911 972 l 911 406 q 804 92 911 196 q 535 -12 697 -12 q 242 98 353 -12 q 132 415 132 208 l 132 972 l 250 972 l 250 438 q 324 188 250 278 q 535 99 399 99 q 725 183 657 99 q 793 429 793 267 l 793 972 l 911 972 m 317 1069 l 317 1160 l 739 1160 l 739 1069 l 317 1069 z "},"ū":{"ha":750,"x_min":86,"x_max":649,"o":"m 649 625 l 649 0 l 538 0 l 538 89 q 444 16 501 46 q 317 -14 386 -14 q 147 53 208 -14 q 86 253 86 119 l 86 625 l 197 625 l 197 278 q 358 90 197 90 q 458 117 410 90 q 538 183 507 143 l 538 625 l 649 625 m 188 806 l 188 896 l 554 896 l 554 806 l 188 806 z "},"Ŭ":{"ha":1043,"x_min":132,"x_max":911,"o":"m 911 972 l 911 406 q 804 92 911 196 q 535 -12 697 -12 q 242 98 353 -12 q 132 415 132 208 l 132 972 l 250 972 l 250 438 q 324 188 250 278 q 535 99 399 99 q 725 183 657 99 q 793 429 793 267 l 793 972 l 911 972 m 275 1164 l 325 1222 q 524 1132 406 1132 q 718 1222 642 1132 l 761 1164 q 663 1072 726 1110 q 524 1035 599 1035 q 373 1075 439 1035 q 275 1164 307 1115 z "},"ŭ":{"ha":750,"x_min":86,"x_max":649,"o":"m 649 625 l 649 0 l 538 0 l 538 89 q 444 16 501 46 q 317 -14 386 -14 q 147 53 208 -14 q 86 253 86 119 l 86 625 l 197 625 l 197 278 q 358 90 197 90 q 458 117 410 90 q 538 183 507 143 l 538 625 l 649 625 m 165 889 l 217 946 q 375 861 288 861 q 535 944 465 861 l 575 890 q 371 771 489 771 q 165 889 242 771 z "},"Ů":{"ha":1043,"x_min":132,"x_max":911,"o":"m 911 972 l 911 406 q 804 92 911 196 q 535 -12 697 -12 q 242 98 353 -12 q 132 415 132 208 l 132 972 l 250 972 l 250 438 q 324 188 250 278 q 535 99 399 99 q 725 183 657 99 q 793 429 793 267 l 793 972 l 911 972 m 397 997 q 373 1015 397 997 q 349 1100 349 1033 q 397 1200 349 1167 q 521 1233 444 1233 q 647 1200 599 1233 q 696 1100 696 1167 q 647 997 696 1033 q 521 961 597 961 q 397 997 446 961 m 432 1100 q 457 1043 432 1063 q 522 1024 482 1024 q 587 1043 561 1024 q 613 1100 613 1063 q 522 1171 613 1171 q 432 1100 432 1171 z "},"ů":{"ha":750,"x_min":86,"x_max":649,"o":"m 649 625 l 649 0 l 538 0 l 538 89 q 444 16 501 46 q 317 -14 386 -14 q 147 53 208 -14 q 86 253 86 119 l 86 625 l 197 625 l 197 278 q 358 90 197 90 q 458 117 410 90 q 538 183 507 143 l 538 625 l 649 625 m 257 743 q 234 765 257 743 q 211 851 211 788 q 257 960 211 915 q 369 1006 303 1006 q 484 960 438 1006 q 531 851 531 915 q 484 743 531 788 q 369 699 438 699 q 257 743 303 699 m 283 853 q 308 788 283 814 q 371 761 333 761 q 433 788 408 761 q 458 853 458 814 q 433 917 458 890 q 371 943 408 943 q 308 917 333 943 q 283 853 283 890 z "},"Ű":{"ha":1043,"x_min":132,"x_max":911,"o":"m 911 972 l 911 406 q 804 92 911 196 q 535 -12 697 -12 q 242 98 353 -12 q 132 415 132 208 l 132 972 l 250 972 l 250 438 q 324 188 250 278 q 535 99 399 99 q 725 183 657 99 q 793 429 793 267 l 793 972 l 911 972 m 857 1161 l 608 1021 l 563 1069 l 781 1232 l 857 1161 m 586 1182 l 363 1021 l 315 1065 l 493 1232 l 586 1182 z "},"ű":{"ha":750,"x_min":86,"x_max":653,"o":"m 649 625 l 649 0 l 538 0 l 538 89 q 444 16 501 46 q 317 -14 386 -14 q 147 53 208 -14 q 86 253 86 119 l 86 625 l 197 625 l 197 278 q 358 90 197 90 q 458 117 410 90 q 538 183 507 143 l 538 625 l 649 625 m 653 932 l 479 738 l 413 785 l 571 994 l 653 932 m 421 944 l 264 738 l 197 785 l 340 1004 l 421 944 z "},"Ų":{"ha":1043,"x_min":132,"x_max":911,"o":"m 911 972 l 911 406 q 836 131 911 232 q 639 0 761 29 q 533 -114 533 -50 q 560 -170 533 -153 q 617 -187 586 -187 q 678 -175 651 -187 l 711 -243 q 592 -278 669 -278 q 472 -247 522 -278 q 422 -150 422 -217 q 533 -12 422 -65 q 242 98 353 -12 q 132 415 132 208 l 132 972 l 250 972 l 250 438 q 324 188 250 278 q 535 99 399 99 q 725 183 657 99 q 793 429 793 267 l 793 972 l 911 972 z "},"ų":{"ha":750,"x_min":86,"x_max":661,"o":"m 628 -175 l 661 -243 q 542 -278 619 -278 q 422 -247 472 -278 q 372 -150 372 -217 q 419 -51 372 -92 q 538 8 465 -10 l 538 89 q 444 16 501 46 q 317 -14 386 -14 q 147 53 208 -14 q 86 253 86 119 l 86 625 l 197 625 l 197 278 q 358 90 197 90 q 458 117 410 90 q 538 183 507 143 l 538 625 l 649 625 l 649 0 l 642 0 q 531 -35 578 -3 q 483 -114 483 -68 q 510 -170 483 -153 q 567 -187 536 -187 q 628 -175 601 -187 z "},"Ÿ":{"ha":839,"x_min":14,"x_max":825,"o":"m 825 972 l 476 417 l 476 0 l 358 0 l 358 417 l 14 972 l 150 972 l 422 528 l 696 972 l 825 972 m 183 1129 q 206 1174 183 1157 q 260 1192 228 1192 q 310 1174 289 1192 q 332 1129 332 1157 q 310 1081 332 1099 q 260 1063 289 1063 q 205 1081 226 1063 q 183 1129 183 1099 m 506 1129 q 528 1174 506 1157 q 583 1192 551 1192 q 633 1175 613 1192 q 654 1129 654 1158 q 633 1081 654 1099 q 583 1063 613 1063 q 528 1081 550 1063 q 506 1129 506 1099 z "},"Ź":{"ha":882,"x_min":56,"x_max":826,"o":"m 83 861 l 83 972 l 813 972 l 813 893 l 215 111 l 826 111 l 826 0 l 56 0 l 56 79 l 650 861 l 83 861 m 664 1138 l 383 1021 l 351 1088 l 622 1232 l 664 1138 z "},"ź":{"ha":674,"x_min":63,"x_max":611,"o":"m 83 521 l 83 625 l 611 625 l 611 547 l 219 104 l 604 104 l 604 0 l 63 0 l 63 78 l 453 521 l 83 521 m 499 936 l 332 738 l 265 785 l 413 1003 l 499 936 z "},"Ż":{"ha":882,"x_min":56,"x_max":826,"o":"m 83 861 l 83 972 l 813 972 l 813 893 l 215 111 l 826 111 l 826 0 l 56 0 l 56 79 l 650 861 l 83 861 m 361 1135 q 384 1186 361 1167 q 440 1206 407 1206 q 493 1186 471 1206 q 515 1135 515 1167 q 493 1080 515 1100 q 440 1060 471 1060 q 384 1080 407 1060 q 361 1135 361 1100 z "},"ż":{"ha":674,"x_min":63,"x_max":611,"o":"m 83 521 l 83 625 l 611 625 l 611 547 l 219 104 l 604 104 l 604 0 l 63 0 l 63 78 l 453 521 l 83 521 m 263 860 q 283 908 263 889 q 335 926 304 926 q 383 908 363 926 q 403 860 403 889 q 383 807 403 826 q 335 788 363 788 q 283 807 304 788 q 263 860 263 826 z "},"Ž":{"ha":882,"x_min":56,"x_max":826,"o":"m 83 861 l 83 972 l 813 972 l 813 893 l 215 111 l 826 111 l 826 0 l 56 0 l 56 79 l 650 861 l 83 861 m 444 1025 l 201 1168 l 247 1232 l 447 1119 l 646 1232 l 688 1169 l 450 1025 l 444 1025 z "},"ž":{"ha":674,"x_min":63,"x_max":611,"o":"m 83 521 l 83 625 l 611 625 l 611 547 l 219 104 l 604 104 l 604 0 l 63 0 l 63 78 l 453 521 l 83 521 m 340 735 l 146 919 l 200 986 l 344 843 l 489 985 l 540 919 l 346 735 l 340 735 z "},"ſ":{"ha":354,"x_min":114,"x_max":500,"o":"m 114 0 l 114 726 q 171 921 114 856 q 333 986 228 986 q 500 931 442 986 l 461 846 q 351 882 418 882 q 225 714 225 882 l 225 0 l 114 0 z "},"Ə":{"ha":1082,"x_min":49,"x_max":1013,"o":"m 67 551 l 885 551 q 763 789 867 703 q 499 875 660 875 q 253 796 354 875 l 206 885 q 525 986 324 986 q 878 851 744 986 q 1013 489 1013 715 q 881 126 1013 265 q 531 -14 750 -14 q 178 142 308 -14 q 67 551 49 299 m 529 97 q 778 190 683 97 q 889 440 874 283 l 189 440 q 288 196 196 294 q 529 97 379 97 z "},"ƒ":{"ha":822,"x_min":32,"x_max":815,"o":"m 524 714 l 507 625 l 707 625 l 707 521 l 489 521 l 389 -46 q 318 -229 367 -169 q 171 -289 269 -289 q 32 -249 81 -289 l 63 -160 q 144 -185 103 -185 q 234 -147 203 -185 q 278 -35 265 -110 l 376 521 l 183 521 l 183 625 l 394 625 l 413 726 q 492 924 438 863 q 647 986 546 986 q 815 931 757 986 l 776 846 q 667 882 733 882 q 574 842 607 882 q 524 714 540 803 z "},"ǝ":{"ha":722,"x_min":51,"x_max":664,"o":"m 136 469 l 101 556 q 212 617 146 596 q 343 639 278 639 q 578 551 493 639 q 664 313 664 463 q 578 78 664 171 q 346 -14 493 -14 q 135 65 219 -14 q 51 272 51 144 q 58 354 51 322 l 539 354 q 480 484 535 433 q 335 535 425 535 q 221 517 275 535 q 136 469 167 499 m 351 90 q 485 139 432 90 q 546 264 539 188 l 167 264 q 218 135 169 181 q 351 90 267 90 z "},"Ș":{"ha":763,"x_min":69,"x_max":693,"o":"m 568 249 q 542 333 568 297 q 474 392 515 369 q 381 436 432 415 q 280 481 331 457 q 188 536 229 506 q 119 617 146 567 q 93 732 93 667 q 172 913 93 840 q 386 986 251 986 q 541 958 469 986 q 654 885 613 931 l 590 796 q 393 875 511 875 q 265 836 313 875 q 218 732 218 797 q 244 647 218 683 q 313 589 271 611 q 405 547 354 567 q 506 503 456 526 q 599 449 557 479 q 667 368 640 419 q 693 250 693 317 q 602 59 693 132 q 376 -14 511 -14 q 193 26 282 -14 q 69 132 104 65 l 138 213 q 246 128 179 158 q 378 97 313 97 q 513 138 458 97 q 568 249 568 178 m 318 -90 l 422 -64 q 463 -132 463 -74 q 421 -232 463 -193 q 319 -283 379 -271 l 288 -233 q 351 -147 351 -208 q 318 -90 351 -104 z "},"ș":{"ha":597,"x_min":63,"x_max":535,"o":"m 417 169 q 382 226 417 204 q 298 262 347 247 q 199 296 249 276 q 114 357 149 315 q 79 463 79 399 q 138 591 79 543 q 292 639 197 639 q 507 565 431 639 l 454 481 q 297 542 386 542 q 224 519 251 542 q 197 464 197 496 q 232 405 197 428 q 316 367 267 382 q 415 334 365 353 q 500 276 465 315 q 535 175 535 236 q 465 34 535 82 q 293 -14 396 -14 q 153 17 221 -14 q 63 83 86 47 l 125 163 q 206 107 153 131 q 306 83 260 83 q 385 106 353 83 q 417 169 417 129 m 236 -90 l 340 -64 q 381 -132 381 -74 q 339 -232 381 -193 q 238 -283 297 -271 l 206 -233 q 269 -147 269 -208 q 236 -90 269 -104 z "},"Ț":{"ha":826,"x_min":14,"x_max":813,"o":"m 14 861 l 14 972 l 813 972 l 813 861 l 472 861 l 472 0 l 354 0 l 354 861 l 14 861 m 342 -90 l 446 -64 q 486 -132 486 -74 q 444 -232 486 -193 q 343 -283 403 -271 l 311 -233 q 375 -147 375 -208 q 342 -90 375 -104 z "},"ț":{"ha":490,"x_min":86,"x_max":442,"o":"m 86 238 l 86 799 l 197 799 l 197 625 l 426 625 l 426 521 l 197 521 l 197 249 q 308 93 197 93 q 407 128 361 93 l 442 42 q 282 -11 378 -11 q 133 51 179 -11 q 86 238 86 114 m 185 -90 l 289 -64 q 329 -132 329 -74 q 288 -232 329 -193 q 186 -283 246 -271 l 154 -233 q 218 -147 218 -208 q 185 -90 218 -104 z "},"ȷ":{"ha":369,"x_min":-87,"x_max":247,"o":"m 247 625 l 247 -46 q 51 -289 247 -289 q -87 -249 -36 -289 l -56 -160 q 26 -185 -15 -185 q 136 -37 136 -185 l 136 625 l 247 625 z "},"ə":{"ha":722,"x_min":51,"x_max":664,"o":"m 136 469 l 101 556 q 212 617 146 596 q 343 639 278 639 q 578 551 493 639 q 664 313 664 463 q 578 78 664 171 q 346 -14 493 -14 q 135 65 219 -14 q 51 272 51 144 q 58 354 51 322 l 539 354 q 480 484 535 433 q 335 535 425 535 q 221 517 275 535 q 136 469 167 499 m 351 90 q 485 139 432 90 q 546 264 539 188 l 167 264 q 218 135 169 181 q 351 90 267 90 z "},"ʼ":{"ha":336,"x_min":83,"x_max":253,"o":"m 119 875 l 213 931 q 253 817 253 888 q 135 610 253 676 l 83 658 q 149 793 149 704 q 119 875 149 846 z "},"ˆ":{"ha":561,"x_min":83,"x_max":478,"o":"m 285 982 l 478 797 l 425 731 l 281 857 l 136 732 l 83 797 l 279 982 l 285 982 z "},"ˇ":{"ha":561,"x_min":83,"x_max":478,"o":"m 278 735 l 83 919 l 138 986 l 282 843 l 426 985 l 478 919 l 283 735 l 278 735 z "},"˘":{"ha":576,"x_min":83,"x_max":493,"o":"m 83 889 l 135 946 q 293 861 206 861 q 453 944 383 861 l 493 890 q 289 771 407 771 q 83 889 160 771 z "},"˙":{"ha":307,"x_min":83,"x_max":224,"o":"m 83 860 q 104 908 83 889 q 156 926 125 926 q 203 908 183 926 q 224 860 224 889 q 203 807 224 826 q 156 788 183 788 q 104 807 125 788 q 83 860 83 826 z "},"˚":{"ha":486,"x_min":83,"x_max":403,"o":"m 129 743 q 106 765 129 743 q 83 851 83 788 q 129 960 83 915 q 242 1006 175 1006 q 356 960 310 1006 q 403 851 403 915 q 356 743 403 788 q 242 699 310 699 q 129 743 175 699 m 156 853 q 181 788 156 814 q 243 761 206 761 q 306 788 281 761 q 331 853 331 814 q 306 917 331 890 q 243 943 281 943 q 181 917 206 943 q 156 853 156 890 z "},"˛":{"ha":456,"x_min":83,"x_max":372,"o":"m 339 -175 l 372 -243 q 253 -278 331 -278 q 133 -247 183 -278 q 83 -150 83 -217 q 169 -23 83 -69 q 360 22 254 24 l 360 0 q 244 -34 294 0 q 194 -114 194 -68 q 221 -170 194 -153 q 278 -187 247 -187 q 339 -175 313 -187 z "},"˜":{"ha":614,"x_min":83,"x_max":531,"o":"m 129 774 l 83 825 q 236 908 157 908 q 317 878 269 908 q 393 847 365 847 q 492 896 433 847 l 531 839 q 383 757 453 757 q 305 788 353 757 q 225 818 257 818 q 129 774 188 818 z "},"˝":{"ha":622,"x_min":83,"x_max":539,"o":"m 539 932 l 365 738 l 299 785 l 457 994 l 539 932 m 307 944 l 150 738 l 83 785 l 226 1004 l 307 944 z "},"̀":{"ha":0,"x_min":-542,"x_max":-306,"o":"m -374 738 l -542 935 l -454 1001 l -306 785 l -374 738 z "},"́":{"ha":0,"x_min":-446,"x_max":-212,"o":"m -212 936 l -379 738 l -446 785 l -299 1003 l -212 936 z "},"Δ":{"ha":1008,"x_min":42,"x_max":967,"o":"m 42 0 l 463 983 l 536 983 l 967 0 l 42 0 m 496 783 l 213 111 l 790 111 l 496 783 z "},"Ω":{"ha":1133,"x_min":78,"x_max":1056,"o":"m 94 0 l 94 111 l 329 111 q 152 257 226 146 q 78 514 78 368 q 218 854 78 722 q 567 986 358 986 q 917 855 778 986 q 1056 514 1056 724 q 981 255 1056 364 q 803 111 906 146 l 1038 111 l 1038 0 l 640 0 l 640 111 q 851 251 771 144 q 931 494 931 358 q 829 765 931 654 q 567 875 728 875 q 303 765 403 875 q 203 493 203 654 q 283 252 203 363 q 492 111 363 142 l 492 0 l 94 0 z "},"π":{"ha":882,"x_min":42,"x_max":840,"o":"m 64 521 l 64 625 l 808 625 l 808 521 l 683 521 l 683 203 q 696 118 683 143 q 740 93 708 93 q 815 121 774 93 l 840 36 q 697 -11 781 -11 q 572 153 572 -11 l 572 521 l 306 521 l 306 436 q 289 215 306 303 q 238 78 272 126 q 160 10 204 29 q 50 -8 115 -8 l 42 100 q 151 167 111 97 q 193 415 192 236 l 194 521 l 64 521 z "},"Ё":{"ha":799,"x_min":146,"x_max":708,"o":"m 146 0 l 146 972 l 694 972 l 694 861 l 264 861 l 264 547 l 653 547 l 653 436 l 264 436 l 264 111 l 708 111 l 708 0 l 146 0 m 193 1129 q 215 1174 193 1157 q 269 1192 238 1192 q 320 1174 299 1192 q 342 1129 342 1157 q 320 1081 342 1099 q 269 1063 299 1063 q 215 1081 236 1063 q 193 1129 193 1099 m 515 1129 q 538 1174 515 1157 q 593 1192 561 1192 q 643 1175 622 1192 q 664 1129 664 1158 q 643 1081 664 1099 q 593 1063 622 1063 q 538 1081 560 1063 q 515 1129 515 1099 z "},"Ђ":{"ha":1058,"x_min":14,"x_max":989,"o":"m 989 283 q 924 60 989 133 q 747 -14 860 -14 q 659 3 701 -14 q 601 38 617 19 l 642 128 q 733 97 682 97 q 871 281 871 97 q 676 476 871 476 q 588 464 631 476 q 526 441 546 451 q 472 410 507 431 l 472 0 l 354 0 l 354 861 l 14 861 l 14 972 l 813 972 l 813 861 l 472 861 l 472 518 q 699 588 576 588 q 989 283 989 588 z "},"Ѓ":{"ha":701,"x_min":146,"x_max":688,"o":"m 146 0 l 146 972 l 688 972 l 688 861 l 264 861 l 264 0 l 146 0 m 671 1138 l 390 1021 l 358 1088 l 629 1232 l 671 1138 z "},"Є":{"ha":940,"x_min":69,"x_max":892,"o":"m 671 551 l 671 440 l 189 440 q 314 188 204 279 q 583 97 424 97 q 846 186 728 97 l 892 88 q 574 -14 765 -14 q 208 122 346 -14 q 69 486 69 258 q 205 847 69 707 q 557 986 340 986 q 876 885 758 986 l 822 796 q 576 875 721 875 q 314 788 417 875 q 192 551 211 700 l 671 551 z "},"Ѕ":{"ha":763,"x_min":69,"x_max":693,"o":"m 568 249 q 542 333 568 297 q 474 392 515 369 q 381 436 432 415 q 280 481 331 457 q 188 536 229 506 q 119 617 146 567 q 93 732 93 667 q 172 913 93 840 q 386 986 251 986 q 541 958 469 986 q 654 885 613 931 l 590 796 q 393 875 511 875 q 265 836 313 875 q 218 732 218 797 q 244 647 218 683 q 313 589 271 611 q 405 547 354 567 q 506 503 456 526 q 599 449 557 479 q 667 368 640 419 q 693 250 693 317 q 602 59 693 132 q 376 -14 511 -14 q 193 26 282 -14 q 69 132 104 65 l 138 213 q 246 128 179 158 q 378 97 313 97 q 513 138 458 97 q 568 249 568 178 z "},"І":{"ha":465,"x_min":174,"x_max":292,"o":"m 174 0 l 174 972 l 292 972 l 292 0 l 174 0 z "},"Ї":{"ha":465,"x_min":60,"x_max":407,"o":"m 60 1129 q 79 1174 60 1157 q 126 1192 99 1192 q 172 1174 153 1192 q 190 1129 190 1157 q 172 1081 190 1099 q 126 1063 153 1063 q 79 1081 99 1063 q 60 1129 60 1099 m 276 1129 q 296 1174 276 1157 q 343 1192 315 1192 q 388 1174 369 1192 q 407 1129 407 1157 q 388 1081 407 1099 q 343 1063 369 1063 q 296 1081 315 1063 q 276 1129 276 1099 m 174 0 l 174 972 l 292 972 l 292 0 l 174 0 z "},"Ј":{"ha":519,"x_min":14,"x_max":374,"o":"m 374 972 l 374 221 q 161 -14 374 -14 q 14 38 65 -14 l 54 128 q 146 97 94 97 q 256 240 256 97 l 256 972 l 374 972 z "},"Љ":{"ha":1421,"x_min":35,"x_max":1351,"o":"m 744 0 l 744 861 l 392 861 l 375 678 q 332 369 358 497 q 275 167 306 240 q 203 53 244 93 q 124 3 163 13 q 35 0 85 -7 l 36 118 q 83 122 63 115 q 134 166 104 129 q 187 269 164 203 q 232 467 210 336 q 267 778 254 597 l 281 972 l 863 972 l 863 611 q 992 618 950 618 q 1261 539 1171 618 q 1351 318 1351 460 q 1249 81 1351 165 q 965 -3 1147 -3 q 845 -1 921 -3 q 744 0 769 0 m 983 507 q 863 499 936 507 l 863 113 q 979 108 975 108 q 1226 315 1226 108 q 1164 458 1226 408 q 983 507 1101 507 z "},"Њ":{"ha":1461,"x_min":146,"x_max":1392,"o":"m 146 0 l 146 972 l 264 972 l 264 585 l 785 585 l 785 972 l 903 972 l 903 590 q 1032 597 990 597 q 1301 520 1211 597 q 1392 307 1392 443 q 1290 79 1392 161 q 1006 -3 1188 -3 q 908 -1 971 -3 q 821 0 846 0 l 785 0 l 785 474 l 264 474 l 264 0 l 146 0 m 903 478 l 903 113 q 1019 108 1015 108 q 1203 158 1140 108 q 1267 306 1267 208 q 1204 439 1267 392 q 1024 486 1142 486 q 903 478 975 486 z "},"Ћ":{"ha":1058,"x_min":14,"x_max":989,"o":"m 14 861 l 14 972 l 813 972 l 813 861 l 472 861 l 472 518 q 706 588 569 588 q 910 512 831 588 q 989 276 989 436 l 989 0 l 871 0 l 871 246 q 674 476 871 476 q 472 410 574 476 l 472 0 l 354 0 l 354 861 l 14 861 z "},"Ќ":{"ha":907,"x_min":146,"x_max":879,"o":"m 857 972 l 424 515 l 879 0 l 728 0 l 288 507 l 714 972 l 857 972 m 146 0 l 146 972 l 264 972 l 264 0 l 146 0 m 713 1138 l 432 1021 l 400 1088 l 671 1232 l 713 1138 z "},"Ў":{"ha":925,"x_min":21,"x_max":904,"o":"m 904 972 l 568 222 q 460 53 517 107 q 326 0 404 0 q 208 35 253 0 l 250 135 q 325 110 286 110 q 444 208 397 110 l 461 244 l 21 972 l 154 972 l 518 363 l 785 972 l 904 972 m 221 1194 l 332 1194 q 481 1104 365 1104 q 624 1194 603 1104 l 735 1194 q 653 1069 725 1117 q 481 1021 582 1021 q 303 1069 374 1021 q 221 1194 233 1117 z "},"Џ":{"ha":1042,"x_min":146,"x_max":896,"o":"m 146 0 l 146 972 l 264 972 l 264 111 l 778 111 l 778 972 l 896 972 l 896 0 l 575 0 l 575 -215 l 464 -215 l 464 0 l 146 0 z "},"А":{"ha":979,"x_min":21,"x_max":958,"o":"m 21 0 l 439 978 l 540 978 l 958 0 l 832 0 l 707 294 l 264 294 l 140 0 l 21 0 m 486 821 l 311 406 l 661 406 l 486 821 z "},"Б":{"ha":850,"x_min":146,"x_max":753,"o":"m 146 0 l 146 972 l 696 972 l 696 861 l 264 861 l 264 582 q 413 590 338 590 q 663 514 574 590 q 753 304 753 438 q 654 74 753 154 q 379 -6 556 -6 q 247 -3 325 -6 q 146 0 169 0 m 406 479 q 264 471 340 479 l 264 111 q 397 106 350 106 q 575 156 515 106 q 635 296 635 206 q 576 430 635 381 q 406 479 518 479 z "},"В":{"ha":857,"x_min":146,"x_max":760,"o":"m 146 1 l 146 971 q 413 976 363 976 q 651 911 576 976 q 725 736 725 846 q 679 592 725 649 q 558 511 633 536 l 558 508 q 706 434 651 493 q 760 278 760 375 q 663 66 760 136 q 407 -4 567 -4 q 146 1 260 -4 m 421 443 l 264 443 l 264 113 q 414 107 328 107 q 583 152 524 107 q 642 285 642 197 q 584 402 642 361 q 421 443 526 443 m 410 865 q 264 861 368 865 l 264 547 l 419 547 q 553 590 500 547 q 607 710 607 633 q 410 865 607 865 z "},"Г":{"ha":701,"x_min":146,"x_max":688,"o":"m 146 0 l 146 972 l 688 972 l 688 861 l 264 861 l 264 0 l 146 0 z "},"Д":{"ha":1040,"x_min":21,"x_max":999,"o":"m 21 -181 l 21 111 l 125 111 q 220 338 169 167 q 285 778 271 510 l 294 972 l 867 972 l 867 111 l 999 111 l 999 -181 l 888 -181 l 888 0 l 132 0 l 132 -181 l 21 -181 m 396 688 q 336 310 381 465 q 256 111 292 156 l 749 111 l 749 861 l 408 861 l 396 688 z "},"Е":{"ha":799,"x_min":146,"x_max":708,"o":"m 146 0 l 146 972 l 694 972 l 694 861 l 264 861 l 264 547 l 653 547 l 653 436 l 264 436 l 264 111 l 708 111 l 708 0 l 146 0 z "},"Ж":{"ha":1297,"x_min":28,"x_max":1269,"o":"m 1254 972 l 861 508 l 1269 0 l 1132 0 l 732 507 l 1117 972 l 1254 972 m 589 0 l 589 972 l 707 972 l 707 0 l 589 0 m 436 507 l 43 972 l 181 972 l 565 507 l 165 0 l 28 0 l 436 507 z "},"З":{"ha":803,"x_min":56,"x_max":706,"o":"m 374 -14 q 183 31 268 -14 q 56 139 97 75 l 121 218 q 236 131 167 164 q 367 97 306 97 q 526 147 465 97 q 588 283 588 196 q 538 399 588 356 q 397 442 488 442 l 285 442 l 285 553 l 389 553 q 501 599 453 553 q 550 717 550 646 q 501 834 550 793 q 374 875 451 875 q 153 767 244 875 l 83 844 q 213 948 133 910 q 386 986 293 986 q 591 918 514 986 q 668 728 668 850 q 632 601 668 663 q 528 506 596 540 l 528 501 q 660 422 614 485 q 706 272 706 360 q 609 64 706 142 q 374 -14 513 -14 z "},"И":{"ha":1104,"x_min":146,"x_max":958,"o":"m 250 0 l 146 0 l 146 972 l 264 972 l 264 194 l 854 972 l 958 972 l 958 0 l 840 0 l 840 778 l 250 0 z "},"Й":{"ha":1104,"x_min":146,"x_max":958,"o":"m 250 0 l 146 0 l 146 972 l 264 972 l 264 194 l 854 972 l 958 972 l 958 0 l 840 0 l 840 778 l 250 0 m 301 1194 l 413 1194 q 561 1104 446 1104 q 704 1194 683 1104 l 815 1194 q 734 1069 806 1117 q 561 1021 663 1021 q 384 1069 454 1021 q 301 1194 314 1117 z "},"К":{"ha":907,"x_min":146,"x_max":879,"o":"m 857 972 l 424 515 l 879 0 l 728 0 l 288 507 l 714 972 l 857 972 m 146 0 l 146 972 l 264 972 l 264 0 l 146 0 z "},"Л":{"ha":1008,"x_min":35,"x_max":863,"o":"m 744 0 l 744 861 l 392 861 l 375 678 q 332 369 358 497 q 275 167 306 240 q 203 53 244 93 q 124 3 163 13 q 35 0 85 -7 l 36 118 q 83 122 63 115 q 134 166 104 129 q 187 269 164 203 q 232 467 210 336 q 267 778 254 597 l 281 972 l 863 972 l 863 0 l 744 0 z "},"М":{"ha":1239,"x_min":146,"x_max":1093,"o":"m 146 0 l 146 972 l 265 972 l 631 474 l 981 972 l 1093 972 l 1093 0 l 975 0 l 975 786 l 631 303 l 613 303 l 264 782 l 264 0 l 146 0 z "},"Н":{"ha":1063,"x_min":146,"x_max":917,"o":"m 799 0 l 799 440 l 264 440 l 264 0 l 146 0 l 146 972 l 264 972 l 264 551 l 799 551 l 799 972 l 917 972 l 917 0 l 799 0 z "},"О":{"ha":1131,"x_min":69,"x_max":1061,"o":"m 69 486 q 210 842 69 699 q 565 986 350 986 q 920 846 779 986 q 1061 486 1061 706 q 919 128 1061 271 q 565 -14 778 -14 q 210 126 351 -14 q 69 486 69 267 m 194 486 q 301 209 194 321 q 565 97 408 97 q 833 208 729 97 q 936 486 936 319 q 829 765 936 654 q 565 875 722 875 q 300 765 406 875 q 194 486 194 656 z "},"П":{"ha":1056,"x_min":146,"x_max":910,"o":"m 792 0 l 792 861 l 264 861 l 264 0 l 146 0 l 146 972 l 910 972 l 910 0 l 792 0 z "},"Р":{"ha":829,"x_min":146,"x_max":760,"o":"m 264 0 l 146 0 l 146 972 q 270 974 172 972 q 400 975 368 975 q 676 890 592 975 q 760 674 760 804 q 669 457 760 546 q 410 368 578 368 q 264 374 329 368 l 264 0 m 411 864 q 264 861 356 864 l 264 486 q 406 479 343 479 q 574 531 513 479 q 635 675 635 583 q 579 814 635 764 q 411 864 524 864 z "},"С":{"ha":911,"x_min":69,"x_max":869,"o":"m 822 183 l 869 94 q 738 15 821 44 q 563 -14 654 -14 q 206 123 343 -14 q 69 486 69 260 q 201 844 69 701 q 554 986 332 986 q 850 892 740 986 l 796 803 q 556 875 699 875 q 296 767 397 875 q 194 486 194 658 q 299 205 194 313 q 574 97 404 97 q 822 183 717 97 z "},"Т":{"ha":826,"x_min":14,"x_max":813,"o":"m 14 861 l 14 972 l 813 972 l 813 861 l 472 861 l 472 0 l 354 0 l 354 861 l 14 861 z "},"У":{"ha":925,"x_min":21,"x_max":904,"o":"m 904 972 l 568 222 q 460 53 517 107 q 326 0 404 0 q 208 35 253 0 l 250 135 q 325 110 286 110 q 444 208 397 110 l 461 244 l 21 972 l 154 972 l 518 363 l 785 972 l 904 972 z "},"Ф":{"ha":1158,"x_min":56,"x_max":1103,"o":"m 518 -11 l 518 117 l 517 117 q 181 218 307 117 q 56 500 56 319 q 181 781 56 681 q 518 883 306 882 l 518 983 l 636 983 l 636 883 q 976 781 850 882 q 1103 500 1103 679 q 976 218 1103 319 q 640 117 849 117 l 636 117 l 636 -11 l 518 -11 m 638 774 l 636 774 l 636 225 l 639 225 q 888 295 799 225 q 978 500 978 365 q 888 701 978 629 q 638 774 799 774 m 181 500 q 271 296 181 367 q 517 225 361 225 l 518 225 l 518 774 q 270 701 360 774 q 181 500 181 628 z "},"Х":{"ha":922,"x_min":28,"x_max":894,"o":"m 882 972 l 538 494 l 894 0 l 754 0 l 460 404 l 167 0 l 28 0 l 385 494 l 43 972 l 182 972 l 464 583 l 742 972 l 882 972 z "},"Ц":{"ha":1076,"x_min":146,"x_max":1035,"o":"m 146 0 l 146 972 l 264 972 l 264 111 l 785 111 l 785 972 l 903 972 l 903 111 l 1035 111 l 1035 -181 l 924 -181 l 924 0 l 146 0 z "},"Ч":{"ha":903,"x_min":90,"x_max":757,"o":"m 757 972 l 757 0 l 639 0 l 639 425 q 382 350 535 350 q 172 425 254 350 q 90 660 90 500 l 90 972 l 208 972 l 208 692 q 263 517 208 572 q 413 461 318 461 q 639 535 531 461 l 639 972 l 757 972 z "},"Ш":{"ha":1382,"x_min":146,"x_max":1236,"o":"m 146 0 l 146 972 l 264 972 l 264 111 l 632 111 l 632 972 l 750 972 l 750 111 l 1118 111 l 1118 972 l 1236 972 l 1236 0 l 146 0 z "},"Щ":{"ha":1410,"x_min":146,"x_max":1368,"o":"m 146 0 l 146 972 l 264 972 l 264 111 l 632 111 l 632 972 l 750 972 l 750 111 l 1118 111 l 1118 972 l 1236 972 l 1236 111 l 1368 111 l 1368 -181 l 1257 -181 l 1257 0 l 146 0 z "},"Ъ":{"ha":929,"x_min":7,"x_max":860,"o":"m 7 861 l 7 972 l 357 972 l 357 611 q 493 618 444 618 q 768 539 676 618 q 860 318 860 460 q 756 81 860 165 q 467 -3 653 -3 q 343 -1 422 -3 q 239 0 264 0 l 239 861 l 7 861 m 485 507 q 357 499 429 507 l 357 113 q 481 108 469 108 q 669 160 603 108 q 735 315 735 213 q 669 458 735 408 q 485 507 604 507 z "},"Ы":{"ha":1174,"x_min":146,"x_max":1028,"o":"m 910 0 l 910 972 l 1028 972 l 1028 0 l 910 0 m 385 507 q 264 499 336 507 l 264 113 q 381 108 376 108 q 628 315 628 108 q 565 458 628 408 q 385 507 503 507 m 264 972 l 264 611 q 393 618 351 618 q 663 539 572 618 q 753 318 753 460 q 651 81 753 165 q 367 -3 549 -3 q 247 -1 322 -3 q 146 0 171 0 l 146 972 l 264 972 z "},"Ь":{"ha":836,"x_min":146,"x_max":767,"o":"m 392 507 q 264 499 338 507 l 264 113 q 388 108 376 108 q 576 160 510 108 q 642 315 642 213 q 576 458 642 408 q 392 507 511 507 m 264 972 l 264 611 q 400 618 351 618 q 675 539 583 618 q 767 318 767 460 q 663 81 767 165 q 374 -3 560 -3 q 250 -1 329 -3 q 146 0 171 0 l 146 972 l 264 972 z "},"Э":{"ha":940,"x_min":49,"x_max":871,"o":"m 268 440 l 268 551 l 749 551 q 625 789 731 703 q 356 875 519 875 q 110 796 213 875 l 64 885 q 383 986 179 986 q 736 850 601 986 q 871 489 871 714 q 735 126 871 265 q 372 -14 599 -14 q 49 88 175 -14 l 100 186 q 369 97 218 97 q 630 190 525 97 q 750 440 735 282 l 268 440 z "},"Ю":{"ha":1497,"x_min":146,"x_max":1428,"o":"m 146 0 l 146 972 l 264 972 l 264 551 l 474 551 q 624 864 494 742 q 946 986 754 986 q 1293 847 1158 986 q 1428 486 1428 707 q 1292 128 1428 269 q 946 -14 1157 -14 q 620 113 754 -14 q 472 440 486 239 l 264 440 l 264 0 l 146 0 m 596 486 q 697 209 596 321 q 949 97 797 97 q 1208 207 1113 97 q 1303 486 1303 317 q 1204 766 1303 657 q 949 875 1106 875 q 696 765 796 875 q 596 486 596 656 z "},"Я":{"ha":865,"x_min":35,"x_max":719,"o":"m 601 0 l 601 361 l 419 361 l 168 0 l 35 0 l 304 382 q 167 486 222 415 q 113 654 113 557 q 208 885 113 794 q 492 976 304 976 q 608 974 525 976 q 719 972 692 972 l 719 0 l 601 0 m 406 472 l 601 472 l 601 861 q 469 865 506 865 q 299 808 360 865 q 238 661 238 751 q 288 535 238 588 q 406 472 338 483 z "},"а":{"ha":639,"x_min":56,"x_max":553,"o":"m 133 493 l 104 582 q 313 639 196 639 q 497 575 442 639 q 553 383 553 511 l 553 0 l 447 0 l 447 81 q 247 -10 375 -10 q 108 42 161 -10 q 56 183 56 94 q 122 329 56 276 q 292 382 188 382 q 447 342 392 382 q 419 490 447 442 q 306 539 392 539 q 133 493 221 539 m 286 90 q 447 171 379 90 l 447 250 q 307 292 389 292 q 213 265 251 292 q 174 189 174 239 q 203 117 174 143 q 286 90 233 90 z "},"б":{"ha":767,"x_min":56,"x_max":707,"o":"m 583 986 l 643 899 q 563 836 610 853 q 446 808 515 819 q 325 774 376 797 q 167 472 183 710 l 169 472 q 269 578 200 538 q 417 618 338 618 q 628 533 550 618 q 707 307 707 449 q 617 80 707 174 q 386 -14 526 -14 q 144 90 233 -14 q 56 375 56 194 q 288 879 56 782 q 410 915 344 904 q 515 938 475 925 q 583 986 556 950 m 174 354 q 232 163 174 235 q 383 90 290 90 q 531 151 474 90 q 589 301 589 213 q 536 455 589 396 q 389 514 483 514 q 247 467 306 514 q 174 354 189 419 z "},"в":{"ha":686,"x_min":100,"x_max":617,"o":"m 100 0 l 100 625 q 199 628 122 625 q 326 631 276 631 q 596 469 596 631 q 561 374 596 414 q 471 326 526 335 l 471 324 q 617 176 617 297 q 329 -6 617 -6 q 207 -3 288 -6 q 100 0 126 0 m 344 281 l 211 281 l 211 89 q 339 85 311 85 q 499 185 499 85 q 344 281 499 281 m 335 540 q 211 536 294 540 l 211 350 l 351 350 q 443 376 408 350 q 478 447 478 403 q 335 540 478 540 z "},"г":{"ha":503,"x_min":100,"x_max":496,"o":"m 100 0 l 100 625 l 496 625 l 496 521 l 211 521 l 211 0 l 100 0 z "},"д":{"ha":749,"x_min":14,"x_max":728,"o":"m 14 -153 l 14 104 l 92 104 q 152 242 125 146 q 188 460 179 338 l 197 625 l 624 625 l 624 104 l 728 104 l 728 -153 l 624 -153 l 624 0 l 118 0 l 118 -153 l 14 -153 m 294 417 q 260 222 285 307 q 210 104 235 138 l 513 104 l 513 521 l 301 521 l 294 417 z "},"е":{"ha":722,"x_min":58,"x_max":671,"o":"m 593 156 l 628 68 q 393 -14 538 -14 q 150 75 242 -14 q 58 313 58 164 q 144 547 58 454 q 381 639 231 639 q 588 559 504 639 q 671 353 671 479 q 664 278 671 310 l 183 278 q 249 140 190 190 q 401 90 308 90 q 593 156 524 90 m 375 535 q 239 488 292 535 q 176 368 186 442 l 556 368 q 503 490 551 446 q 375 535 456 535 z "},"ж":{"ha":943,"x_min":21,"x_max":922,"o":"m 906 625 l 679 324 l 922 0 l 785 0 l 553 324 l 768 625 l 906 625 m 414 0 l 414 625 l 525 625 l 525 0 l 414 0 m 260 324 l 33 625 l 172 625 l 386 324 l 157 0 l 21 0 l 260 324 z "},"з":{"ha":642,"x_min":49,"x_max":572,"o":"m 307 -14 q 157 10 235 -14 q 49 71 79 35 l 106 154 q 195 105 143 124 q 290 86 247 86 q 408 115 363 86 q 454 189 454 143 q 422 249 454 228 q 332 269 389 269 l 226 269 l 226 360 l 325 360 q 403 385 372 360 q 433 449 433 411 q 397 515 433 490 q 300 539 361 539 q 113 469 200 539 l 69 556 q 174 617 107 594 q 317 639 242 639 q 490 594 429 639 q 551 471 551 549 q 442 324 551 363 l 442 321 q 538 272 504 314 q 572 174 572 231 q 499 37 572 88 q 307 -14 425 -14 z "},"и":{"ha":785,"x_min":100,"x_max":683,"o":"m 211 0 l 100 0 l 100 625 l 211 625 l 211 160 l 572 625 l 683 625 l 683 0 l 572 0 l 572 465 l 211 0 z "},"й":{"ha":785,"x_min":100,"x_max":683,"o":"m 211 0 l 100 0 l 100 625 l 211 625 l 211 160 l 572 625 l 683 625 l 683 0 l 572 0 l 572 465 l 211 0 m 189 944 l 293 944 q 400 835 301 835 q 501 944 493 835 l 606 944 q 549 806 606 861 q 400 750 492 750 q 244 804 300 750 q 189 944 189 858 z "},"к":{"ha":692,"x_min":100,"x_max":674,"o":"m 647 625 l 374 326 l 674 0 l 519 0 l 238 319 l 501 625 l 647 625 m 100 0 l 100 625 l 211 625 l 211 0 l 100 0 z "},"л":{"ha":739,"x_min":42,"x_max":639,"o":"m 528 0 l 528 514 l 308 514 l 301 408 q 276 228 293 304 q 238 108 260 153 q 186 36 217 63 q 124 1 156 10 q 50 -8 92 -8 l 42 100 q 74 105 58 99 q 110 132 90 111 q 147 188 131 153 q 176 285 163 222 q 193 431 189 349 l 204 625 l 639 625 l 639 0 l 528 0 z "},"м":{"ha":869,"x_min":100,"x_max":768,"o":"m 100 0 l 100 625 l 201 625 l 442 315 l 669 625 l 768 625 l 768 0 l 657 0 l 657 456 l 440 165 l 436 165 l 211 456 l 211 0 l 100 0 z "},"н":{"ha":771,"x_min":100,"x_max":669,"o":"m 558 0 l 558 264 l 211 264 l 211 0 l 100 0 l 100 625 l 211 625 l 211 368 l 558 368 l 558 625 l 669 625 l 669 0 l 558 0 z "},"о":{"ha":785,"x_min":58,"x_max":725,"o":"m 151 78 q 105 125 151 78 q 58 313 58 171 q 151 547 58 454 q 392 639 243 639 q 633 547 540 639 q 725 313 725 454 q 633 78 725 171 q 392 -14 540 -14 q 151 78 243 -14 m 176 313 q 237 153 176 215 q 392 90 297 90 q 547 152 486 90 q 607 313 607 214 q 547 472 607 410 q 392 535 486 535 q 238 473 299 535 q 176 313 176 411 z "},"п":{"ha":764,"x_min":100,"x_max":663,"o":"m 551 0 l 551 521 l 211 521 l 211 0 l 100 0 l 100 625 l 663 625 l 663 0 l 551 0 z "},"р":{"ha":772,"x_min":100,"x_max":713,"o":"m 100 -278 l 100 625 l 211 625 l 211 551 q 302 615 244 590 q 424 639 360 639 q 634 551 556 639 q 713 322 713 463 q 622 82 713 178 q 388 -14 532 -14 q 211 29 276 -14 l 211 -278 l 100 -278 m 392 535 q 211 449 281 535 l 211 139 q 378 90 283 90 q 535 154 476 90 q 594 318 594 218 q 540 475 594 415 q 392 535 486 535 z "},"с":{"ha":678,"x_min":58,"x_max":633,"o":"m 581 171 l 633 90 q 531 13 594 40 q 393 -14 467 -14 q 151 76 243 -14 q 58 313 58 165 q 149 544 58 450 q 375 639 239 639 q 621 557 539 639 l 569 469 q 390 535 499 535 q 240 472 303 535 q 176 313 176 408 q 241 151 176 213 q 401 90 306 90 q 581 171 510 90 z "},"т":{"ha":611,"x_min":21,"x_max":590,"o":"m 21 514 l 21 625 l 590 625 l 590 514 l 361 514 l 361 0 l 250 0 l 250 514 l 21 514 z "},"у":{"ha":682,"x_min":14,"x_max":668,"o":"m 668 625 l 418 0 q 300 -220 351 -162 q 179 -278 249 -278 q 61 -239 119 -278 l 97 -154 q 167 -175 142 -175 q 237 -142 206 -175 q 300 -33 268 -108 l 314 0 l 14 625 l 147 625 l 331 228 q 368 133 336 215 q 397 229 381 179 l 542 625 l 668 625 z "},"ф":{"ha":938,"x_min":58,"x_max":878,"o":"m 413 -278 l 413 -14 l 397 -14 q 149 78 240 -14 q 58 313 58 169 q 150 543 58 447 q 396 639 242 639 l 413 639 l 413 972 l 524 972 l 524 639 l 542 639 q 786 546 694 639 q 878 313 878 453 q 790 77 878 168 q 542 -14 701 -14 l 524 -14 l 524 -278 l 413 -278 m 176 313 q 236 151 176 213 q 401 90 296 90 l 413 90 l 413 535 l 394 535 q 234 472 292 535 q 176 313 176 408 m 542 535 l 524 535 l 524 90 l 536 90 q 701 151 643 90 q 760 313 760 213 q 701 469 760 404 q 542 535 643 535 z "},"х":{"ha":704,"x_min":35,"x_max":669,"o":"m 656 625 l 432 324 l 669 0 l 533 0 l 350 253 l 164 0 l 35 0 l 271 318 l 49 625 l 185 625 l 354 389 l 526 625 l 656 625 z "},"ц":{"ha":781,"x_min":100,"x_max":760,"o":"m 100 0 l 100 625 l 211 625 l 211 104 l 544 104 l 544 625 l 656 625 l 656 104 l 760 104 l 760 -153 l 656 -153 l 656 0 l 100 0 z "},"ч":{"ha":669,"x_min":63,"x_max":569,"o":"m 569 625 l 569 0 l 458 0 l 458 243 q 285 197 386 197 q 63 436 63 197 l 63 625 l 181 625 l 181 449 q 315 301 181 301 q 458 340 403 301 l 458 625 l 569 625 z "},"ш":{"ha":993,"x_min":100,"x_max":892,"o":"m 100 0 l 100 625 l 211 625 l 211 104 l 440 104 l 440 625 l 551 625 l 551 104 l 781 104 l 781 625 l 892 625 l 892 0 l 100 0 z "},"щ":{"ha":1017,"x_min":100,"x_max":996,"o":"m 100 0 l 100 625 l 211 625 l 211 104 l 440 104 l 440 625 l 551 625 l 551 104 l 781 104 l 781 625 l 892 625 l 892 104 l 996 104 l 996 -153 l 892 -153 l 892 0 l 100 0 z "},"ъ":{"ha":707,"x_min":7,"x_max":658,"o":"m 7 521 l 7 625 l 297 625 l 297 438 l 411 438 q 601 377 544 438 q 658 222 658 317 q 596 64 658 128 q 397 0 533 0 l 186 0 l 186 521 l 7 521 m 390 333 l 297 333 l 297 104 l 389 104 q 540 218 540 104 q 390 333 540 333 z "},"ы":{"ha":892,"x_min":100,"x_max":792,"o":"m 100 0 l 100 625 l 211 625 l 211 438 l 314 438 q 504 377 447 438 q 561 222 561 317 q 499 64 561 128 q 301 0 438 0 l 100 0 m 681 0 l 681 625 l 792 625 l 792 0 l 681 0 m 293 333 l 211 333 l 211 104 l 292 104 q 408 133 372 104 q 443 218 443 161 q 293 333 443 333 z "},"ь":{"ha":621,"x_min":100,"x_max":572,"o":"m 100 0 l 100 625 l 211 625 l 211 438 l 325 438 q 515 377 458 438 q 572 222 572 317 q 510 64 572 128 q 311 0 447 0 l 100 0 m 304 333 l 211 333 l 211 104 l 303 104 q 454 218 454 104 q 304 333 454 333 z "},"э":{"ha":679,"x_min":49,"x_max":619,"o":"m 197 272 l 197 363 l 504 363 q 433 491 492 447 q 288 535 375 535 q 96 467 172 535 l 49 550 q 157 615 90 592 q 286 639 224 639 q 527 550 435 639 q 619 313 619 461 q 529 81 619 175 q 303 -14 439 -14 q 51 65 132 -14 l 104 147 q 296 90 167 90 q 439 138 383 90 q 506 272 494 186 l 197 272 z "},"ю":{"ha":1056,"x_min":100,"x_max":996,"o":"m 100 0 l 100 625 l 218 625 l 218 375 l 354 375 q 458 566 374 493 q 669 639 543 639 q 906 547 815 639 q 996 313 996 454 q 905 78 996 171 q 669 -14 814 -14 q 453 63 539 -14 q 353 264 368 140 l 218 264 l 218 0 l 100 0 m 475 313 q 531 156 475 215 q 674 97 586 97 q 816 156 761 97 q 871 313 871 215 q 817 468 871 408 q 674 528 763 528 q 531 468 586 528 q 475 313 475 408 z "},"я":{"ha":669,"x_min":49,"x_max":568,"o":"m 374 625 l 568 625 l 568 0 l 457 0 l 457 208 l 336 208 l 183 0 l 49 0 l 229 236 q 135 297 175 249 q 94 417 94 344 q 161 566 94 507 q 374 625 228 625 m 213 414 q 249 340 213 368 q 329 313 285 313 l 457 313 l 457 521 l 356 521 q 247 491 282 521 q 213 414 213 461 z "},"ё":{"ha":722,"x_min":58,"x_max":671,"o":"m 593 156 l 628 68 q 393 -14 538 -14 q 150 75 242 -14 q 58 313 58 164 q 144 547 58 454 q 381 639 231 639 q 588 559 504 639 q 671 353 671 479 q 664 278 671 310 l 183 278 q 249 140 190 190 q 401 90 308 90 q 593 156 524 90 m 375 535 q 239 488 292 535 q 176 368 186 442 l 556 368 q 503 490 551 446 q 375 535 456 535 m 168 847 q 187 894 168 876 q 233 911 206 911 q 276 893 257 911 q 294 847 294 875 q 276 797 294 815 q 233 778 258 778 q 187 797 206 778 q 168 847 168 815 m 450 847 q 469 893 450 875 q 517 911 489 911 q 559 893 540 911 q 578 847 578 875 q 560 797 578 815 q 517 778 542 778 q 469 797 489 778 q 450 847 450 815 z "},"ђ":{"ha":828,"x_min":7,"x_max":763,"o":"m 7 639 l 7 729 l 188 729 l 188 972 l 299 972 l 299 729 l 549 729 l 549 639 l 299 639 l 299 428 q 390 488 335 464 q 503 511 444 511 q 763 238 763 511 q 699 -69 763 69 q 522 -278 635 -207 l 401 -278 q 588 -59 526 -189 q 650 210 650 71 q 475 407 650 407 q 376 385 424 407 q 299 328 329 363 l 299 0 l 188 0 l 188 639 l 7 639 z "},"ѓ":{"ha":503,"x_min":100,"x_max":496,"o":"m 100 0 l 100 625 l 496 625 l 496 521 l 211 521 l 211 0 l 100 0 m 478 936 l 311 738 l 244 785 l 392 1003 l 478 936 z "},"є":{"ha":679,"x_min":58,"x_max":629,"o":"m 481 363 l 481 272 l 172 272 q 247 137 185 183 q 399 90 310 90 q 582 147 519 90 l 628 65 q 383 -14 544 -14 q 149 78 240 -14 q 58 313 58 171 q 151 550 58 461 q 393 639 243 639 q 522 615 456 639 q 629 550 588 592 l 583 467 q 390 535 507 535 q 245 490 304 535 q 172 363 186 446 l 481 363 z "},"ѕ":{"ha":597,"x_min":63,"x_max":535,"o":"m 417 169 q 382 226 417 204 q 298 262 347 247 q 199 296 249 276 q 114 357 149 315 q 79 463 79 399 q 138 591 79 543 q 292 639 197 639 q 507 565 431 639 l 454 481 q 297 542 386 542 q 224 519 251 542 q 197 464 197 496 q 232 405 197 428 q 316 367 267 382 q 415 334 365 353 q 500 276 465 315 q 535 175 535 236 q 465 34 535 82 q 293 -14 396 -14 q 153 17 221 -14 q 63 83 86 47 l 125 163 q 206 107 153 131 q 306 83 260 83 q 385 106 353 83 q 417 169 417 129 z "},"і":{"ha":372,"x_min":117,"x_max":257,"o":"m 131 0 l 131 625 l 242 625 l 242 0 l 131 0 m 117 860 q 138 908 117 889 q 189 926 158 926 q 237 908 217 926 q 257 860 257 889 q 237 807 257 826 q 189 788 217 788 q 138 807 158 788 q 117 860 117 826 z "},"ї":{"ha":407,"x_min":49,"x_max":358,"o":"m 49 844 q 67 886 49 869 q 110 903 85 903 q 149 886 132 903 q 165 844 165 869 q 149 801 165 818 q 110 783 132 783 q 66 800 83 783 q 49 844 49 817 m 243 844 q 260 886 243 869 q 303 903 278 903 q 342 886 325 903 q 358 844 358 869 q 342 800 358 817 q 303 783 325 783 q 260 800 278 783 q 243 844 243 817 m 147 0 l 147 625 l 258 625 l 258 0 l 147 0 z "},"ј":{"ha":379,"x_min":-87,"x_max":261,"o":"m 247 625 l 247 -46 q 51 -289 247 -289 q -87 -249 -36 -289 l -56 -160 q 26 -185 -15 -185 q 136 -37 136 -185 l 136 625 l 247 625 m 121 860 q 142 908 121 889 q 193 926 163 926 q 241 908 221 926 q 261 860 261 889 q 241 807 261 826 q 193 788 221 788 q 142 807 163 788 q 121 860 121 826 z "},"љ":{"ha":1031,"x_min":42,"x_max":982,"o":"m 528 0 l 528 514 l 308 514 l 301 408 q 276 228 293 304 q 238 108 260 153 q 186 36 217 63 q 124 1 156 10 q 50 -8 92 -8 l 42 100 q 74 105 58 99 q 110 132 90 111 q 147 188 131 153 q 176 285 163 222 q 193 431 189 349 l 204 625 l 639 625 l 639 438 l 735 438 q 925 377 868 438 q 982 222 982 317 q 919 64 982 128 q 721 0 857 0 l 528 0 m 714 333 l 639 333 l 639 104 l 713 104 q 864 218 864 104 q 714 333 864 333 z "},"њ":{"ha":1061,"x_min":100,"x_max":1013,"o":"m 100 0 l 100 625 l 211 625 l 211 382 l 558 382 l 558 625 l 669 625 l 669 424 l 765 424 q 1013 215 1013 424 q 951 61 1013 122 q 753 0 889 0 l 558 0 l 558 278 l 211 278 l 211 0 l 100 0 m 744 319 l 669 319 l 669 104 l 743 104 q 860 130 825 104 q 894 211 894 156 q 859 294 894 268 q 744 319 824 319 z "},"ћ":{"ha":828,"x_min":7,"x_max":763,"o":"m 7 639 l 7 729 l 188 729 l 188 972 l 299 972 l 299 729 l 549 729 l 549 639 l 299 639 l 299 428 q 390 488 335 464 q 503 511 444 511 q 763 233 763 511 l 763 0 l 651 0 l 651 218 q 475 407 651 407 q 376 385 424 407 q 299 328 329 363 l 299 0 l 188 0 l 188 639 l 7 639 z "},"ќ":{"ha":692,"x_min":100,"x_max":674,"o":"m 647 625 l 374 326 l 674 0 l 519 0 l 238 319 l 501 625 l 647 625 m 100 0 l 100 625 l 211 625 l 211 0 l 100 0 m 507 936 l 340 738 l 274 785 l 421 1003 l 507 936 z "},"ў":{"ha":682,"x_min":14,"x_max":668,"o":"m 668 625 l 418 0 q 300 -220 351 -162 q 179 -278 249 -278 q 61 -239 119 -278 l 97 -154 q 167 -175 142 -175 q 237 -142 206 -175 q 300 -33 268 -108 l 314 0 l 14 625 l 147 625 l 331 228 q 368 133 336 215 q 397 229 381 179 l 542 625 l 668 625 m 140 944 l 244 944 q 351 835 253 835 q 453 944 444 835 l 557 944 q 500 806 557 861 q 351 750 443 750 q 196 804 251 750 q 140 944 140 858 z "},"џ":{"ha":750,"x_min":100,"x_max":649,"o":"m 100 0 l 100 625 l 211 625 l 211 104 l 538 104 l 538 625 l 649 625 l 649 0 l 426 0 l 426 -174 l 322 -174 l 322 0 l 100 0 z "},"Ѣ":{"ha":888,"x_min":14,"x_max":818,"o":"m 315 972 l 315 833 l 533 833 l 533 722 l 315 722 l 315 583 q 451 590 403 590 q 818 304 818 590 q 716 75 818 153 q 425 -3 614 -3 q 301 -1 381 -3 q 197 0 222 0 l 197 722 l 14 722 l 14 833 l 197 833 l 197 972 l 315 972 m 443 479 q 315 471 389 479 l 315 113 q 439 108 428 108 q 693 301 693 108 q 443 479 693 479 z "},"ѣ":{"ha":703,"x_min":7,"x_max":654,"o":"m 7 521 l 7 625 l 186 625 l 186 972 l 297 972 l 297 625 l 506 625 l 506 521 l 297 521 l 297 396 l 407 396 q 654 193 654 396 q 394 0 654 0 l 186 0 l 186 521 l 7 521 m 406 292 l 297 292 l 297 104 l 406 104 q 506 128 476 104 q 536 199 536 151 q 406 292 536 292 z "},"Ѳ":{"ha":1131,"x_min":69,"x_max":1061,"o":"m 69 486 q 210 842 69 699 q 565 986 350 986 q 920 846 779 986 q 1061 486 1061 706 q 919 128 1061 271 q 565 -14 778 -14 q 210 126 351 -14 q 69 486 69 267 m 399 496 q 201 410 297 496 q 326 185 225 272 q 565 97 428 97 q 821 196 719 97 q 933 449 922 294 q 743 383 836 383 q 567 440 669 383 q 399 496 464 496 m 751 488 q 846 510 796 488 q 929 561 896 532 q 804 788 906 700 q 565 875 703 875 q 313 778 417 875 q 196 526 210 681 q 400 600 301 600 q 579 544 475 600 q 751 488 683 488 z "},"ѳ":{"ha":799,"x_min":58,"x_max":739,"o":"m 152 78 q 105 124 152 78 q 58 313 58 169 q 152 547 58 456 q 399 639 246 639 q 645 547 551 639 q 739 313 739 456 q 645 78 739 169 q 399 -14 551 -14 q 152 78 246 -14 m 282 315 q 172 264 222 315 q 249 126 186 176 q 399 76 313 76 q 553 130 489 76 q 626 279 617 183 q 513 233 571 233 q 392 274 464 233 q 282 315 319 315 m 526 310 q 625 354 582 310 q 549 497 613 446 q 399 549 486 549 q 245 494 310 549 q 171 343 181 439 q 288 392 229 392 q 415 351 338 392 q 526 310 492 310 z "},"Ѵ":{"ha":915,"x_min":7,"x_max":943,"o":"m 760 700 l 504 -6 l 417 -6 l 7 972 l 133 972 l 464 174 l 669 767 q 776 956 719 913 q 943 969 833 999 l 925 865 q 833 851 864 888 q 760 700 801 815 z "},"ѵ":{"ha":674,"x_min":7,"x_max":701,"o":"m 546 400 l 385 -6 l 304 -6 l 7 625 l 138 625 l 296 288 q 347 151 319 235 q 393 290 368 218 l 461 468 q 554 617 506 583 q 701 621 603 650 l 683 518 q 609 512 636 540 q 546 400 582 483 z "},"Ґ":{"ha":701,"x_min":146,"x_max":688,"o":"m 146 0 l 146 972 l 576 972 l 576 1146 l 688 1146 l 688 861 l 264 861 l 264 0 l 146 0 z "},"ґ":{"ha":503,"x_min":100,"x_max":496,"o":"m 100 0 l 100 625 l 392 625 l 392 771 l 496 771 l 496 521 l 211 521 l 211 0 l 100 0 z "},"ẞ":{"ha":894,"x_min":146,"x_max":818,"o":"m 693 240 q 675 310 693 275 q 634 374 657 346 q 565 438 611 401 q 487 497 518 475 q 396 557 456 518 l 583 822 q 442 875 533 875 q 313 826 361 875 q 264 678 264 778 l 264 -3 l 146 -3 l 146 675 q 228 909 146 832 q 447 986 310 986 q 728 850 613 986 l 538 593 q 818 224 818 419 q 745 53 818 119 q 581 -14 672 -14 q 357 72 451 -14 l 410 164 q 453 129 438 140 q 496 108 468 118 q 554 97 524 97 q 651 136 610 97 q 693 240 693 175 z "},"‐":{"ha":540,"x_min":104,"x_max":436,"o":"m 104 326 l 104 431 l 436 431 l 436 326 l 104 326 z "},"‑":{"ha":540,"x_min":104,"x_max":436,"o":"m 104 326 l 104 431 l 436 431 l 436 326 l 104 326 z "},"‒":{"ha":825,"x_min":125,"x_max":700,"o":"m 125 443 l 125 540 l 700 540 l 700 443 l 125 443 z "},"–":{"ha":825,"x_min":125,"x_max":700,"o":"m 125 326 l 125 424 l 700 424 l 700 326 l 125 326 z "},"—":{"ha":1117,"x_min":125,"x_max":992,"o":"m 125 326 l 125 424 l 992 424 l 992 326 l 125 326 z "},"―":{"ha":1117,"x_min":125,"x_max":992,"o":"m 125 326 l 125 424 l 992 424 l 992 326 l 125 326 z "},"‘":{"ha":332,"x_min":90,"x_max":260,"o":"m 224 767 l 131 710 q 90 824 90 754 q 208 1032 90 965 l 260 982 q 194 849 194 938 q 224 767 194 796 z "},"’":{"ha":332,"x_min":72,"x_max":242,"o":"m 108 972 l 201 1028 q 242 914 242 985 q 124 707 242 774 l 72 756 q 138 890 138 801 q 108 972 138 943 z "},"‚":{"ha":332,"x_min":72,"x_max":242,"o":"m 108 49 l 201 104 q 242 -10 242 61 q 124 -217 242 -150 l 72 -168 q 138 -33 138 -122 q 108 49 138 19 z "},"“":{"ha":533,"x_min":90,"x_max":461,"o":"m 425 767 l 332 710 q 292 824 292 754 q 410 1032 292 965 l 461 982 q 396 849 396 938 q 425 767 396 796 m 224 767 l 131 710 q 90 824 90 754 q 208 1032 90 965 l 260 982 q 194 849 194 938 q 224 767 194 796 z "},"”":{"ha":533,"x_min":72,"x_max":443,"o":"m 310 972 l 403 1028 q 443 914 443 985 q 325 707 443 774 l 274 756 q 339 890 339 801 q 310 972 339 943 m 108 972 l 201 1028 q 242 914 242 985 q 124 707 242 774 l 72 756 q 138 890 138 801 q 108 972 138 943 z "},"„":{"ha":533,"x_min":72,"x_max":443,"o":"m 310 49 l 403 104 q 443 -10 443 61 q 325 -217 443 -150 l 274 -168 q 339 -33 339 -122 q 310 49 339 19 m 108 49 l 201 104 q 242 -10 242 61 q 124 -217 242 -150 l 72 -168 q 138 -33 138 -122 q 108 49 138 19 z "},"†":{"ha":638,"x_min":56,"x_max":582,"o":"m 56 569 l 56 667 l 267 667 l 267 972 l 371 972 l 371 667 l 582 667 l 582 569 l 371 569 l 371 -139 l 267 -139 l 267 569 l 56 569 z "},"‡":{"ha":638,"x_min":56,"x_max":582,"o":"m 56 569 l 56 667 l 267 667 l 267 972 l 371 972 l 371 667 l 582 667 l 582 569 l 371 569 l 371 306 l 582 306 l 582 208 l 371 208 l 371 -139 l 267 -139 l 267 208 l 56 208 l 56 306 l 267 306 l 267 569 l 56 569 z "},"•":{"ha":319,"x_min":42,"x_max":278,"o":"m 76 282 q 59 299 76 282 q 42 365 42 317 q 76 449 42 414 q 158 483 111 483 q 242 449 207 483 q 278 365 278 414 q 242 282 278 317 q 158 247 207 247 q 76 282 111 247 z "},"…":{"ha":1181,"x_min":97,"x_max":1083,"o":"m 931 75 q 953 126 931 104 q 1010 149 975 149 q 1062 126 1040 149 q 1083 75 1083 103 q 1063 19 1083 43 q 1010 -4 1042 -4 q 953 19 975 -4 q 931 75 931 43 m 514 75 q 536 126 514 104 q 593 149 558 149 q 645 126 624 149 q 667 75 667 103 q 646 19 667 43 q 593 -4 625 -4 q 536 19 558 -4 q 514 75 514 43 m 97 75 q 119 126 97 104 q 176 149 142 149 q 228 126 207 149 q 250 75 250 103 q 229 19 250 43 q 176 -4 208 -4 q 119 19 142 -4 q 97 75 97 43 z "},"‰":{"ha":1806,"x_min":63,"x_max":1743,"o":"m 1307 58 q 1271 91 1307 58 q 1235 228 1235 124 q 1306 397 1235 332 q 1489 463 1378 463 q 1672 397 1600 463 q 1743 228 1743 332 q 1671 58 1743 124 q 1489 -8 1599 -8 q 1307 58 1379 -8 m 1339 228 q 1383 122 1339 163 q 1489 82 1428 82 q 1595 122 1551 82 q 1639 228 1639 163 q 1595 332 1639 292 q 1489 372 1551 372 q 1383 332 1426 372 q 1339 228 1339 292 m 221 32 l 935 986 l 999 939 l 286 -14 l 221 32 m 135 576 q 99 609 135 576 q 63 746 63 642 q 134 915 63 850 q 317 981 206 981 q 499 915 428 981 q 571 746 571 850 q 499 576 571 642 q 317 510 426 510 q 135 576 207 510 m 167 746 q 211 640 167 681 q 317 600 256 600 q 423 640 379 600 q 467 746 467 681 q 423 850 467 810 q 317 890 379 890 q 210 850 254 890 q 167 746 167 810 m 719 58 q 683 91 719 58 q 647 228 647 124 q 719 397 647 332 q 901 463 790 463 q 1084 397 1013 463 q 1156 228 1156 332 q 1083 58 1156 124 q 901 -8 1011 -8 q 719 58 792 -8 m 751 228 q 796 122 751 163 q 901 82 840 82 q 1008 122 964 82 q 1051 228 1051 163 q 1008 332 1051 292 q 901 372 964 372 q 795 332 839 372 q 751 228 751 292 z "},"‹":{"ha":472,"x_min":63,"x_max":396,"o":"m 319 42 l 63 344 l 63 350 l 324 650 l 396 586 l 190 347 l 394 107 l 319 42 z "},"›":{"ha":472,"x_min":76,"x_max":410,"o":"m 410 344 l 153 42 l 78 107 l 282 347 l 76 586 l 149 650 l 410 350 l 410 344 z "},"⁄":{"ha":278,"x_min":-250,"x_max":528,"o":"m -250 32 l 464 986 l 528 939 l -185 -14 l -250 32 z "},"⁰":{"ha":533,"x_min":56,"x_max":478,"o":"m 56 729 q 110 908 56 839 q 267 978 165 978 q 422 907 367 978 q 478 729 478 836 q 423 551 478 621 q 268 481 368 481 q 111 549 167 481 q 56 729 56 618 m 160 729 q 188 606 160 647 q 268 564 217 564 q 374 729 374 564 q 267 894 374 894 q 160 729 160 894 z "},"⁴":{"ha":490,"x_min":21,"x_max":463,"o":"m 290 486 l 290 596 l 21 596 l 21 660 l 254 972 l 347 972 l 121 672 l 290 672 l 290 799 l 381 799 l 381 672 l 463 672 l 463 596 l 381 596 l 381 486 l 290 486 z "},"⁵":{"ha":468,"x_min":31,"x_max":417,"o":"m 90 711 l 121 972 l 410 972 l 410 896 l 189 896 l 171 782 q 239 792 203 792 q 368 752 319 792 q 417 644 417 713 q 362 522 417 567 q 221 478 307 478 q 31 558 82 478 l 82 611 q 204 554 124 554 q 285 578 256 554 q 314 640 314 601 q 280 699 314 676 q 186 722 246 722 q 90 711 121 722 z "},"⁶":{"ha":528,"x_min":51,"x_max":479,"o":"m 51 667 q 149 882 51 793 q 383 979 246 971 l 403 913 q 244 852 311 901 q 157 725 178 803 q 301 788 207 788 q 431 747 382 788 q 479 639 479 706 q 421 524 479 569 q 278 478 363 478 q 110 531 169 478 q 51 667 51 583 m 156 654 q 189 584 157 614 q 278 554 221 554 q 347 578 319 554 q 375 636 375 603 q 348 695 375 672 q 272 718 321 718 q 201 699 231 718 q 156 654 171 679 z "},"⁷":{"ha":435,"x_min":24,"x_max":410,"o":"m 24 889 l 24 972 l 410 972 l 410 914 l 192 486 l 86 486 l 297 889 l 24 889 z "},"⁸":{"ha":546,"x_min":63,"x_max":483,"o":"m 264 771 l 283 771 q 343 790 318 771 q 368 836 368 808 q 341 885 368 867 q 272 903 314 903 q 205 885 232 903 q 178 836 178 867 q 203 790 178 808 q 264 771 229 771 m 282 701 l 267 701 q 191 681 222 701 q 160 629 160 660 q 190 575 160 596 q 272 554 221 554 q 354 575 322 554 q 386 629 386 596 q 357 682 386 663 q 282 701 328 701 m 425 515 q 396 497 425 515 q 274 478 367 478 q 122 515 181 478 q 63 613 63 551 q 90 690 63 658 q 167 735 118 722 l 167 738 q 104 780 128 750 q 81 853 81 810 q 135 944 81 910 q 272 979 189 979 q 411 944 357 979 q 465 853 465 910 q 442 784 465 815 q 374 738 418 753 l 374 736 q 453 697 422 728 q 483 619 483 665 q 425 515 483 553 z "},"⁹":{"ha":528,"x_min":49,"x_max":476,"o":"m 476 779 q 382 565 476 647 q 138 478 288 483 l 124 547 q 297 609 228 558 q 371 732 367 660 q 226 663 324 663 q 98 706 147 663 q 49 815 49 750 q 106 933 49 888 q 250 979 164 979 q 418 925 360 979 q 476 779 476 871 m 372 797 q 338 873 369 843 q 250 903 307 903 q 181 879 208 903 q 153 822 153 856 q 180 758 153 785 q 256 732 207 732 q 372 797 336 732 z "},"⁺":{"ha":500,"x_min":63,"x_max":438,"o":"m 63 697 l 63 774 l 210 774 l 210 919 l 286 919 l 286 774 l 438 774 l 438 697 l 286 697 l 286 551 l 210 551 l 210 697 l 63 697 z "},"⁻":{"ha":500,"x_min":63,"x_max":438,"o":"m 63 697 l 63 774 l 438 774 l 438 697 l 63 697 z "},"⁼":{"ha":500,"x_min":63,"x_max":438,"o":"m 63 600 l 63 676 l 438 676 l 438 600 l 63 600 m 63 794 l 63 871 l 438 871 l 438 794 l 63 794 z "},"⁽":{"ha":294,"x_min":42,"x_max":281,"o":"m 281 483 l 224 426 q 85 558 129 476 q 42 726 42 639 q 225 1025 42 908 l 276 969 q 139 726 139 876 q 281 483 139 572 z "},"⁾":{"ha":294,"x_min":14,"x_max":253,"o":"m 14 968 l 71 1025 q 209 894 165 975 q 253 725 253 813 q 69 426 253 542 l 18 482 q 156 725 156 574 q 14 968 156 876 z "},"₀":{"ha":533,"x_min":56,"x_max":478,"o":"m 56 243 q 110 422 56 353 q 267 492 165 492 q 422 421 367 492 q 478 243 478 350 q 423 65 478 135 q 268 -6 368 -6 q 111 63 167 -6 q 56 243 56 132 m 160 243 q 188 119 160 161 q 268 78 217 78 q 374 243 374 78 q 267 408 374 408 q 160 243 160 408 z "},"₁":{"ha":350,"x_min":31,"x_max":246,"o":"m 31 389 l 176 488 l 246 488 l 246 0 l 149 0 l 149 374 l 68 322 l 31 389 z "},"₂":{"ha":485,"x_min":49,"x_max":443,"o":"m 49 0 l 49 71 q 83 94 54 75 q 124 120 113 113 q 162 147 135 128 q 201 177 189 167 q 236 206 214 188 q 269 238 258 225 q 293 269 281 251 q 310 301 306 286 q 315 332 315 317 q 293 387 315 365 q 231 408 271 408 q 168 385 196 408 q 135 328 140 363 l 53 357 q 115 456 63 419 q 240 492 167 492 q 372 450 326 492 q 418 343 418 408 q 390 254 418 299 q 319 175 363 210 q 242 119 275 140 q 176 83 208 99 l 443 83 l 443 0 l 49 0 z "},"₃":{"ha":486,"x_min":35,"x_max":431,"o":"m 235 -8 q 35 89 88 -8 l 92 142 q 144 91 108 110 q 219 72 181 72 q 298 93 269 72 q 326 146 326 114 q 301 193 326 175 q 228 211 275 211 l 181 211 l 181 281 l 222 281 q 283 301 258 281 q 308 351 308 321 q 285 397 308 381 q 221 414 261 414 q 97 351 140 414 l 50 404 q 240 493 100 493 q 365 460 318 493 q 413 371 413 428 q 385 297 413 328 q 310 254 358 267 l 310 253 q 399 215 367 249 q 431 138 431 182 q 374 32 431 72 q 235 -8 318 -8 z "},"₄":{"ha":490,"x_min":21,"x_max":463,"o":"m 290 0 l 290 110 l 21 110 l 21 174 l 254 486 l 347 486 l 121 186 l 290 186 l 290 313 l 381 313 l 381 186 l 463 186 l 463 110 l 381 110 l 381 0 l 290 0 z "},"₅":{"ha":468,"x_min":31,"x_max":417,"o":"m 90 225 l 121 486 l 410 486 l 410 410 l 189 410 l 171 296 q 239 306 203 306 q 368 266 319 306 q 417 158 417 226 q 362 36 417 81 q 221 -8 307 -8 q 31 72 82 -8 l 82 125 q 204 68 124 68 q 285 92 256 68 q 314 154 314 115 q 280 213 314 190 q 186 236 246 236 q 90 225 121 236 z "},"₆":{"ha":528,"x_min":51,"x_max":479,"o":"m 51 181 q 149 396 51 307 q 383 493 246 485 l 403 426 q 244 366 311 415 q 157 239 178 317 q 301 301 207 301 q 431 260 382 301 q 479 153 479 219 q 421 38 479 83 q 278 -8 363 -8 q 110 44 169 -8 q 51 181 51 97 m 156 168 q 189 98 157 128 q 278 68 221 68 q 347 92 319 68 q 375 150 375 117 q 348 209 375 186 q 272 232 321 232 q 201 213 231 232 q 156 168 171 193 z "},"₇":{"ha":435,"x_min":24,"x_max":410,"o":"m 24 403 l 24 486 l 410 486 l 410 428 l 192 0 l 86 0 l 297 403 l 24 403 z "},"₈":{"ha":546,"x_min":63,"x_max":483,"o":"m 264 285 l 283 285 q 343 303 318 285 q 368 350 368 322 q 341 399 368 381 q 272 417 314 417 q 205 399 232 417 q 178 350 178 381 q 203 303 178 322 q 264 285 229 285 m 282 215 l 267 215 q 191 194 222 215 q 160 143 160 174 q 190 89 160 110 q 272 68 221 68 q 354 89 322 68 q 386 143 386 110 q 357 196 386 176 q 282 215 328 215 m 425 29 q 396 10 425 29 q 274 -8 367 -8 q 122 28 181 -8 q 63 126 63 65 q 90 204 63 172 q 167 249 118 236 l 167 251 q 104 294 128 264 q 81 367 81 324 q 135 458 81 424 q 272 493 189 493 q 411 458 357 493 q 465 367 465 424 q 442 298 465 329 q 374 251 418 267 l 374 250 q 453 210 422 242 q 483 133 483 179 q 425 29 483 67 z "},"₉":{"ha":528,"x_min":49,"x_max":476,"o":"m 476 293 q 382 79 476 161 q 138 -8 288 -3 l 124 61 q 297 123 228 72 q 371 246 367 174 q 226 176 324 176 q 98 220 147 176 q 49 329 49 264 q 106 447 49 401 q 250 493 164 493 q 418 439 360 493 q 476 293 476 385 m 372 311 q 338 387 369 357 q 250 417 307 417 q 181 393 208 417 q 153 336 153 369 q 180 272 153 299 q 256 246 207 246 q 372 311 336 246 z "},"₊":{"ha":500,"x_min":63,"x_max":438,"o":"m 63 211 l 63 288 l 210 288 l 210 433 l 286 433 l 286 288 l 438 288 l 438 211 l 286 211 l 286 65 l 210 65 l 210 211 l 63 211 z "},"₋":{"ha":500,"x_min":63,"x_max":438,"o":"m 63 211 l 63 288 l 438 288 l 438 211 l 63 211 z "},"₌":{"ha":500,"x_min":63,"x_max":438,"o":"m 63 114 l 63 190 l 438 190 l 438 114 l 63 114 m 63 308 l 63 385 l 438 385 l 438 308 l 63 308 z "},"₍":{"ha":294,"x_min":42,"x_max":281,"o":"m 281 -3 l 224 -60 q 85 72 129 -10 q 42 240 42 153 q 225 539 42 422 l 276 483 q 139 240 139 390 q 281 -3 139 86 z "},"₎":{"ha":294,"x_min":14,"x_max":253,"o":"m 14 482 l 71 539 q 209 408 165 489 q 253 239 253 326 q 69 -60 253 56 l 18 -4 q 156 239 156 88 q 14 482 156 390 z "},"€":{"ha":822,"x_min":25,"x_max":801,"o":"m 25 569 l 61 660 l 164 660 q 327 897 208 808 q 614 986 446 986 q 801 946 726 986 l 758 844 q 614 875 694 875 q 419 818 504 875 q 294 660 335 761 l 710 660 l 676 569 l 271 569 q 264 486 264 525 q 268 424 264 453 l 638 424 l 608 333 l 289 333 q 421 160 329 224 q 633 97 513 97 q 767 122 719 97 l 786 15 q 624 -14 731 -14 q 325 79 450 -14 q 157 333 200 172 l 26 333 l 61 424 l 142 424 q 139 486 139 463 q 144 569 139 532 l 25 569 z "},"₴":{"ha":833,"x_min":101,"x_max":732,"o":"m 101 572 l 101 663 l 525 663 q 547 758 547 692 q 516 841 547 807 q 418 875 485 875 q 233 803 308 875 l 176 886 q 422 986 261 986 q 602 927 535 986 q 669 775 669 868 q 633 663 669 706 l 732 663 l 732 572 l 576 572 q 478 495 544 540 q 386 426 411 450 l 732 426 l 732 336 l 304 336 q 264 232 264 292 q 314 133 264 169 q 438 97 364 97 q 639 193 561 97 l 699 118 q 421 -14 608 -14 q 233 47 313 -14 q 153 214 153 108 q 194 336 153 281 l 101 336 l 101 426 l 260 426 q 357 501 289 456 q 453 572 425 547 l 101 572 z "},"₶":{"ha":833,"x_min":26,"x_max":788,"o":"m 26 428 l 26 518 l 174 518 l 174 972 q 298 974 200 972 q 428 975 396 975 q 788 699 788 975 q 699 502 788 576 q 438 428 610 428 l 292 428 l 292 282 l 532 282 l 532 192 l 292 192 l 292 0 l 174 0 l 174 192 l 26 192 l 26 282 l 174 282 l 174 428 l 26 428 m 439 864 q 292 861 383 864 l 292 518 l 433 518 q 603 561 543 518 q 663 690 663 604 q 439 864 663 864 z "},"№":{"ha":1633,"x_min":146,"x_max":1536,"o":"m 931 0 l 836 0 l 257 764 l 257 0 l 146 0 l 146 972 l 240 972 l 819 206 l 819 972 l 931 972 l 931 0 m 1100 509 q 1064 542 1100 509 q 1028 679 1028 575 q 1099 849 1028 783 q 1282 914 1171 914 q 1465 849 1393 914 q 1536 679 1536 783 q 1464 509 1536 575 q 1282 443 1392 443 q 1100 509 1172 443 m 1132 679 q 1176 574 1132 614 q 1282 533 1221 533 q 1388 574 1344 533 q 1432 679 1432 614 q 1388 783 1432 743 q 1282 824 1344 824 q 1176 783 1219 824 q 1132 679 1132 743 m 1076 257 l 1076 361 l 1488 361 l 1488 257 l 1076 257 z "},"™":{"ha":1176,"x_min":21,"x_max":1075,"o":"m 528 535 l 528 972 l 624 972 l 808 778 l 983 972 l 1075 972 l 1075 535 l 971 535 l 971 839 l 806 656 l 803 656 l 633 839 l 633 535 l 528 535 m 21 871 l 21 972 l 463 972 l 463 871 l 293 871 l 293 535 l 189 535 l 189 871 l 21 871 z "},"←":{"ha":893,"x_min":56,"x_max":838,"o":"m 449 771 l 526 693 l 268 435 l 838 435 l 838 324 l 267 324 l 526 64 l 449 -14 l 56 379 l 449 771 z "},"↑":{"ha":896,"x_min":56,"x_max":840,"o":"m 133 310 l 56 389 l 447 782 l 840 389 l 763 310 l 503 569 l 503 0 l 392 0 l 392 568 l 133 310 z "},"→":{"ha":893,"x_min":56,"x_max":838,"o":"m 365 693 l 444 771 l 838 379 l 444 -14 l 365 64 l 625 324 l 56 324 l 56 435 l 624 435 l 365 693 z "},"↓":{"ha":896,"x_min":56,"x_max":840,"o":"m 56 365 l 133 443 l 392 185 l 392 754 l 503 754 l 503 183 l 763 443 l 840 365 l 447 -28 l 56 365 z "},"∂":{"ha":817,"x_min":58,"x_max":757,"o":"m 58 281 q 156 533 58 428 q 403 639 253 639 q 553 601 492 639 q 639 513 614 564 q 550 772 639 671 q 278 886 461 874 l 294 986 q 635 852 514 978 q 757 507 757 726 q 652 138 757 290 q 361 -14 547 -14 q 142 70 226 -14 q 58 281 58 154 m 176 290 q 231 149 176 207 q 374 90 285 90 q 549 183 481 90 q 631 404 618 276 q 408 535 553 535 q 244 463 311 535 q 176 290 176 390 z "},"∏":{"ha":1222,"x_min":146,"x_max":1076,"o":"m 958 -278 l 958 861 l 264 861 l 264 -278 l 146 -278 l 146 972 l 1076 972 l 1076 -278 l 958 -278 z "},"∑":{"ha":882,"x_min":56,"x_max":826,"o":"m 472 347 l 56 893 l 56 972 l 826 972 l 826 861 l 222 861 l 608 347 l 215 -167 l 826 -167 l 826 -278 l 56 -278 l 56 -199 l 472 347 z "},"−":{"ha":822,"x_min":96,"x_max":726,"o":"m 96 451 l 96 549 l 726 549 l 726 451 l 96 451 z "},"∕":{"ha":465,"x_min":-42,"x_max":507,"o":"m -42 -257 l 421 986 l 507 954 l 46 -289 l -42 -257 z "},"√":{"ha":838,"x_min":7,"x_max":1032,"o":"m 7 514 l 7 625 l 231 625 l 464 188 l 646 972 l 1032 972 l 1032 861 l 743 861 l 538 -6 l 443 -6 l 154 514 l 7 514 z "},"∞":{"ha":1036,"x_min":69,"x_max":967,"o":"m 760 254 q 517 396 629 254 q 414 292 467 329 q 288 254 361 254 q 136 315 203 254 q 69 474 69 375 q 131 630 69 564 q 292 696 193 696 q 412 658 360 696 q 517 551 464 619 q 621 658 567 619 q 758 696 675 696 q 910 632 853 696 q 967 468 967 568 q 910 319 967 383 q 760 254 853 254 m 739 599 q 653 567 690 599 q 572 476 615 536 q 658 383 618 415 q 749 351 699 351 q 832 388 801 351 q 863 471 863 424 q 830 562 863 525 q 739 599 797 599 m 299 351 q 386 381 350 351 q 461 468 422 411 q 378 566 414 533 q 300 599 342 599 q 208 563 243 599 q 174 474 174 526 q 212 385 174 418 q 299 351 250 351 z "},"∫":{"ha":458,"x_min":-110,"x_max":500,"o":"m 225 -24 q 188 -211 225 -144 q 60 -286 151 -278 q -6 -286 39 -289 q -110 -249 -71 -281 l -79 -160 q 3 -185 -39 -185 q 90 -142 65 -185 q 114 -17 114 -99 l 114 726 q 163 908 114 843 q 301 982 211 974 q 369 982 335 986 q 500 931 451 975 l 461 846 q 372 879 421 876 q 297 868 326 882 q 225 714 225 838 l 225 -24 z "},"≈":{"ha":822,"x_min":69,"x_max":751,"o":"m 119 301 l 69 372 q 258 472 163 472 q 422 423 317 472 q 581 374 528 374 q 707 436 644 374 l 751 360 q 579 276 664 276 q 418 326 522 276 q 264 375 314 375 q 119 301 196 375 m 119 551 l 69 622 q 258 722 163 722 q 422 673 317 722 q 581 624 528 624 q 707 686 644 624 l 751 610 q 579 526 664 526 q 418 576 522 526 q 264 625 314 625 q 119 551 196 625 z "},"≠":{"ha":822,"x_min":96,"x_max":726,"o":"m 96 576 l 96 674 l 422 674 l 539 986 l 625 954 l 521 674 l 726 674 l 726 576 l 485 576 l 428 424 l 726 424 l 726 326 l 392 326 l 265 -14 l 178 18 l 293 326 l 96 326 l 96 424 l 329 424 l 386 576 l 96 576 z "},"≤":{"ha":822,"x_min":79,"x_max":690,"o":"m 79 354 l 79 457 l 690 92 l 690 -15 l 79 354 m 690 235 l 79 604 l 79 651 l 690 1018 l 690 897 l 233 628 l 690 356 l 690 235 z "},"≥":{"ha":822,"x_min":132,"x_max":742,"o":"m 742 457 l 742 354 l 132 -15 l 132 92 l 742 457 m 742 604 l 132 235 l 132 356 l 589 628 l 132 897 l 132 1018 l 742 651 l 742 604 z "},"◊":{"ha":664,"x_min":56,"x_max":608,"o":"m 288 -6 l 56 346 l 289 717 l 376 717 l 608 361 l 375 -6 l 288 -6 m 168 347 l 332 99 l 496 361 l 332 607 l 168 347 z "},"♠":{"ha":878,"x_min":83,"x_max":794,"o":"m 439 708 q 678 499 561 632 q 794 276 794 365 q 753 175 794 218 q 632 132 711 132 q 450 232 522 132 q 599 0 489 67 l 279 0 q 425 228 381 72 q 246 132 354 132 q 124 175 165 132 q 83 278 83 218 q 200 499 83 365 q 439 708 317 632 z "},"♣":{"ha":850,"x_min":83,"x_max":767,"o":"m 246 529 q 299 656 246 603 q 425 708 351 708 q 551 656 499 708 q 604 529 604 603 q 601 503 604 519 q 719 446 671 497 q 767 325 767 394 q 714 199 767 251 q 588 146 661 146 q 443 219 496 146 q 585 0 486 60 l 265 0 q 404 217 353 61 q 263 146 349 146 q 136 199 189 146 q 83 325 83 251 q 131 446 83 394 q 247 503 178 497 q 246 529 246 511 z "},"♥":{"ha":901,"x_min":83,"x_max":818,"o":"m 451 0 q 203 252 322 97 q 83 514 83 407 q 126 641 83 588 q 251 694 168 694 q 451 550 374 694 q 650 694 526 694 q 775 642 732 694 q 818 515 818 589 q 699 253 818 408 q 451 0 581 99 z "},"♦":{"ha":810,"x_min":83,"x_max":726,"o":"m 726 346 q 404 -26 575 194 q 83 346 261 163 q 404 719 233 503 q 726 346 571 507 z "},"":{"ha":819,"x_min":17,"x_max":803,"o":"m 17 0 l 358 733 l 461 733 l 803 0 l 676 0 l 588 194 l 225 194 l 136 0 l 17 0 m 407 592 l 275 306 l 538 306 l 407 592 z "},"":{"ha":724,"x_min":117,"x_max":646,"o":"m 117 0 l 117 729 l 599 729 l 599 618 l 235 618 l 235 444 q 363 450 281 450 q 572 394 499 450 q 646 232 646 338 q 566 53 646 113 q 338 -6 486 -6 q 212 -3 289 -6 q 117 0 135 0 m 350 340 q 235 335 286 340 l 235 110 q 350 106 339 106 q 528 226 528 106 q 350 340 528 340 z "},"":{"ha":728,"x_min":117,"x_max":650,"o":"m 117 1 l 117 728 q 363 733 294 733 q 561 684 499 733 q 624 553 624 635 q 587 444 624 489 q 489 382 550 399 l 489 381 q 650 213 650 358 q 569 50 650 104 q 356 -4 489 -4 q 117 1 211 -4 m 371 317 l 235 317 l 235 113 q 364 107 279 107 q 532 217 532 107 q 371 317 532 317 m 361 622 q 235 618 314 622 l 235 421 l 368 421 q 466 448 426 421 q 506 522 506 475 q 361 622 506 622 z "},"":{"ha":593,"x_min":117,"x_max":579,"o":"m 117 0 l 117 729 l 579 729 l 579 618 l 235 618 l 235 0 l 117 0 z "},"":{"ha":863,"x_min":15,"x_max":831,"o":"m 15 -132 l 15 111 l 103 111 q 179 275 139 151 q 229 583 219 399 l 238 729 l 722 729 l 722 111 l 831 111 l 831 -132 l 719 -132 l 719 0 l 126 0 l 126 -132 l 15 -132 m 340 503 q 294 247 328 350 q 232 111 261 143 l 604 111 l 604 618 l 351 618 l 340 503 z "},"":{"ha":678,"x_min":117,"x_max":600,"o":"m 117 0 l 117 729 l 589 729 l 589 618 l 235 618 l 235 424 l 554 424 l 554 313 l 235 313 l 235 111 l 600 111 l 600 0 l 117 0 z "},"":{"ha":1089,"x_min":21,"x_max":1067,"o":"m 1056 729 l 746 383 l 1067 0 l 924 0 l 614 381 l 911 729 l 1056 729 m 486 0 l 486 729 l 604 729 l 604 0 l 486 0 m 343 381 l 33 729 l 178 729 l 476 381 l 165 0 l 21 0 l 343 381 z "},"":{"ha":688,"x_min":43,"x_max":610,"o":"m 325 -12 q 154 24 231 -12 q 43 108 78 60 l 108 188 q 325 99 193 99 q 448 129 404 99 q 492 214 492 160 q 342 315 492 315 l 233 315 l 233 426 l 336 426 q 423 456 386 426 q 460 528 460 485 q 424 602 460 576 q 329 628 389 628 q 135 549 206 628 l 67 628 q 332 739 157 739 q 510 686 442 739 q 578 540 578 633 q 551 443 578 488 q 474 379 524 399 l 474 375 q 574 316 539 364 q 610 203 610 268 q 531 45 610 103 q 325 -12 453 -12 z "},"":{"ha":911,"x_min":117,"x_max":794,"o":"m 221 0 l 117 0 l 117 729 l 235 729 l 235 188 l 690 729 l 794 729 l 794 0 l 676 0 l 676 542 l 221 0 z "},"":{"ha":911,"x_min":117,"x_max":794,"o":"m 221 0 l 117 0 l 117 729 l 235 729 l 235 188 l 690 729 l 794 729 l 794 0 l 676 0 l 676 542 l 221 0 m 243 944 l 347 944 q 454 854 347 854 q 556 944 556 854 l 660 944 q 604 817 660 863 q 454 771 549 771 q 297 816 351 771 q 243 944 243 861 z "},"":{"ha":769,"x_min":117,"x_max":749,"o":"m 731 729 l 389 389 l 749 0 l 588 0 l 244 381 l 576 729 l 731 729 m 117 0 l 117 729 l 235 729 l 235 0 l 117 0 z "},"":{"ha":835,"x_min":26,"x_max":718,"o":"m 600 0 l 600 618 l 333 618 l 319 481 q 276 220 304 322 q 209 69 249 118 q 127 6 169 21 q 26 0 85 -8 l 29 114 q 69 117 51 111 q 110 148 86 122 q 151 222 133 174 q 187 363 169 271 q 214 583 204 456 l 225 729 l 718 729 l 718 0 l 600 0 z "},"":{"ha":1028,"x_min":117,"x_max":911,"o":"m 117 0 l 117 729 l 236 729 l 524 381 l 799 729 l 911 729 l 911 0 l 793 0 l 793 550 l 524 217 l 507 217 l 235 546 l 235 0 l 117 0 z "},"":{"ha":889,"x_min":117,"x_max":772,"o":"m 654 0 l 654 317 l 235 317 l 235 0 l 117 0 l 117 729 l 235 729 l 235 428 l 654 428 l 654 729 l 772 729 l 772 0 l 654 0 z "},"":{"ha":910,"x_min":56,"x_max":854,"o":"m 56 364 q 168 631 56 524 q 456 739 281 739 q 741 635 628 739 q 854 364 854 531 q 741 94 854 200 q 456 -12 628 -12 q 169 92 282 -12 q 56 364 56 196 m 181 364 q 260 175 181 251 q 456 99 339 99 q 655 174 581 99 q 729 364 729 249 q 651 553 729 479 q 456 628 572 628 q 259 553 338 628 q 181 364 181 479 z "},"":{"ha":888,"x_min":117,"x_max":771,"o":"m 653 0 l 653 618 l 235 618 l 235 0 l 117 0 l 117 729 l 771 729 l 771 0 l 653 0 z "},"":{"ha":693,"x_min":117,"x_max":638,"o":"m 235 0 l 117 0 l 117 729 q 222 731 138 729 q 335 732 307 732 q 567 665 496 732 q 638 489 638 597 q 562 313 638 382 q 347 243 486 243 q 235 247 292 243 l 235 0 m 346 621 q 235 618 296 621 l 235 360 q 343 354 307 354 q 468 390 424 354 q 513 489 513 426 q 346 621 513 621 z "},"":{"ha":753,"x_min":56,"x_max":714,"o":"m 668 158 l 714 69 q 606 10 675 32 q 460 -12 536 -12 q 167 90 278 -12 q 56 364 56 193 q 161 631 56 524 q 454 739 267 739 q 699 667 606 739 l 644 578 q 454 628 560 628 q 256 556 332 628 q 181 364 181 483 q 260 172 181 244 q 471 99 339 99 q 668 158 585 99 z "},"":{"ha":683,"x_min":11,"x_max":672,"o":"m 11 618 l 11 729 l 672 729 l 672 618 l 400 618 l 400 0 l 282 0 l 282 618 l 11 618 z "},"":{"ha":758,"x_min":15,"x_max":744,"o":"m 744 729 l 471 172 q 378 42 428 85 q 260 0 328 0 q 164 28 201 0 l 206 128 q 265 110 236 110 q 350 176 314 110 l 364 201 l 15 729 l 163 729 l 425 318 l 624 729 l 744 729 z "},"":{"ha":958,"x_min":43,"x_max":915,"o":"m 418 -8 l 418 75 q 145 154 247 75 q 43 375 43 233 q 145 593 43 514 q 418 675 247 672 l 418 738 l 536 738 l 536 675 q 813 596 710 674 q 915 375 915 518 q 812 155 915 235 q 538 75 708 75 l 536 75 l 536 -8 l 418 -8 m 790 375 q 724 512 790 458 q 536 567 657 565 l 536 182 q 723 234 656 182 q 790 375 790 286 m 168 375 q 235 235 168 288 q 418 182 303 182 l 418 567 q 235 511 301 565 q 168 375 168 457 z "},"":{"ha":764,"x_min":17,"x_max":746,"o":"m 735 729 l 458 371 l 746 0 l 600 0 l 381 281 l 164 0 l 17 0 l 304 371 l 29 729 l 176 729 l 383 460 l 589 729 l 735 729 z "},"":{"ha":900,"x_min":117,"x_max":868,"o":"m 117 0 l 117 729 l 235 729 l 235 111 l 640 111 l 640 729 l 758 729 l 758 111 l 868 111 l 868 -132 l 757 -132 l 757 0 l 117 0 z "},"":{"ha":761,"x_min":75,"x_max":644,"o":"m 644 729 l 644 0 l 526 0 l 526 304 q 324 253 449 253 q 147 309 219 253 q 75 485 75 365 l 75 729 l 193 729 l 193 526 q 349 364 193 364 q 526 413 450 364 l 526 729 l 644 729 z "},"":{"ha":1142,"x_min":117,"x_max":1025,"o":"m 117 0 l 117 729 l 235 729 l 235 111 l 511 111 l 511 729 l 629 729 l 629 111 l 907 111 l 907 729 l 1025 729 l 1025 0 l 117 0 z "},"":{"ha":1167,"x_min":117,"x_max":1135,"o":"m 117 0 l 117 729 l 235 729 l 235 111 l 511 111 l 511 729 l 629 729 l 629 111 l 907 111 l 907 729 l 1025 729 l 1025 111 l 1135 111 l 1135 -132 l 1024 -132 l 1024 0 l 117 0 z "},"":{"ha":768,"x_min":7,"x_max":714,"o":"m 7 618 l 7 729 l 308 729 l 308 475 q 411 479 369 479 q 639 418 564 479 q 714 246 714 357 q 628 63 714 129 q 386 -3 542 -3 q 278 -1 346 -3 q 190 0 211 0 l 190 618 l 7 618 m 403 368 q 308 364 363 368 l 308 111 q 407 108 367 108 q 589 243 589 108 q 403 368 589 368 z "},"":{"ha":981,"x_min":117,"x_max":864,"o":"m 746 0 l 746 729 l 864 729 l 864 0 l 746 0 m 324 368 q 235 364 289 368 l 235 111 q 321 108 290 108 q 503 243 503 108 q 324 368 503 368 m 235 729 l 235 475 q 333 479 293 479 q 553 417 479 479 q 628 246 628 356 q 542 64 628 131 q 307 -3 457 -3 q 203 -1 268 -3 q 117 0 138 0 l 117 729 l 235 729 z "},"":{"ha":694,"x_min":117,"x_max":640,"o":"m 328 368 q 235 364 289 368 l 235 111 q 325 108 290 108 q 515 243 515 108 q 328 368 515 368 m 235 729 l 235 475 q 338 479 293 479 q 565 417 489 479 q 640 246 640 356 q 553 63 640 129 q 311 -3 467 -3 q 205 -1 272 -3 q 117 0 138 0 l 117 729 l 235 729 z "},"":{"ha":774,"x_min":36,"x_max":719,"o":"m 218 317 l 218 428 l 596 428 q 503 577 576 525 q 311 629 429 629 q 93 572 174 629 l 46 661 q 317 740 150 740 q 608 638 496 740 q 719 365 719 535 q 606 92 719 194 q 304 -11 493 -11 q 36 65 136 -11 l 88 164 q 318 100 179 100 q 508 156 433 100 q 597 317 583 213 l 218 317 z "},"":{"ha":1210,"x_min":117,"x_max":1154,"o":"m 117 0 l 117 729 l 235 729 l 235 428 l 390 428 q 511 653 410 565 q 767 740 613 740 q 1049 638 943 740 q 1154 365 1154 535 q 1048 94 1154 199 q 767 -11 942 -11 q 508 78 613 -11 q 389 317 404 168 l 235 317 l 235 0 l 117 0 m 511 365 q 583 175 511 250 q 769 100 656 100 q 959 175 889 100 q 1029 365 1029 250 q 958 556 1029 483 q 769 629 886 629 q 583 556 656 629 q 511 365 511 482 z "},"":{"ha":742,"x_min":25,"x_max":625,"o":"m 507 0 l 507 250 l 351 250 l 165 0 l 25 0 l 232 274 q 129 354 169 301 q 89 479 89 407 q 168 661 89 589 q 403 733 247 733 q 526 731 447 733 q 625 729 606 729 l 625 0 l 507 0 m 340 361 l 507 361 l 507 618 q 392 622 436 622 q 260 584 306 622 q 214 486 214 546 q 251 403 214 438 q 340 361 289 369 z "},"":{"ha":678,"x_min":117,"x_max":600,"o":"m 117 0 l 117 729 l 589 729 l 589 618 l 235 618 l 235 424 l 554 424 l 554 313 l 235 313 l 235 111 l 600 111 l 600 0 l 117 0 m 165 908 q 185 951 165 935 q 232 968 204 968 q 274 951 256 968 q 292 908 292 935 q 274 862 292 879 q 232 844 256 844 q 185 862 204 844 q 165 908 165 879 m 413 908 q 431 951 413 935 q 476 968 450 968 q 519 951 501 968 q 538 908 538 935 q 519 862 538 879 q 476 844 501 844 q 431 862 450 844 q 413 908 413 879 z "},"":{"ha":875,"x_min":11,"x_max":819,"o":"m 819 219 q 766 46 819 103 q 618 -11 713 -11 q 541 3 578 -11 q 490 32 504 17 l 529 122 q 603 100 561 100 q 701 214 701 100 q 558 336 701 336 q 489 326 524 336 q 444 312 454 317 q 400 289 433 307 l 400 0 l 282 0 l 282 618 l 11 618 l 11 729 l 672 729 l 672 618 l 400 618 l 400 403 q 581 447 494 447 q 754 392 689 447 q 819 219 819 338 z "},"":{"ha":593,"x_min":117,"x_max":579,"o":"m 117 0 l 117 729 l 579 729 l 579 618 l 235 618 l 235 0 l 117 0 m 503 979 l 315 806 l 260 867 l 435 1064 l 503 979 z "},"":{"ha":775,"x_min":56,"x_max":739,"o":"m 557 425 l 557 314 l 176 314 q 273 155 193 210 q 474 100 353 100 q 694 164 600 100 l 739 65 q 475 -11 639 -11 q 170 90 285 -11 q 56 365 56 192 q 168 636 56 532 q 458 740 281 740 q 728 661 626 740 l 675 572 q 463 629 594 629 q 178 425 211 629 l 557 425 z "},"":{"ha":674,"x_min":47,"x_max":618,"o":"m 493 199 q 462 259 493 233 q 384 299 431 285 q 283 333 338 314 q 183 375 229 353 q 105 440 136 397 q 74 540 74 482 q 142 683 74 628 q 350 739 211 739 q 492 712 417 739 q 604 646 568 685 l 550 558 q 453 608 513 589 q 344 628 393 628 q 238 603 276 628 q 199 535 199 578 q 242 469 199 496 q 347 426 285 443 q 470 385 408 408 q 575 313 532 361 q 618 192 618 264 q 540 44 618 100 q 344 -12 463 -12 q 170 19 253 -12 q 47 103 88 50 l 115 183 q 219 122 153 146 q 351 99 285 99 q 452 125 411 99 q 493 199 493 151 z "},"":{"ha":390,"x_min":136,"x_max":254,"o":"m 136 0 l 136 729 l 254 729 l 254 0 l 136 0 z "},"":{"ha":413,"x_min":53,"x_max":363,"o":"m 53 907 q 70 949 53 932 q 113 965 88 965 q 151 949 135 965 q 168 907 168 932 q 151 863 168 881 q 113 846 135 846 q 70 863 88 846 q 53 907 53 879 m 246 907 q 264 949 246 932 q 307 965 282 965 q 346 949 329 965 q 363 907 363 932 q 346 863 363 881 q 307 846 329 846 q 263 863 281 846 q 246 907 246 879 m 147 0 l 147 729 l 265 729 l 265 0 l 147 0 z "},"":{"ha":438,"x_min":8,"x_max":321,"o":"m 321 729 l 321 171 q 138 -11 321 -11 q 8 32 51 -11 l 49 122 q 121 100 81 100 q 203 190 203 100 l 203 729 l 321 729 z "},"":{"ha":1165,"x_min":26,"x_max":1110,"o":"m 600 0 l 600 618 l 336 618 l 321 481 q 276 220 304 322 q 208 69 247 118 q 126 6 168 21 q 26 0 85 -8 l 29 118 q 69 120 51 115 q 110 151 86 125 q 151 224 133 176 q 187 363 169 271 q 214 583 204 456 l 225 729 l 718 729 l 718 475 q 815 479 776 479 q 1035 417 961 479 q 1110 246 1110 356 q 1025 63 1110 129 q 789 -3 940 -3 q 685 -1 750 -3 q 600 0 619 0 m 806 368 q 718 364 769 368 l 718 111 q 803 108 771 108 q 985 243 985 108 q 806 368 985 368 z "},"":{"ha":1208,"x_min":117,"x_max":1154,"o":"m 117 0 l 117 729 l 235 729 l 235 451 l 643 451 l 643 729 l 761 729 l 761 457 q 858 461 819 461 q 1079 401 1004 461 q 1154 238 1154 342 q 1069 62 1154 126 q 833 -3 983 -3 q 728 -1 794 -3 q 643 0 663 0 l 643 340 l 235 340 l 235 0 l 117 0 m 761 346 l 761 111 q 847 108 817 108 q 1029 235 1029 108 q 982 321 1029 290 q 850 351 935 351 q 761 346 810 351 z "},"":{"ha":875,"x_min":11,"x_max":819,"o":"m 11 618 l 11 729 l 672 729 l 672 618 l 400 618 l 400 394 q 583 440 474 440 q 753 384 686 440 q 819 207 819 328 l 819 0 l 701 0 l 701 175 q 557 329 701 329 q 400 286 468 329 l 400 0 l 282 0 l 282 618 l 11 618 z "},"":{"ha":769,"x_min":117,"x_max":749,"o":"m 731 729 l 389 389 l 749 0 l 588 0 l 244 381 l 576 729 l 731 729 m 117 0 l 117 729 l 235 729 l 235 0 l 117 0 m 544 979 l 357 806 l 301 867 l 476 1064 l 544 979 z "},"":{"ha":758,"x_min":15,"x_max":744,"o":"m 744 729 l 471 172 q 378 42 428 85 q 260 0 328 0 q 164 28 201 0 l 206 128 q 265 110 236 110 q 350 176 314 110 l 364 201 l 15 729 l 163 729 l 425 318 l 624 729 l 744 729 m 178 944 l 282 944 q 389 854 282 854 q 490 944 490 854 l 594 944 q 539 817 594 863 q 389 771 483 771 q 232 816 286 771 q 178 944 178 861 z "},"":{"ha":876,"x_min":117,"x_max":760,"o":"m 117 0 l 117 729 l 235 729 l 235 111 l 642 111 l 642 729 l 760 729 l 760 0 l 493 0 l 493 -160 l 382 -160 l 382 0 l 117 0 z "},"":{"ha":715,"x_min":7,"x_max":661,"o":"m 7 538 l 7 635 l 138 635 l 138 729 l 256 729 l 256 635 l 436 635 l 436 538 l 256 538 l 256 447 q 358 451 314 451 q 661 232 661 451 q 576 57 661 117 q 332 -3 490 -3 q 226 -1 293 -3 q 138 0 158 0 l 138 538 l 7 538 m 349 347 q 256 343 310 347 l 256 104 q 346 101 311 101 q 536 229 536 101 q 349 347 536 347 z "},"":{"ha":910,"x_min":56,"x_max":854,"o":"m 56 364 q 168 631 56 524 q 456 739 281 739 q 741 635 628 739 q 854 364 854 531 q 741 94 854 200 q 456 -12 628 -12 q 169 92 282 -12 q 56 364 56 196 m 311 372 q 183 318 244 372 q 276 160 200 222 q 456 99 351 99 q 629 152 558 99 q 721 292 700 206 q 606 253 665 253 q 451 313 544 253 q 311 372 357 372 m 615 357 q 726 403 674 357 q 637 565 713 503 q 456 628 561 628 q 285 575 357 628 q 189 435 213 522 q 313 476 250 476 q 472 417 378 476 q 615 357 567 357 z "},"":{"ha":751,"x_min":1,"x_max":779,"o":"m 632 513 l 425 -3 l 336 -3 l 1 729 l 135 729 l 385 160 l 535 563 q 631 716 578 679 q 779 728 685 753 l 779 632 q 697 617 731 646 q 632 513 663 589 z "},"":{"ha":600,"x_min":117,"x_max":586,"o":"m 117 0 l 117 729 l 475 729 l 475 854 l 586 854 l 586 618 l 235 618 l 235 0 l 117 0 z "},"":{"ha":1356,"x_min":117,"x_max":1278,"o":"m 771 0 l 676 0 l 228 536 l 228 0 l 117 0 l 117 729 l 211 729 l 660 192 l 660 729 l 771 729 l 771 0 m 904 376 q 874 402 904 376 q 843 510 843 428 q 904 642 843 592 q 1060 693 965 693 q 1217 642 1156 693 q 1278 510 1278 592 q 1217 376 1278 428 q 1060 325 1156 325 q 904 376 965 325 m 947 510 q 980 441 947 467 q 1060 415 1013 415 q 1141 441 1108 415 q 1174 510 1174 467 q 1141 577 1174 551 q 1060 603 1108 603 q 979 577 1011 603 q 947 510 947 551 m 885 161 l 885 265 l 1236 265 l 1236 161 l 885 161 z "},"":{"ha":583,"x_min":83,"x_max":500,"o":"m 83 944 l 188 944 q 294 854 188 854 q 396 944 396 854 l 500 944 q 444 817 500 863 q 294 771 389 771 q 138 816 192 771 q 83 944 83 861 z "},"":{"ha":819,"x_min":17,"x_max":803,"o":"m 17 0 l 358 733 l 461 733 l 803 0 l 676 0 l 588 194 l 225 194 l 136 0 l 17 0 m 407 592 l 275 306 l 538 306 l 407 592 m 568 979 l 381 806 l 325 867 l 500 1064 l 568 979 z "},"":{"ha":678,"x_min":117,"x_max":600,"o":"m 117 0 l 117 729 l 589 729 l 589 618 l 235 618 l 235 424 l 554 424 l 554 313 l 235 313 l 235 111 l 600 111 l 600 0 l 117 0 m 510 979 l 322 806 l 267 867 l 442 1064 l 510 979 z "},"":{"ha":911,"x_min":117,"x_max":794,"o":"m 221 0 l 117 0 l 117 729 l 235 729 l 235 188 l 690 729 l 794 729 l 794 0 l 676 0 l 676 542 l 221 0 m 607 979 l 419 806 l 364 867 l 539 1064 l 607 979 z "},"":{"ha":910,"x_min":56,"x_max":854,"o":"m 56 364 q 168 631 56 524 q 456 739 281 739 q 741 635 628 739 q 854 364 854 531 q 741 94 854 200 q 456 -12 628 -12 q 169 92 282 -12 q 56 364 56 196 m 181 364 q 260 175 181 251 q 456 99 339 99 q 655 174 581 99 q 729 364 729 249 q 651 553 729 479 q 456 628 572 628 q 259 553 338 628 q 181 364 181 479 m 622 979 l 435 806 l 379 867 l 554 1064 l 622 979 z "},"":{"ha":758,"x_min":15,"x_max":744,"o":"m 744 729 l 471 172 q 378 42 428 85 q 260 0 328 0 q 164 28 201 0 l 206 128 q 265 110 236 110 q 350 176 314 110 l 364 201 l 15 729 l 163 729 l 425 318 l 624 729 l 744 729 m 551 979 l 364 806 l 308 867 l 483 1064 l 551 979 z "},"":{"ha":981,"x_min":117,"x_max":864,"o":"m 746 0 l 746 729 l 864 729 l 864 0 l 746 0 m 324 368 q 235 364 289 368 l 235 111 q 321 108 290 108 q 503 243 503 108 q 324 368 503 368 m 235 729 l 235 475 q 333 479 293 479 q 553 417 479 479 q 628 246 628 356 q 542 64 628 131 q 307 -3 457 -3 q 203 -1 268 -3 q 117 0 138 0 l 117 729 l 235 729 m 621 979 l 433 806 l 378 867 l 553 1064 l 621 979 z "},"":{"ha":774,"x_min":36,"x_max":719,"o":"m 218 317 l 218 428 l 596 428 q 503 577 576 525 q 311 629 429 629 q 93 572 174 629 l 46 661 q 317 740 150 740 q 608 638 496 740 q 719 365 719 535 q 606 92 719 194 q 304 -11 493 -11 q 36 65 136 -11 l 88 164 q 318 100 179 100 q 508 156 433 100 q 597 317 583 213 l 218 317 m 482 979 l 294 806 l 239 867 l 414 1064 l 482 979 z "},"":{"ha":1210,"x_min":117,"x_max":1154,"o":"m 117 0 l 117 729 l 235 729 l 235 428 l 390 428 q 511 653 410 565 q 767 740 613 740 q 1049 638 943 740 q 1154 365 1154 535 q 1048 94 1154 199 q 767 -11 942 -11 q 508 78 613 -11 q 389 317 404 168 l 235 317 l 235 0 l 117 0 m 511 365 q 583 175 511 250 q 769 100 656 100 q 959 175 889 100 q 1029 365 1029 250 q 958 556 1029 483 q 769 629 886 629 q 583 556 656 629 q 511 365 511 482 m 747 979 l 560 806 l 504 867 l 679 1064 l 747 979 z "},"":{"ha":742,"x_min":25,"x_max":625,"o":"m 507 0 l 507 250 l 351 250 l 165 0 l 25 0 l 232 274 q 129 354 169 301 q 89 479 89 407 q 168 661 89 589 q 403 733 247 733 q 526 731 447 733 q 625 729 606 729 l 625 0 l 507 0 m 340 361 l 507 361 l 507 618 q 392 622 436 622 q 260 584 306 622 q 214 486 214 546 q 251 403 214 438 q 340 361 289 369 m 551 979 l 364 806 l 308 867 l 483 1064 l 551 979 z "},"":{"ha":678,"x_min":117,"x_max":600,"o":"m 117 908 q 136 951 117 935 q 183 968 156 968 q 225 951 207 968 q 243 908 243 935 q 225 862 243 879 q 183 844 207 844 q 136 862 156 844 q 117 908 117 879 m 461 908 q 480 951 461 935 q 525 968 499 968 q 568 951 550 968 q 586 908 586 935 q 568 862 586 879 q 525 844 550 844 q 480 862 499 844 q 461 908 461 879 m 468 1004 l 317 806 l 254 844 l 372 1064 l 468 1004 m 117 0 l 117 729 l 589 729 l 589 618 l 235 618 l 235 424 l 554 424 l 554 313 l 235 313 l 235 111 l 600 111 l 600 0 l 117 0 z "},"":{"ha":0,"x_min":-446,"x_max":-212,"o":"m -212 936 l -379 738 l -446 785 l -299 1003 l -212 936 z "},"":{"ha":0,"x_min":-686,"x_max":-374,"o":"m -374 1138 l -654 1021 l -686 1088 l -415 1232 l -374 1138 z "},"":{"ha":653,"x_min":83,"x_max":569,"o":"m 83 1164 l 133 1222 q 332 1132 213 1132 q 526 1222 450 1132 l 569 1164 q 471 1072 535 1110 q 332 1035 407 1035 q 181 1075 247 1035 q 83 1164 115 1115 z "},"":{"ha":501,"x_min":83,"x_max":418,"o":"m 83 -235 l 119 -176 q 222 -215 175 -215 q 278 -202 257 -215 q 300 -165 300 -189 q 219 -111 300 -111 l 211 -111 l 211 0 l 271 0 l 271 -60 q 418 -171 418 -68 q 372 -253 418 -222 q 247 -285 326 -285 q 83 -235 158 -285 z "},"":{"ha":651,"x_min":83,"x_max":568,"o":"m 83 1081 l 321 1225 l 326 1225 l 568 1082 l 522 1018 l 324 1124 l 124 1018 l 83 1081 z "},"":{"ha":342,"x_min":83,"x_max":258,"o":"m 114 -90 l 218 -64 q 258 -132 258 -74 q 217 -232 258 -193 q 115 -283 175 -271 l 83 -233 q 147 -147 147 -208 q 114 -90 147 -104 z "},"":{"ha":336,"x_min":83,"x_max":253,"o":"m 119 997 l 213 1053 q 253 939 253 1010 q 135 732 253 799 l 83 781 q 149 915 149 826 q 119 997 149 968 z "},"":{"ha":321,"x_min":83,"x_max":238,"o":"m 83 1135 q 106 1186 83 1167 q 163 1206 129 1206 q 215 1186 193 1206 q 238 1135 238 1167 q 215 1080 238 1100 q 163 1060 193 1060 q 106 1080 129 1060 q 83 1135 83 1100 z "},"":{"ha":514,"x_min":83,"x_max":431,"o":"m 132 997 q 108 1015 132 997 q 83 1100 83 1033 q 131 1200 83 1167 q 256 1233 179 1233 q 382 1200 333 1233 q 431 1100 431 1167 q 381 997 431 1033 q 256 961 332 961 q 132 997 181 961 m 167 1100 q 192 1043 167 1063 q 257 1024 217 1024 q 322 1043 296 1024 q 347 1100 347 1063 q 257 1171 347 1171 q 167 1100 167 1171 z "},"":{"ha":649,"x_min":83,"x_max":565,"o":"m 119 1057 l 83 1126 q 222 1192 144 1192 q 330 1164 265 1192 q 431 1136 394 1136 q 535 1181 493 1136 l 565 1111 q 424 1039 511 1039 q 319 1067 386 1039 q 211 1094 251 1094 q 119 1057 165 1094 z "},"":{"ha":456,"x_min":83,"x_max":372,"o":"m 339 -175 l 372 -243 q 253 -278 331 -278 q 133 -247 183 -278 q 83 -150 83 -217 q 169 -23 83 -69 q 360 22 254 24 l 360 0 q 244 -34 294 0 q 194 -114 194 -68 q 221 -170 194 -153 q 278 -187 247 -187 q 339 -175 313 -187 z "},"":{"ha":0,"x_min":-742,"x_max":-429,"o":"m -461 1021 l -742 1138 l -700 1232 l -429 1088 l -461 1021 z "},"":{"ha":342,"x_min":83,"x_max":258,"o":"m 114 -90 l 218 -64 q 258 -132 258 -74 q 217 -232 258 -193 q 115 -283 175 -271 l 83 -233 q 147 -147 147 -208 q 114 -90 147 -104 z "},"":{"ha":336,"x_min":83,"x_max":253,"o":"m 119 728 l 213 783 q 253 669 253 740 q 135 463 253 529 l 83 511 q 149 646 149 557 q 119 728 149 699 z "},"":{"ha":683,"x_min":11,"x_max":672,"o":"m 189 -237 l 222 -183 q 321 -215 271 -215 q 377 -202 356 -215 q 399 -165 399 -189 q 318 -111 399 -111 l 310 -111 l 310 0 l 282 0 l 282 618 l 11 618 l 11 729 l 672 729 l 672 618 l 400 618 l 400 0 l 369 0 l 369 -60 q 510 -171 510 -68 q 463 -253 510 -222 q 335 -285 417 -285 q 189 -237 260 -285 z "},"":{"ha":865,"x_min":35,"x_max":811,"o":"m 54 426 l 683 426 q 596 574 669 521 q 410 628 522 628 q 213 571 293 628 l 167 660 q 422 739 268 739 q 706 637 600 739 q 811 364 811 535 q 704 91 811 194 q 424 -12 597 -12 q 138 106 240 -12 q 54 426 35 225 m 422 99 q 611 158 543 99 q 688 315 679 217 l 176 315 q 245 161 178 224 q 422 99 313 99 z "},"":{"ha":979,"x_min":21,"x_max":958,"o":"m 21 0 l 439 978 l 540 978 l 958 0 l 832 0 l 707 294 l 264 294 l 140 0 l 21 0 m 486 821 l 311 406 l 661 406 l 486 821 m 713 1138 l 432 1021 l 400 1088 l 671 1232 l 713 1138 z "},"":{"ha":799,"x_min":146,"x_max":708,"o":"m 146 0 l 146 972 l 694 972 l 694 861 l 264 861 l 264 547 l 653 547 l 653 436 l 264 436 l 264 111 l 708 111 l 708 0 l 146 0 m 643 1138 l 363 1021 l 331 1088 l 601 1232 l 643 1138 z "},"":{"ha":1104,"x_min":146,"x_max":958,"o":"m 250 0 l 146 0 l 146 972 l 264 972 l 264 194 l 854 972 l 958 972 l 958 0 l 840 0 l 840 778 l 250 0 m 768 1138 l 488 1021 l 456 1088 l 726 1232 l 768 1138 z "},"":{"ha":1131,"x_min":69,"x_max":1061,"o":"m 69 486 q 210 842 69 699 q 565 986 350 986 q 920 846 779 986 q 1061 486 1061 706 q 919 128 1061 271 q 565 -14 778 -14 q 210 126 351 -14 q 69 486 69 267 m 194 486 q 301 209 194 321 q 565 97 408 97 q 833 208 729 97 q 936 486 936 319 q 829 765 936 654 q 565 875 722 875 q 300 765 406 875 q 194 486 194 656 m 782 1138 l 501 1021 l 469 1088 l 740 1232 l 782 1138 z "},"":{"ha":925,"x_min":21,"x_max":904,"o":"m 904 972 l 568 222 q 460 53 517 107 q 326 0 404 0 q 208 35 253 0 l 250 135 q 325 110 286 110 q 444 208 397 110 l 461 244 l 21 972 l 154 972 l 518 363 l 785 972 l 904 972 m 706 1138 l 425 1021 l 393 1088 l 664 1232 l 706 1138 z "},"":{"ha":1174,"x_min":146,"x_max":1028,"o":"m 910 0 l 910 972 l 1028 972 l 1028 0 l 910 0 m 385 507 q 264 499 336 507 l 264 113 q 381 108 376 108 q 628 315 628 108 q 565 458 628 408 q 385 507 503 507 m 264 972 l 264 611 q 393 618 351 618 q 663 539 572 618 q 753 318 753 460 q 651 81 753 165 q 367 -3 549 -3 q 247 -1 322 -3 q 146 0 171 0 l 146 972 l 264 972 m 782 1138 l 501 1021 l 469 1088 l 740 1232 l 782 1138 z "},"":{"ha":940,"x_min":49,"x_max":871,"o":"m 268 440 l 268 551 l 749 551 q 625 789 731 703 q 356 875 519 875 q 110 796 213 875 l 64 885 q 383 986 179 986 q 736 850 601 986 q 871 489 871 714 q 735 126 871 265 q 372 -14 599 -14 q 49 88 175 -14 l 100 186 q 369 97 218 97 q 630 190 525 97 q 750 440 735 282 l 268 440 m 615 1138 l 335 1021 l 303 1088 l 574 1232 l 615 1138 z "},"":{"ha":1497,"x_min":146,"x_max":1428,"o":"m 146 0 l 146 972 l 264 972 l 264 551 l 474 551 q 624 864 494 742 q 946 986 754 986 q 1293 847 1158 986 q 1428 486 1428 707 q 1292 128 1428 269 q 946 -14 1157 -14 q 620 113 754 -14 q 472 440 486 239 l 264 440 l 264 0 l 146 0 m 596 486 q 697 209 596 321 q 949 97 797 97 q 1208 207 1113 97 q 1303 486 1303 317 q 1204 766 1303 657 q 949 875 1106 875 q 696 765 796 875 q 596 486 596 656 m 990 1138 l 710 1021 l 678 1088 l 949 1232 l 990 1138 z "},"":{"ha":865,"x_min":35,"x_max":719,"o":"m 601 0 l 601 361 l 419 361 l 168 0 l 35 0 l 304 382 q 167 486 222 415 q 113 654 113 557 q 208 885 113 794 q 492 976 304 976 q 608 974 525 976 q 719 972 692 972 l 719 0 l 601 0 m 406 472 l 601 472 l 601 861 q 469 865 506 865 q 299 808 360 865 q 238 661 238 751 q 288 535 238 588 q 406 472 338 483 m 719 1138 l 439 1021 l 407 1088 l 678 1232 l 719 1138 z "},"":{"ha":799,"x_min":146,"x_max":708,"o":"m 172 1129 q 189 1175 172 1158 q 232 1192 206 1192 q 272 1174 256 1192 q 289 1129 289 1157 q 272 1079 289 1097 q 232 1061 256 1061 q 189 1079 206 1061 q 172 1129 172 1097 m 560 1129 q 578 1174 560 1157 q 621 1192 596 1192 q 661 1174 644 1192 q 678 1129 678 1157 q 661 1079 678 1097 q 621 1061 644 1061 q 578 1079 596 1061 q 560 1129 560 1097 m 560 1203 l 367 1029 l 326 1050 l 467 1232 l 560 1203 m 146 0 l 146 972 l 694 972 l 694 861 l 264 861 l 264 547 l 653 547 l 653 436 l 264 436 l 264 111 l 708 111 l 708 0 l 146 0 z "},"":{"ha":639,"x_min":56,"x_max":553,"o":"m 133 493 l 104 582 q 313 639 196 639 q 497 575 442 639 q 553 383 553 511 l 553 0 l 447 0 l 447 81 q 247 -10 375 -10 q 108 42 161 -10 q 56 183 56 94 q 122 329 56 276 q 292 382 188 382 q 447 342 392 382 q 419 490 447 442 q 306 539 392 539 q 133 493 221 539 m 286 90 q 447 171 379 90 l 447 250 q 307 292 389 292 q 213 265 251 292 q 174 189 174 239 q 203 117 174 143 q 286 90 233 90 m 493 936 l 326 738 l 260 785 l 407 1003 l 493 936 z "},"":{"ha":722,"x_min":58,"x_max":671,"o":"m 593 156 l 628 68 q 393 -14 538 -14 q 150 75 242 -14 q 58 313 58 164 q 144 547 58 454 q 381 639 231 639 q 588 559 504 639 q 671 353 671 479 q 664 278 671 310 l 183 278 q 249 140 190 190 q 401 90 308 90 q 593 156 524 90 m 375 535 q 239 488 292 535 q 176 368 186 442 l 556 368 q 503 490 551 446 q 375 535 456 535 m 533 936 l 367 738 l 300 785 l 447 1003 l 533 936 z "},"":{"ha":785,"x_min":100,"x_max":683,"o":"m 211 0 l 100 0 l 100 625 l 211 625 l 211 160 l 572 625 l 683 625 l 683 0 l 572 0 l 572 465 l 211 0 m 544 936 l 378 738 l 311 785 l 458 1003 l 544 936 z "},"":{"ha":785,"x_min":58,"x_max":725,"o":"m 151 78 q 105 125 151 78 q 58 313 58 171 q 151 547 58 454 q 392 639 243 639 q 633 547 540 639 q 725 313 725 454 q 633 78 725 171 q 392 -14 540 -14 q 151 78 243 -14 m 176 313 q 237 153 176 215 q 392 90 297 90 q 547 152 486 90 q 607 313 607 214 q 547 472 607 410 q 392 535 486 535 q 238 473 299 535 q 176 313 176 411 m 551 936 l 385 738 l 318 785 l 465 1003 l 551 936 z "},"":{"ha":682,"x_min":14,"x_max":668,"o":"m 668 625 l 418 0 q 300 -220 351 -162 q 179 -278 249 -278 q 61 -239 119 -278 l 97 -154 q 167 -175 142 -175 q 237 -142 206 -175 q 300 -33 268 -108 l 314 0 l 14 625 l 147 625 l 331 228 q 368 133 336 215 q 397 229 381 179 l 542 625 l 668 625 m 514 936 l 347 738 l 281 785 l 428 1003 l 514 936 z "},"":{"ha":892,"x_min":100,"x_max":792,"o":"m 100 0 l 100 625 l 211 625 l 211 438 l 314 438 q 504 377 447 438 q 561 222 561 317 q 499 64 561 128 q 301 0 438 0 l 100 0 m 681 0 l 681 625 l 792 625 l 792 0 l 681 0 m 293 333 l 211 333 l 211 104 l 292 104 q 408 133 372 104 q 443 218 443 161 q 293 333 443 333 m 583 936 l 417 738 l 350 785 l 497 1003 l 583 936 z "},"":{"ha":679,"x_min":49,"x_max":619,"o":"m 197 272 l 197 363 l 504 363 q 433 491 492 447 q 288 535 375 535 q 96 467 172 535 l 49 550 q 157 615 90 592 q 286 639 224 639 q 527 550 435 639 q 619 313 619 461 q 529 81 619 175 q 303 -14 439 -14 q 51 65 132 -14 l 104 147 q 296 90 167 90 q 439 138 383 90 q 506 272 494 186 l 197 272 m 461 936 l 294 738 l 228 785 l 375 1003 l 461 936 z "},"":{"ha":1056,"x_min":100,"x_max":996,"o":"m 100 0 l 100 625 l 218 625 l 218 375 l 354 375 q 458 566 374 493 q 669 639 543 639 q 906 547 815 639 q 996 313 996 454 q 905 78 996 171 q 669 -14 814 -14 q 453 63 539 -14 q 353 264 368 140 l 218 264 l 218 0 l 100 0 m 475 313 q 531 156 475 215 q 674 97 586 97 q 816 156 761 97 q 871 313 871 215 q 817 468 871 408 q 674 528 763 528 q 531 468 586 528 q 475 313 475 408 m 690 936 l 524 738 l 457 785 l 604 1003 l 690 936 z "},"":{"ha":669,"x_min":49,"x_max":568,"o":"m 374 625 l 568 625 l 568 0 l 457 0 l 457 208 l 336 208 l 183 0 l 49 0 l 229 236 q 135 297 175 249 q 94 417 94 344 q 161 566 94 507 q 374 625 228 625 m 213 414 q 249 340 213 368 q 329 313 285 313 l 457 313 l 457 521 l 356 521 q 247 491 282 521 q 213 414 213 461 m 546 936 l 379 738 l 313 785 l 460 1003 l 546 936 z "},"":{"ha":722,"x_min":58,"x_max":671,"o":"m 133 836 q 149 876 133 861 q 189 890 165 890 q 225 875 210 890 q 240 836 240 860 q 225 794 240 810 q 189 779 210 779 q 149 794 165 779 q 133 836 133 810 m 500 836 q 517 875 500 860 q 556 890 533 890 q 592 875 576 890 q 607 836 607 860 q 592 794 607 810 q 556 779 576 779 q 516 794 532 779 q 500 836 500 810 m 500 936 l 333 738 l 279 775 l 428 993 l 500 936 m 593 156 l 628 68 q 393 -14 538 -14 q 150 75 242 -14 q 58 313 58 164 q 144 547 58 454 q 381 639 231 639 q 588 559 504 639 q 671 353 671 479 q 664 278 671 310 l 183 278 q 249 140 190 190 q 401 90 308 90 q 593 156 524 90 m 375 535 q 239 488 292 535 q 176 368 186 442 l 556 368 q 503 490 551 446 q 375 535 456 535 z "},"":{"ha":822,"x_min":96,"x_max":726,"o":"m 176 123 q 136 190 176 123 q 96 486 96 257 q 174 849 96 715 q 411 983 253 983 q 648 849 569 983 q 726 486 726 715 q 649 122 726 256 q 414 -11 572 -11 q 176 123 256 -11 m 411 879 q 214 486 214 879 q 414 93 214 93 q 563 192 517 93 q 608 486 608 290 q 561 780 608 681 q 411 879 514 879 z "},"":{"ha":822,"x_min":117,"x_max":710,"o":"m 117 0 l 117 90 q 394 385 314 285 q 551 715 551 581 q 510 828 551 783 q 393 872 469 872 q 282 832 331 872 q 219 717 233 792 l 125 756 q 219 922 142 861 q 403 983 297 983 q 600 910 531 983 q 669 738 669 838 q 620 538 669 643 q 490 340 571 433 q 362 198 410 246 q 261 104 314 150 l 710 104 l 710 0 l 117 0 z "},"":{"ha":822,"x_min":107,"x_max":707,"o":"m 401 -14 q 222 29 299 -14 q 107 153 144 72 l 171 232 q 267 132 206 167 q 397 97 328 97 q 538 147 486 97 q 589 272 589 196 q 534 396 589 350 q 390 442 479 442 l 314 442 l 314 553 l 383 553 q 501 601 450 553 q 551 721 551 649 q 509 834 551 793 q 393 875 467 875 q 193 754 263 875 l 131 831 q 235 945 164 904 q 401 986 307 986 q 597 920 524 986 q 669 740 669 854 q 631 599 669 660 q 518 507 592 538 l 518 503 q 656 423 606 489 q 707 268 707 357 q 621 63 707 140 q 401 -14 535 -14 z "},"":{"ha":822,"x_min":68,"x_max":763,"o":"m 517 0 l 517 243 l 68 243 l 68 322 l 471 972 l 599 972 l 214 354 l 517 354 l 517 625 l 628 625 l 628 354 l 763 354 l 763 243 l 628 243 l 628 0 l 517 0 z "},"":{"ha":822,"x_min":99,"x_max":694,"o":"m 188 483 l 249 972 l 688 972 l 688 861 l 346 861 l 310 599 q 388 608 346 608 q 608 526 522 608 q 694 307 694 443 q 603 74 694 161 q 378 -14 511 -14 q 217 24 294 -14 q 99 133 140 61 l 163 215 q 258 128 197 160 q 381 97 318 97 q 520 156 464 97 q 576 303 576 214 q 512 450 576 392 q 340 508 447 508 q 188 483 251 508 z "},"":{"ha":822,"x_min":83,"x_max":721,"o":"m 83 344 q 126 587 83 472 q 240 781 169 701 q 391 914 310 861 q 556 986 472 967 l 601 901 q 353 753 463 865 q 214 469 244 640 q 443 599 282 599 q 642 515 564 599 q 721 300 721 432 q 631 74 721 163 q 421 -14 540 -14 q 174 90 264 -14 q 83 344 83 193 m 201 344 q 258 168 201 239 q 419 97 315 97 q 551 155 499 97 q 603 292 603 213 q 551 438 603 381 q 406 494 500 494 q 274 449 328 494 q 201 344 221 404 z "},"":{"ha":822,"x_min":129,"x_max":713,"o":"m 129 861 l 129 972 l 713 972 l 713 900 l 354 0 l 232 0 l 578 861 l 129 861 z "},"":{"ha":822,"x_min":89,"x_max":735,"o":"m 394 556 l 431 556 q 540 603 493 556 q 586 715 586 650 q 535 832 586 789 q 410 875 483 875 q 287 831 336 875 q 238 715 238 786 q 284 603 238 650 q 394 556 331 556 m 429 444 l 399 444 q 263 396 319 444 q 207 272 207 347 q 265 147 207 196 q 411 97 322 97 q 560 145 504 97 q 617 272 617 193 q 562 398 615 351 q 429 444 508 444 m 642 60 q 595 23 642 60 q 413 -14 549 -14 q 183 58 276 -14 q 89 251 89 131 q 140 407 89 340 q 272 497 190 474 l 272 501 q 163 588 207 524 q 119 732 119 653 q 203 915 119 844 q 411 986 288 986 q 619 915 535 986 q 704 732 704 844 q 661 596 704 660 q 544 503 618 532 l 544 499 q 681 419 626 485 q 735 260 735 354 q 642 60 735 133 z "},"":{"ha":822,"x_min":94,"x_max":735,"o":"m 735 621 q 598 183 735 353 q 249 -14 461 13 l 211 74 q 478 215 375 106 q 604 494 582 324 q 385 374 539 374 q 176 459 258 374 q 94 672 94 544 q 189 898 94 810 q 404 986 283 986 q 648 884 561 986 q 735 621 735 782 m 617 621 q 563 801 617 728 q 406 875 508 875 q 269 817 326 875 q 213 681 213 760 q 266 537 213 596 q 413 478 319 478 q 544 520 492 478 q 617 621 597 563 z "},"":{"ha":822,"x_min":50,"x_max":772,"o":"m 149 92 q 99 145 149 92 q 50 347 50 199 q 149 602 50 496 q 411 708 247 708 q 674 602 575 708 q 772 347 772 496 q 674 92 772 199 q 411 -14 575 -14 q 149 92 247 -14 m 168 347 q 235 170 168 243 q 411 97 301 97 q 588 169 522 97 q 654 347 654 242 q 588 526 654 454 q 411 597 521 597 q 235 526 301 597 q 168 347 168 454 z "},"":{"ha":822,"x_min":186,"x_max":488,"o":"m 186 563 l 411 706 l 488 706 l 488 0 l 369 0 l 369 563 l 224 464 l 186 563 z "},"":{"ha":822,"x_min":117,"x_max":710,"o":"m 117 0 l 117 83 q 551 446 551 263 q 511 556 551 514 q 397 599 471 599 q 281 561 333 599 q 208 451 228 524 l 135 519 q 235 658 158 606 q 400 710 311 710 q 597 643 532 710 q 663 471 663 576 q 631 341 663 404 q 551 233 599 278 q 458 157 503 188 q 374 111 413 126 l 710 111 l 710 0 l 117 0 z "},"":{"ha":739,"x_min":49,"x_max":649,"o":"m 343 -292 q 163 -249 240 -292 q 49 -125 86 -206 l 113 -46 q 208 -146 147 -111 q 339 -181 269 -181 q 479 -131 428 -181 q 531 -6 531 -82 q 476 118 531 72 q 332 164 421 164 l 256 164 l 256 275 l 325 275 q 442 323 392 275 q 493 443 493 371 q 451 556 493 515 q 335 597 408 597 q 135 476 204 597 l 72 553 q 177 667 106 626 q 343 708 249 708 q 538 642 465 708 q 611 463 611 576 q 572 321 611 382 q 460 229 533 260 l 460 225 q 598 145 547 211 q 649 -10 649 79 q 563 -215 649 -137 q 343 -292 476 -292 z "},"":{"ha":822,"x_min":68,"x_max":763,"o":"m 517 -278 l 517 0 l 68 0 l 68 79 l 453 694 l 581 694 l 214 111 l 517 111 l 517 382 l 628 382 l 628 111 l 763 111 l 763 0 l 628 0 l 628 -278 l 517 -278 z "},"":{"ha":822,"x_min":99,"x_max":694,"o":"m 188 206 l 249 694 l 688 694 l 688 583 l 346 583 l 310 321 q 388 331 346 331 q 608 248 522 331 q 694 29 694 165 q 603 -204 694 -117 q 378 -292 511 -292 q 217 -254 294 -292 q 99 -144 140 -217 l 163 -62 q 258 -149 197 -118 q 381 -181 318 -181 q 520 -122 464 -181 q 576 25 576 -64 q 512 172 576 114 q 340 231 447 231 q 188 206 251 231 z "},"":{"ha":822,"x_min":83,"x_max":721,"o":"m 83 344 q 126 587 83 472 q 240 781 169 701 q 391 914 310 861 q 556 986 472 967 l 601 901 q 353 753 463 865 q 214 469 244 640 q 443 599 282 599 q 642 515 564 599 q 721 300 721 432 q 631 74 721 163 q 421 -14 540 -14 q 174 90 264 -14 q 83 344 83 193 m 201 344 q 258 168 201 239 q 419 97 315 97 q 551 155 499 97 q 603 292 603 213 q 551 438 603 381 q 406 494 500 494 q 274 449 328 494 q 201 344 221 404 z "},"":{"ha":822,"x_min":129,"x_max":713,"o":"m 129 583 l 129 694 l 713 694 l 713 622 l 354 -278 l 232 -278 l 578 583 l 129 583 z "},"":{"ha":822,"x_min":89,"x_max":735,"o":"m 394 556 l 431 556 q 540 603 493 556 q 586 715 586 650 q 535 832 586 789 q 410 875 483 875 q 287 831 336 875 q 238 715 238 786 q 284 603 238 650 q 394 556 331 556 m 429 444 l 399 444 q 263 396 319 444 q 207 272 207 347 q 265 147 207 196 q 411 97 322 97 q 560 145 504 97 q 617 272 617 193 q 562 398 615 351 q 429 444 508 444 m 642 60 q 595 23 642 60 q 413 -14 549 -14 q 183 58 276 -14 q 89 251 89 131 q 140 407 89 340 q 272 497 190 474 l 272 501 q 163 588 207 524 q 119 732 119 653 q 203 915 119 844 q 411 986 288 986 q 619 915 535 986 q 704 732 704 844 q 661 596 704 660 q 544 503 618 532 l 544 499 q 681 419 626 485 q 735 260 735 354 q 642 60 735 133 z "},"":{"ha":822,"x_min":94,"x_max":735,"o":"m 735 343 q 598 -95 735 75 q 249 -292 461 -265 l 211 -204 q 478 -63 375 -172 q 604 217 582 46 q 385 96 539 96 q 176 181 258 96 q 94 394 94 267 q 189 620 94 532 q 404 708 283 708 q 648 606 561 708 q 735 343 735 504 m 617 343 q 563 524 617 450 q 406 597 508 597 q 269 540 326 597 q 213 403 213 482 q 266 259 213 318 q 413 200 319 200 q 544 242 492 200 q 617 343 597 285 z "},"":{"ha":819,"x_min":17,"x_max":803,"o":"m 17 0 l 358 733 l 461 733 l 803 0 l 676 0 l 588 194 l 225 194 l 136 0 l 17 0 m 407 592 l 275 306 l 538 306 l 407 592 m 204 951 l 256 1008 q 414 924 326 924 q 574 1007 504 924 l 614 953 q 410 833 528 833 q 204 951 281 833 z "},"":{"ha":819,"x_min":17,"x_max":803,"o":"m 17 0 l 358 733 l 461 733 l 803 0 l 676 0 l 588 194 l 225 194 l 136 0 l 17 0 m 407 592 l 275 306 l 538 306 l 407 592 m 226 868 l 226 958 l 593 958 l 593 868 l 226 868 z "},"":{"ha":819,"x_min":17,"x_max":803,"o":"m 760 -175 l 793 -243 q 674 -278 751 -278 q 554 -247 604 -278 q 504 -150 504 -217 q 551 -50 504 -90 q 672 8 599 -10 l 588 194 l 225 194 l 136 0 l 17 0 l 358 733 l 461 733 l 803 0 l 781 0 q 665 -34 715 0 q 615 -114 615 -68 q 642 -170 615 -153 q 699 -187 668 -187 q 760 -175 733 -187 m 407 592 l 275 306 l 538 306 l 407 592 z "},"":{"ha":753,"x_min":56,"x_max":714,"o":"m 668 158 l 714 69 q 606 10 675 32 q 460 -12 536 -12 q 167 90 278 -12 q 56 364 56 193 q 161 631 56 524 q 454 739 267 739 q 699 667 606 739 l 644 578 q 454 628 560 628 q 256 556 332 628 q 181 364 181 483 q 260 172 181 244 q 471 99 339 99 q 668 158 585 99 m 594 979 l 407 806 l 351 867 l 526 1064 l 594 979 z "},"":{"ha":753,"x_min":56,"x_max":714,"o":"m 668 158 l 714 69 q 606 10 675 32 q 460 -12 536 -12 q 167 90 278 -12 q 56 364 56 193 q 161 631 56 524 q 454 739 267 739 q 699 667 606 739 l 644 578 q 454 628 560 628 q 256 556 332 628 q 181 364 181 483 q 260 172 181 244 q 471 99 339 99 q 668 158 585 99 m 431 804 l 229 968 l 283 1035 l 435 911 l 586 1033 l 638 968 l 436 804 l 431 804 z "},"":{"ha":753,"x_min":56,"x_max":714,"o":"m 668 158 l 714 69 q 606 10 675 32 q 460 -12 536 -12 q 167 90 278 -12 q 56 364 56 193 q 161 631 56 524 q 454 739 267 739 q 699 667 606 739 l 644 578 q 454 628 560 628 q 256 556 332 628 q 181 364 181 483 q 260 172 181 244 q 471 99 339 99 q 668 158 585 99 m 439 1031 l 646 867 l 593 800 l 436 924 l 276 801 l 224 867 l 433 1031 l 439 1031 z "},"":{"ha":753,"x_min":56,"x_max":714,"o":"m 668 158 l 714 69 q 606 10 675 32 q 460 -12 536 -12 q 167 90 278 -12 q 56 364 56 193 q 161 631 56 524 q 454 739 267 739 q 699 667 606 739 l 644 578 q 454 628 560 628 q 256 556 332 628 q 181 364 181 483 q 260 172 181 244 q 471 99 339 99 q 668 158 585 99 m 358 922 q 379 970 358 951 q 431 989 400 989 q 478 970 458 989 q 499 922 499 951 q 478 869 499 889 q 431 850 458 850 q 379 869 400 850 q 358 922 358 889 z "}}}
